<?xml version="1.0" encoding="utf-8"?>
<!-- Generator: Adobe Illustrator 19.0.0, SVG Export Plug-In . SVG Version: 6.00 Build 0)  -->
<svg version="1.1" id="Layer_1" xmlns="http://www.w3.org/2000/svg" xmlns:xlink="http://www.w3.org/1999/xlink" x="0px" y="0px"
	 viewBox="0 0 1920 1200" style="enable-background:new 0 0 1920 1200;" xml:space="preserve">
<g id="XMLID_217_">
	
		<ellipse id="XMLID_77_" transform="matrix(0.8547 0.5191 -0.5191 0.8547 458.8906 -313.9269)" cx="790.3" cy="662.9" rx="85" ry="33"/>
	
		<ellipse id="XMLID_130_" transform="matrix(0.8141 0.5807 -0.5807 0.8141 482.1557 -359.6031)" cx="802.8" cy="573.3" rx="88" ry="35.7"/>
	
		<ellipse id="XMLID_131_" transform="matrix(0.7278 -0.6858 0.6858 0.7278 -249.1695 662.4432)" cx="709.9" cy="645.1" rx="79" ry="27.3"/>
	
		<ellipse id="XMLID_132_" transform="matrix(0.7775 -0.6289 0.6289 0.7775 -224.063 541.2612)" cx="652.9" cy="587.3" rx="64.9" ry="28.6"/>
	
		<ellipse id="XMLID_133_" transform="matrix(0.8141 0.5807 -0.5807 0.8141 484.7105 -355.5843)" cx="797.8" cy="579.3" rx="88" ry="35.7"/>
	
		<ellipse id="XMLID_134_" transform="matrix(0.7775 -0.6289 0.6289 0.7775 -225.8725 546.1467)" cx="658.9" cy="592.3" rx="64.9" ry="28.6"/>
	
		<ellipse id="XMLID_214_" transform="matrix(0.8547 0.5191 -0.5191 0.8547 462.5454 -308.9857)" cx="783.3" cy="671.9" rx="85" ry="33"/>
	
		<ellipse id="XMLID_216_" transform="matrix(0.7278 -0.6858 0.6858 0.7278 -251.3789 668.8771)" cx="716.9" cy="651.1" rx="79" ry="27.3"/>
</g>
<g id="XMLID_219_">
	
		<ellipse id="XMLID_229_" transform="matrix(0.8547 0.5191 -0.5191 0.8547 489.9951 -562.4816)" cx="1249.9" cy="594.1" rx="68" ry="26.4"/>
	
		<ellipse id="XMLID_228_" transform="matrix(0.8141 0.5807 -0.5807 0.8141 537.6357 -634.4795)" cx="1259.9" cy="522.5" rx="70.4" ry="28.5"/>
	
		<ellipse id="XMLID_227_" transform="matrix(0.7278 -0.6858 0.6858 0.7278 -74.9939 970.9492)" cx="1185.6" cy="579.9" rx="63.2" ry="21.9"/>
	
		<ellipse id="XMLID_226_" transform="matrix(0.7775 -0.6289 0.6289 0.7775 -82.0008 835.6621)" cx="1140" cy="533.7" rx="51.9" ry="22.9"/>
	
		<ellipse id="XMLID_225_" transform="matrix(0.8141 0.5807 -0.5807 0.8141 539.6788 -631.2656)" cx="1255.9" cy="527.3" rx="70.4" ry="28.5"/>
	
		<ellipse id="XMLID_223_" transform="matrix(0.7775 -0.6289 0.6289 0.7775 -83.4478 839.5692)" cx="1144.8" cy="537.7" rx="51.9" ry="22.9"/>
	
		<ellipse id="XMLID_222_" transform="matrix(0.8547 0.5191 -0.5191 0.8547 492.9179 -558.5302)" cx="1244.3" cy="601.3" rx="68" ry="26.4"/>
	
		<ellipse id="XMLID_220_" transform="matrix(0.7278 -0.6858 0.6858 0.7278 -76.7607 976.0945)" cx="1191.2" cy="584.7" rx="63.2" ry="21.9"/>
</g>
<g id="XMLID_230_">
	
		<ellipse id="XMLID_246_" transform="matrix(0.8547 0.5191 -0.5191 0.8547 458.499 -435.2007)" cx="1006.7" cy="601.5" rx="62.8" ry="24.4"/>
	
		<ellipse id="XMLID_245_" transform="matrix(0.8141 0.5807 -0.5807 0.8141 499.7229 -490.4741)" cx="1016" cy="535.3" rx="65.1" ry="26.4"/>
	
		<ellipse id="XMLID_244_" transform="matrix(0.7278 -0.6858 0.6858 0.7278 -145.6491 809.8351)" cx="947.3" cy="588.4" rx="58.4" ry="20.2"/>
	
		<ellipse id="XMLID_243_" transform="matrix(0.7775 -0.6289 0.6289 0.7775 -141.7542 690.6399)" cx="905.2" cy="545.7" rx="48" ry="21.1"/>
	
		<ellipse id="XMLID_242_" transform="matrix(0.8141 0.5807 -0.5807 0.8141 501.6117 -487.503)" cx="1012.3" cy="539.8" rx="65.1" ry="26.4"/>
	
		<ellipse id="XMLID_240_" transform="matrix(0.7775 -0.6289 0.6289 0.7775 -143.0918 694.2516)" cx="909.6" cy="549.4" rx="48" ry="21.1"/>
	
		<ellipse id="XMLID_232_" transform="matrix(0.8547 0.5191 -0.5191 0.8547 461.2009 -431.5479)" cx="1001.6" cy="608.2" rx="62.8" ry="24.4"/>
	
		<ellipse id="XMLID_231_" transform="matrix(0.7278 -0.6858 0.6858 0.7278 -147.2824 814.5917)" cx="952.5" cy="592.8" rx="58.4" ry="20.2"/>
</g>
</svg>
