<?xml version="1.0" encoding="utf-8"?>
<!-- Generator: Adobe Illustrator 19.0.0, SVG Export Plug-In . SVG Version: 6.00 Build 0)  -->
<svg version="1.1" id="Layer_1" xmlns="http://www.w3.org/2000/svg" xmlns:xlink="http://www.w3.org/1999/xlink" x="0px" y="0px"
	 viewBox="0 0 1920 1200" style="enable-background:new 0 0 1920 1200;" xml:space="preserve">
<style type="text/css">
	.st0{fill:#EDDA78;}
	.st1{fill:#2C3A47;}
	.st2{fill:#FFFFFF;}
</style>
<g id="XMLID_259_">
	<path id="XMLID_91_" class="st0" d="M704.4,341.2l14.8,70.4c3.3,15.5,18.3,25.4,33.8,22.4l250.8-49.3c32.9-6.5,30.2-54.5-3.3-57.1
		l-265.7-21.1C715.7,305,700.4,322.4,704.4,341.2z"/>
	<path id="XMLID_88_" d="M661.5,452.3l54.8,423c3.2,24.9,23.5,44.2,48.6,46.2l404.5,32.1c29.5,2.3,55.2-19.8,57.3-49.4L1266,337
		c2.5-35.5-30-63.4-64.7-55.6L702.6,393.5C675.8,399.6,658,425,661.5,452.3z"/>
	<path id="XMLID_128_" class="st1" d="M651.5,442.3l54.8,423c3.2,24.9,23.5,44.2,48.6,46.2l404.5,32.1c29.5,2.3,55.2-19.8,57.3-49.4
		L1256,327c2.5-35.5-30-63.4-64.7-55.6L692.6,383.5C665.8,389.6,648,415,651.5,442.3z"/>
	<g id="XMLID_208_">
		<g id="XMLID_205_">
			<g id="XMLID_403_">
				
					<ellipse id="XMLID_404_" transform="matrix(0.9751 -0.2218 0.2218 0.9751 -72.2707 162.2521)" class="st2" cx="686.2" cy="402.9" rx="9.6" ry="9.5"/>
			</g>
			<g id="XMLID_401_">
				
					<ellipse id="XMLID_402_" transform="matrix(0.9751 -0.2218 0.2218 0.9751 -70.3971 167.6254)" class="st2" cx="711.1" cy="397.2" rx="9.6" ry="9.5"/>
			</g>
			<g id="XMLID_399_">
				
					<ellipse id="XMLID_400_" transform="matrix(0.9751 -0.2218 0.2218 0.9751 -68.5235 172.9986)" class="st2" cx="736" cy="391.6" rx="9.6" ry="9.5"/>
			</g>
			<g id="XMLID_397_">
				
					<ellipse id="XMLID_398_" transform="matrix(0.9751 -0.2218 0.2218 0.9751 -66.6493 178.3694)" class="st2" cx="760.8" cy="385.9" rx="9.6" ry="9.5"/>
			</g>
			<g id="XMLID_395_">
				
					<ellipse id="XMLID_396_" transform="matrix(0.9751 -0.2218 0.2218 0.9751 -64.7763 183.7452)" class="st2" cx="785.7" cy="380.3" rx="9.6" ry="9.5"/>
			</g>
			<g id="XMLID_393_">
				
					<ellipse id="XMLID_394_" transform="matrix(0.9751 -0.2218 0.2218 0.9751 -62.9027 189.1185)" class="st2" cx="810.5" cy="374.6" rx="9.6" ry="9.5"/>
			</g>
			<g id="XMLID_391_">
				
					<ellipse id="XMLID_392_" transform="matrix(0.9751 -0.2218 0.2218 0.9751 -61.029 194.4911)" class="st2" cx="835.4" cy="369" rx="9.6" ry="9.5"/>
			</g>
			<g id="XMLID_389_">
				
					<ellipse id="XMLID_390_" transform="matrix(0.9751 -0.2218 0.2218 0.9751 -59.155 199.8622)" class="st2" cx="860.3" cy="363.3" rx="9.6" ry="9.5"/>
			</g>
			<g id="XMLID_387_">
				
					<ellipse id="XMLID_388_" transform="matrix(0.9751 -0.2218 0.2218 0.9751 -57.2819 205.2383)" class="st2" cx="885.1" cy="357.6" rx="9.6" ry="9.5"/>
			</g>
			<g id="XMLID_385_">
				
					<ellipse id="XMLID_386_" transform="matrix(0.9751 -0.2218 0.2218 0.9751 -55.4083 210.6116)" class="st2" cx="910" cy="352" rx="9.6" ry="9.5"/>
			</g>
			<g id="XMLID_383_">
				
					<ellipse id="XMLID_384_" transform="matrix(0.9751 -0.2218 0.2218 0.9751 -53.5347 215.9849)" class="st2" cx="934.8" cy="346.3" rx="9.6" ry="9.5"/>
			</g>
			<g id="XMLID_381_">
				
					<ellipse id="XMLID_382_" transform="matrix(0.9751 -0.2218 0.2218 0.9751 -51.6607 221.355)" class="st2" cx="959.7" cy="340.7" rx="9.6" ry="9.5"/>
			</g>
			<g id="XMLID_379_">
				
					<ellipse id="XMLID_380_" transform="matrix(0.9751 -0.2218 0.2218 0.9751 -49.7874 226.7314)" class="st2" cx="984.6" cy="335" rx="9.6" ry="9.5"/>
			</g>
			<g id="XMLID_377_">
				
					<ellipse id="XMLID_378_" transform="matrix(0.9751 -0.2218 0.2218 0.9751 -47.9138 232.1047)" class="st2" cx="1009.4" cy="329.4" rx="9.6" ry="9.5"/>
			</g>
			<g id="XMLID_375_">
				
					<ellipse id="XMLID_376_" transform="matrix(0.9751 -0.2218 0.2218 0.9751 -46.0399 237.4746)" class="st2" cx="1034.3" cy="323.7" rx="9.6" ry="9.5"/>
			</g>
			<g id="XMLID_373_">
				
					<ellipse id="XMLID_374_" transform="matrix(0.9751 -0.2218 0.2218 0.9751 -44.1664 242.8478)" class="st2" cx="1059.1" cy="318.1" rx="9.6" ry="9.5"/>
			</g>
			<g id="XMLID_371_">
				
					<ellipse id="XMLID_372_" transform="matrix(0.9751 -0.2218 0.2218 0.9751 -42.293 248.2245)" class="st2" cx="1084" cy="312.4" rx="9.6" ry="9.5"/>
			</g>
			<g id="XMLID_369_">
				
					<ellipse id="XMLID_370_" transform="matrix(0.9751 -0.2218 0.2218 0.9751 -40.4194 253.5978)" class="st2" cx="1108.9" cy="306.8" rx="9.6" ry="9.5"/>
			</g>
			<g id="XMLID_367_">
				
					<ellipse id="XMLID_368_" transform="matrix(0.9751 -0.2218 0.2218 0.9751 -38.5457 258.9675)" class="st2" cx="1133.7" cy="301.1" rx="9.6" ry="9.5"/>
			</g>
			<g id="XMLID_365_">
				
					<ellipse id="XMLID_366_" transform="matrix(0.9751 -0.2218 0.2218 0.9751 -36.6721 264.3407)" class="st2" cx="1158.6" cy="295.4" rx="9.6" ry="9.5"/>
			</g>
			<g id="XMLID_363_">
				<path id="XMLID_364_" class="st2" d="M1193,289.6c0.2-2.6-0.8-5.1-2.8-6.8c-2-1.7-4.9-2.7-8-2.2c-1.6,0.2-3,0.7-4.2,1.5
					c-0.3,0.2-0.6,0.4-0.9,0.6c-0.3,0.2-0.5,0.4-0.7,0.6c-0.4,0.4-0.8,0.9-1.1,1.4c-1.3,2.1-1.8,4.6-1.2,7.2
					c0.6,2.6,2.2,4.6,4.2,5.9c0.5,0.3,1.1,0.6,1.6,0.8c0.3,0.1,0.6,0.2,0.9,0.3c0.3,0.1,0.5,0.2,0.8,0.3c1,0.3,2.1,0.3,3.2,0.2
					c2.1-0.3,4-1.4,5.5-3.2C1191.7,294.5,1192.9,292.3,1193,289.6z"/>
			</g>
			<g id="XMLID_361_">
				<path id="XMLID_362_" class="st2" d="M1217,297.4c1.4-2.2,1.8-4.9,0.9-7.3c-0.2-0.6-0.5-1.2-0.9-1.8c-0.4-0.6-0.8-1.1-1.3-1.6
					c-1-1.1-2.3-1.9-3.7-2.5c-2.9-1.2-6-1-8.3,0.2c-2.3,1.2-3.9,3.3-4.4,5.9c-0.5,2.6,0.1,5.1,1.1,7.1c1.1,2,2.6,3.6,4.6,4.4
					c1,0.4,2,0.5,3.1,0.6c0.5,0,1.1-0.1,1.6-0.2c0.5-0.1,1.1-0.2,1.6-0.4C1213.5,301,1215.6,299.6,1217,297.4z"/>
			</g>
			<g id="XMLID_359_">
				<path id="XMLID_360_" class="st2" d="M1234.2,315.9c2.3-1.2,3.9-3.4,4.3-6c0.1-0.6,0.2-1.3,0.1-2c-0.1-0.7-0.2-1.4-0.4-2.1
					c-0.4-1.4-1.1-2.7-2.1-4c-2-2.4-4.8-3.8-7.4-3.8c-1.3,0-2.6,0.2-3.7,0.7c-1.1,0.5-2.2,1.3-3,2.3s-1.4,2.1-1.8,3.3
					c-0.4,1.2-0.6,2.4-0.6,3.5c0,2.3,0.5,4.4,1.9,6c0.6,0.9,1.5,1.5,2.4,2c0.5,0.3,1,0.5,1.5,0.6c0.5,0.2,1.1,0.3,1.6,0.4
					C1229.4,317.3,1231.9,317.1,1234.2,315.9z"/>
			</g>
			<g id="XMLID_357_">
				<path id="XMLID_358_" class="st2" d="M1240.3,340.3c2.6,0,5-1,6.7-3.1c0.8-1,1.4-2.3,1.8-3.7c0.3-1.4,0.4-2.9,0.1-4.5
					c-0.3-1.5-0.8-3-1.7-4.2c-0.8-1.2-1.8-2.1-2.9-2.8c-2.2-1.4-4.9-1.5-7.3-0.6c-2.4,1-4.2,2.8-5.4,4.7c-0.6,1-1,2-1.2,3
					c-0.2,1-0.3,2.1-0.1,3.1c0.2,1.1,0.6,2,1.2,2.9c0.5,0.9,1.3,1.7,2.2,2.4C1235.3,339.2,1237.7,340.3,1240.3,340.3z"/>
			</g>
			<g id="XMLID_337_">
				
					<ellipse id="XMLID_338_" transform="matrix(-7.132331e-002 0.9975 -0.9975 -7.132331e-002 1682.9312 -854.4866)" class="st2" cx="1239.2" cy="356.2" rx="9.6" ry="9.5"/>
			</g>
			<g id="XMLID_335_">
				
					<ellipse id="XMLID_336_" transform="matrix(-7.132308e-002 0.9975 -0.9975 -7.132308e-002 1706.3477 -825.4294)" class="st2" cx="1237.4" cy="381.6" rx="9.6" ry="9.5"/>
			</g>
			<g id="XMLID_333_">
				
					<ellipse id="XMLID_334_" transform="matrix(-7.132331e-002 0.9975 -0.9975 -7.132331e-002 1729.7648 -796.3721)" class="st2" cx="1235.6" cy="407.1" rx="9.6" ry="9.5"/>
			</g>
			<g id="XMLID_331_">
				
					<ellipse id="XMLID_332_" transform="matrix(-7.132941e-002 0.9975 -0.9975 -7.132941e-002 1753.189 -767.3117)" class="st2" cx="1233.8" cy="432.5" rx="9.6" ry="9.5"/>
			</g>
			<g id="XMLID_329_">
				
					<ellipse id="XMLID_330_" transform="matrix(-7.132331e-002 0.9975 -0.9975 -7.132331e-002 1776.5985 -738.2576)" class="st2" cx="1232" cy="457.9" rx="9.6" ry="9.5"/>
			</g>
			<g id="XMLID_313_">
				
					<ellipse id="XMLID_314_" transform="matrix(-7.132308e-002 0.9975 -0.9975 -7.132308e-002 1800.0151 -709.2006)" class="st2" cx="1230.2" cy="483.3" rx="9.6" ry="9.5"/>
			</g>
			<g id="XMLID_311_">
				
					<ellipse id="XMLID_312_" transform="matrix(-7.132331e-002 0.9975 -0.9975 -7.132331e-002 1823.4321 -680.1432)" class="st2" cx="1228.3" cy="508.8" rx="9.6" ry="9.5"/>
			</g>
			<g id="XMLID_309_">
				
					<ellipse id="XMLID_310_" transform="matrix(-7.132308e-002 0.9975 -0.9975 -7.132308e-002 1846.8488 -651.0861)" class="st2" cx="1226.5" cy="534.2" rx="9.6" ry="9.5"/>
			</g>
			<g id="XMLID_285_">
				
					<ellipse id="XMLID_308_" transform="matrix(-7.132941e-002 0.9975 -0.9975 -7.132941e-002 1870.2732 -622.0248)" class="st2" cx="1224.7" cy="559.6" rx="9.6" ry="9.5"/>
			</g>
			<g id="XMLID_283_">
				
					<ellipse id="XMLID_284_" transform="matrix(-7.132308e-002 0.9975 -0.9975 -7.132308e-002 1893.6825 -592.9717)" class="st2" cx="1222.9" cy="585.1" rx="9.6" ry="9.5"/>
			</g>
			<g id="XMLID_272_">
				
					<ellipse id="XMLID_282_" transform="matrix(-7.132308e-002 0.9975 -0.9975 -7.132308e-002 1917.0994 -563.9146)" class="st2" cx="1221.1" cy="610.5" rx="9.6" ry="9.5"/>
			</g>
			<g id="XMLID_270_">
				
					<ellipse id="XMLID_271_" transform="matrix(-7.132353e-002 0.9975 -0.9975 -7.132353e-002 1940.5167 -534.8569)" class="st2" cx="1219.2" cy="635.9" rx="9.6" ry="9.5"/>
			</g>
			<g id="XMLID_268_">
				
					<ellipse id="XMLID_269_" transform="matrix(-7.132308e-002 0.9975 -0.9975 -7.132308e-002 1963.9331 -505.8)" class="st2" cx="1217.4" cy="661.4" rx="9.6" ry="9.5"/>
			</g>
			<g id="XMLID_266_">
				
					<ellipse id="XMLID_267_" transform="matrix(-7.132941e-002 0.9975 -0.9975 -7.132941e-002 1987.3573 -476.7379)" class="st2" cx="1215.6" cy="686.8" rx="9.6" ry="9.5"/>
			</g>
			<g id="XMLID_264_">
				
					<ellipse id="XMLID_265_" transform="matrix(-7.132308e-002 0.9975 -0.9975 -7.132308e-002 2010.7667 -447.6856)" class="st2" cx="1213.8" cy="712.2" rx="9.6" ry="9.5"/>
			</g>
			<g id="XMLID_262_">
				
					<ellipse id="XMLID_263_" transform="matrix(-7.132308e-002 0.9975 -0.9975 -7.132308e-002 2034.1837 -418.6283)" class="st2" cx="1212" cy="737.6" rx="9.6" ry="9.5"/>
			</g>
			<g id="XMLID_260_">
				
					<ellipse id="XMLID_261_" transform="matrix(-7.132941e-002 0.9975 -0.9975 -7.132941e-002 2057.6079 -389.5657)" class="st2" cx="1210.2" cy="763.1" rx="9.6" ry="9.5"/>
			</g>
			<g id="XMLID_159_">
				
					<ellipse id="XMLID_160_" transform="matrix(-7.132308e-002 0.9975 -0.9975 -7.132308e-002 2081.0173 -360.5139)" class="st2" cx="1208.3" cy="788.5" rx="9.6" ry="9.5"/>
			</g>
			<g id="XMLID_157_">
				
					<ellipse id="XMLID_158_" transform="matrix(-7.132987e-002 0.9975 -0.9975 -7.132987e-002 2104.4419 -331.4506)" class="st2" cx="1206.5" cy="813.9" rx="9.6" ry="9.5"/>
			</g>
			<g id="XMLID_155_">
				
					<ellipse id="XMLID_156_" transform="matrix(-7.132308e-002 0.9975 -0.9975 -7.132308e-002 2127.8511 -302.3994)" class="st2" cx="1204.7" cy="839.4" rx="9.6" ry="9.5"/>
			</g>
			<g id="XMLID_97_">
				
					<ellipse id="XMLID_98_" transform="matrix(-7.132308e-002 0.9975 -0.9975 -7.132308e-002 2151.2678 -273.3423)" class="st2" cx="1202.9" cy="864.8" rx="9.6" ry="9.5"/>
			</g>
			<g id="XMLID_94_">
				
					<ellipse id="XMLID_95_" transform="matrix(-7.132941e-002 0.9975 -0.9975 -7.132941e-002 2174.6919 -244.2789)" class="st2" cx="1201.1" cy="890.2" rx="9.6" ry="9.5"/>
			</g>
		</g>
		<g id="XMLID_207_">
			
				<image style="overflow:visible;" width="652" height="699" id="XMLID_90_" xlink:href="63EC2A3E.png"  transform="matrix(1 0 0 1 634 244)">
			</image>
		</g>
	</g>
</g>
</svg>
