<?xml version="1.0" encoding="utf-8"?>
<!-- Generator: Adobe Illustrator 19.0.0, SVG Export Plug-In . SVG Version: 6.00 Build 0)  -->
<svg version="1.1" id="Layer_1" xmlns="http://www.w3.org/2000/svg" xmlns:xlink="http://www.w3.org/1999/xlink" x="0px" y="0px"
	 viewBox="0 0 1920 1080" style="enable-background:new 0 0 1920 1080;" xml:space="preserve">
<style type="text/css">
	.st0{fill:#F2F2F2;}
	.st1{display:none;}
	.st2{display:inline;fill:#F2F2F2;}
	.st3{display:inline;}
	.st4{fill:#CCCCCC;}
	.st5{fill:#B3B3B3;}
</style>
<g id="XMLID_320_">
	<g id="XMLID_17_">
		<path id="XMLID_45_" class="st0" d="M900.3,674.7c0,0,1.2,0.2,3.4,0.6c1.1,0.2,2.5,0.4,4.1,0.7c1.6,0.2,3.5,0.5,5.5,0.8
			c4.1,0.6,9.2,1.2,15,1.9c5.8,0.6,12.3,1.3,19.5,1.8c14.3,1,31,1.5,48.9,1c8.9-0.2,18.1-0.7,27.4-1.6c9.3-0.8,18.7-1.9,28-3.5
			c9.3-1.5,18.5-3.4,27.4-5.7c4.4-1.2,8.8-2.4,13-3.9c4.2-1.5,8.2-3.2,11.8-5.2c3.7-1.9,7.1-4.2,10-6.4c2.9-2.2,5.2-4.5,6.5-6.4
			c0.7-0.9,1-1.7,1.2-2.2c0.2-0.5,0.1-0.8,0.2-1.1c0-0.2,0.1-0.4,0.1-0.7c0.1-0.3,0.1-0.7,0.1-1.1c0.1-0.2,0-0.5,0-0.7
			c0-0.3,0-0.5,0-0.8c-0.1-0.6-0.2-1.2-0.4-1.8c-0.2-0.7-0.5-1.3-0.7-2c-0.3-0.7-0.6-1.3-1-2c-0.3-0.7-0.8-1.3-1.2-1.9
			c-0.4-0.6-0.9-1.2-1.4-1.8c-0.5-0.6-1-1.1-1.5-1.7c-0.5-0.5-1-1.1-1.5-1.6c-1-1.1-2.1-2-3.1-3c-1-1-2.1-1.8-3.1-2.7
			c-0.5-0.4-1-0.8-1.5-1.2c-0.5-0.4-1-0.8-1.5-1.1c-2-1.5-3.9-2.8-5.6-4c-3.5-2.4-6.3-4.1-8.2-5.3c-2-1.1-3-1.7-3-1.7l0.4-0.9
			c0,0,1.2,0.3,3.4,0.9c1.1,0.3,2.5,0.6,4.1,1.1c1.6,0.4,3.5,0.9,5.5,1.5c4.1,1.2,9.1,2.8,14.9,5.1c1.4,0.6,2.9,1.2,4.4,2
			c0.8,0.4,1.5,0.7,2.3,1.1c0.8,0.4,1.6,0.8,2.4,1.3c0.8,0.4,1.6,0.9,2.5,1.4c0.8,0.5,1.7,0.9,2.6,1.5c0.9,0.6,1.8,1.1,2.7,1.7
			c0.9,0.7,1.8,1.4,2.8,2.1c0.9,0.8,1.8,1.7,2.7,2.6c0.4,0.5,0.9,1.1,1.3,1.6c0.4,0.6,0.8,1.1,1.2,1.8c0.7,1.3,1.5,2.6,1.9,4.3
			l0.4,1.2l0.2,0.6l0.1,0.6c0.1,0.9,0.3,1.7,0.3,2.6c0.1,0.9,0,1.8,0,2.7l-0.1,1.4c-0.1,0.4-0.2,0.9-0.2,1.3
			c-0.2,0.9-0.4,1.8-0.6,2.6c-0.3,0.8-0.6,1.6-0.9,2.5c-0.3,0.8-0.7,1.5-1.1,2.3c-0.4,0.7-0.8,1.5-1.2,2.1c-0.5,0.6-0.9,1.3-1.4,1.9
			c-0.5,0.7-1,1.1-1.5,1.7c-4,4.4-8.6,7.2-13.1,9.4c-4.5,2.2-9.2,3.7-13.9,5.1c-4.7,1.3-9.3,2.5-14,3.6c-4.7,1.1-9.4,2.1-14.2,2.9
			c-9.6,1.7-19.3,2.8-29,3.6c-9.7,0.8-19.4,1.2-28.9,1.3c-9.5,0.1-18.9-0.1-27.9-0.5c-9-0.4-17.8-1-26-1.8c-8.2-0.7-16-1.7-23.2-2.7
			c-7.2-0.9-13.7-2-19.5-2.9c-5.8-1-10.8-1.9-14.9-2.8c-2.1-0.4-3.9-0.8-5.5-1.1c-1.6-0.3-2.9-0.6-4-0.9c-2.2-0.5-3.4-0.7-3.4-0.7
			L900.3,674.7z"/>
	</g>
	<g id="XMLID_24_" class="st1">
		<path id="XMLID_43_" class="st2" d="M1150,593.1c0,0,0.4,0.7,1.1,2c0.4,0.8,1,1.9,1.6,3.1c0.7,1.4,1.3,2.8,2.1,4.4
			c1.4,3.4,3,7.6,4.2,13.1c0.5,2.8,1,5.8,1.1,9.1c0.1,3.3-0.1,6.9-0.9,10.6c-0.8,3.7-2,7.4-3.8,10.9c-1.8,3.5-4,6.8-6.5,9.6
			c-5,5.8-11,10-17.1,13.3c-6.1,3.4-12.5,5.8-18.9,7.9c-6.4,2-12.9,3.6-19.3,4.8c-6.5,1.2-12.9,2.1-19.2,2.9
			c-6.3,0.7-12.5,1.2-18.4,1.5c-11.9,0.7-23,0.7-32.5,0.6c-9.5-0.2-17.3-0.6-22.8-0.9c-5.5-0.4-8.6-0.6-8.6-0.6
			c-0.3,0-0.5-0.3-0.5-0.5c0-0.2,0.2-0.4,0.4-0.5l0,0c0,0,3.1-0.4,8.5-1.1c5.4-0.7,13.1-1.8,22.3-3.4c9.2-1.6,19.8-3.7,31-6.6
			c5.6-1.4,11.3-3,17-4.8c5.7-1.8,11.4-3.8,17-6c5.5-2.2,10.9-4.7,15.8-7.3c4.9-2.7,9.4-5.6,13.1-8.7c3.6-3.1,6.4-6.3,7.9-9.1
			c1.5-2.8,1.7-5,1.5-6.8c-0.1-0.9-0.3-1.8-0.6-2.8c-0.3-0.9-0.7-1.9-1.1-2.8c-0.9-1.9-2-3.7-3.1-5.2c-0.6-0.7-1.1-1.5-1.5-1.9
			c-0.4-0.5-0.7-0.8-1.2-1.5c-0.9-1.1-1.4-1.7-1.4-1.7c-6.9-8.5-5.6-20.9,2.9-27.8s20.9-5.6,27.8,2.9c0.8,1,1.5,2,2,3L1150,593.1z"
			/>
	</g>
	<g id="XMLID_136_" class="st1">
		<g id="XMLID_18_" class="st3">
			<path id="XMLID_41_" class="st0" d="M1203,594.3c0,0-0.2,0.7-0.4,1.9c-0.1,0.6-0.3,1.4-0.5,2.3c-0.3,1.5-0.6,3.1-1,5
				c-0.2,1-0.5,2-0.7,3.1c-0.3,1-0.6,1.9-0.9,2.9c-0.6,2-1.3,4.1-2.2,6.3c-0.4,1.1-0.9,2.2-1.4,3.4c-0.5,1.2-1.1,2.3-1.6,3.5
				c-0.6,1.2-1.1,2.4-1.8,3.6c-0.7,1.2-1.3,2.4-2,3.6c-0.7,1.2-1.5,2.4-2.2,3.7c-0.8,1.2-1.6,2.5-2.4,3.7c-1.8,2.4-3.5,4.8-5.6,7.1
				c-1.9,2.4-4.1,4.6-6.3,6.8c-2.3,2.1-4.6,4.3-7,6.3c-2.4,2.1-5,3.9-7.5,5.8c-2.6,1.8-5.3,3.6-8,5.1c-5.4,3.2-11.1,6-16.8,8.3
				c-1.4,0.6-2.8,1.2-4.3,1.7c-1.4,0.5-2.9,1-4.3,1.5c-2.9,0.9-5.7,1.8-8.6,2.5c-2.8,0.8-5.7,1.4-8.4,2c-1.4,0.3-2.8,0.5-4.2,0.8
				c-1.4,0.2-2.7,0.5-4.1,0.7c-2.7,0.4-5.3,0.8-7.9,1c-1.3,0.1-2.6,0.3-3.8,0.3c-1.3,0.1-2.5,0.1-3.7,0.2c-4.9,0.3-9.5,0.2-13.7,0.1
				c-4.2-0.2-8-0.4-11.4-0.8c-3.4-0.3-6.3-0.8-8.6-1.1c-2.4-0.4-4.2-0.7-5.5-0.9c-1.3-0.2-1.9-0.3-1.9-0.3c-0.3,0-0.5-0.3-0.4-0.6
				c0-0.2,0.2-0.4,0.4-0.4l0,0c0,0,0.7-0.1,1.9-0.4c1.2-0.3,3.1-0.6,5.3-1.2c2.3-0.6,5-1.2,8.1-2.2c3.1-0.9,6.6-2.1,10.2-3.4
				c3.7-1.4,7.6-3,11.6-4.9c1-0.5,2-1,3-1.5c1-0.5,2-1.1,3-1.6c2-1,4.1-2.3,6.1-3.4c1-0.6,2-1.2,3-1.9c1-0.7,2-1.3,3-2
				c2-1.4,3.9-2.7,5.8-4.2c1.9-1.4,3.7-3,5.6-4.5c0.9-0.8,1.8-1.6,2.6-2.4c0.9-0.8,1.7-1.6,2.5-2.5c3.3-3.3,6.3-6.8,8.9-10.3
				c1.3-1.7,2.4-3.6,3.6-5.3c1-1.8,2.1-3.5,2.9-5.3c0.9-1.7,1.6-3.4,2.3-5.1c0.6-1.7,1.2-3.3,1.6-4.8c0.5-1.5,0.7-3,1-4.4
				c0.1-0.7,0.2-1.4,0.3-2.1c0.1-0.7,0.2-1.3,0.2-1.9c0-0.6,0.1-1.2,0.1-1.8c0-0.6,0-1.2,0-1.7c0-0.6,0-1.1-0.1-1.6
				c-0.1-0.5-0.1-1-0.2-1.5c-0.1-0.9-0.3-1.8-0.4-2.6c-0.1-0.4-0.1-0.8-0.2-1.1c-0.1-0.2-0.2-0.4-0.3-0.5c-0.1-0.2-0.2-0.3-0.2-0.5
				c-0.1-0.2-0.1-0.1-0.2-0.7c-0.1-0.9-0.3-1.7-0.4-2.3c-0.2-1.3-0.3-1.9-0.3-1.9c-3.1-19.1,9.8-37.1,28.9-40.2
				c19.1-3.1,37.1,9.8,40.2,28.9C1204.2,585.2,1204,590,1203,594.3z"/>
		</g>
		<g id="XMLID_287_" class="st3">
			<path id="XMLID_39_" class="st0" d="M1140.8,615.7c0,0,0.3,0.6,0.8,1.7c0.1,0.3,0.3,0.6,0.4,0.9c0.1,0.3,0.2,0.6,0.4,0.8
				c0.1,0.3,0.3,0.7,0.4,1c0.3,0.7,0.6,1.5,0.9,2.3c0.2,0.4,0.3,0.8,0.4,1.2c0.1,0.4,0.2,0.8,0.3,1.2c0.9,3.3,1.5,7.9,0.8,12.8
				c-0.6,5-2.7,10.3-5.8,14.7c-3.1,4.5-7,8.2-11.3,11.3c-4.3,3.1-9,5.6-13.8,7.8c-2.4,1.1-4.9,2-7.4,3c-1.3,0.5-2.5,0.9-3.8,1.3
				l-1.9,0.6l-1.9,0.6c-1.3,0.4-2.6,0.7-3.9,1.1c-1.3,0.3-2.6,0.6-3.9,1l-2,0.5l-2,0.4l-3.9,0.8c-2.6,0.5-5.2,1-7.8,1.4
				c-2.6,0.4-5.2,0.8-7.8,1.1c-5.1,0.7-10.2,1.2-15.1,1.6c-2.4,0.2-4.8,0.3-7.2,0.5c-2.3,0.1-4.6,0.2-6.9,0.3
				c-2.2,0.1-4.4,0.1-6.5,0.2c-2.1,0.1-4.1,0.1-6.1,0.1c-3.9,0-7.5,0.1-10.6,0c-3.2,0-5.9-0.1-8.2-0.2c-4.5-0.1-7.1-0.2-7.1-0.2
				c-0.3,0-0.5-0.2-0.5-0.5c0-0.3,0.2-0.5,0.4-0.5l0,0c0,0,2.6-0.3,7-0.9c2.2-0.3,4.9-0.6,8.1-1.1c3.1-0.4,6.6-1,10.4-1.6
				c1.9-0.3,3.9-0.6,5.9-1c2-0.4,4.1-0.7,6.3-1.2c2.2-0.4,4.4-0.9,6.6-1.4c2.2-0.5,4.5-1,6.9-1.6c4.6-1.1,9.4-2.3,14.2-3.7
				c2.4-0.7,4.8-1.5,7.2-2.2c2.4-0.8,4.7-1.6,7.1-2.4l3.5-1.3l1.7-0.7l1.7-0.7c1.1-0.5,2.3-0.9,3.4-1.4c1.1-0.5,2.2-1,3.3-1.5
				l1.6-0.8l1.6-0.8c1-0.5,2.1-1.1,3.1-1.6c2-1.1,4-2.2,5.8-3.5c3.6-2.4,6.9-4.9,9.4-7.4c2.5-2.5,4.3-5.1,5.3-7.2c1-2.1,1.1-3.8,1-5
				c-0.1-1.3-0.5-2.2-1-3.2c-0.1-0.1-0.1-0.2-0.2-0.3c0-0.1-0.1-0.2-0.2-0.2c-0.1-0.1-0.2-0.2-0.3-0.3c0,0-0.1-0.1-0.1-0.1l0-0.1
				c0,0,0,0-0.1-0.1c-0.2-0.3-0.4-0.6-0.6-0.8c-0.7-1-1-1.5-1-1.5c-4.1-6-2.6-14.3,3.4-18.4c6-4.1,14.3-2.6,18.4,3.4
				C1140.1,614.5,1140.4,615.1,1140.8,615.7L1140.8,615.7z"/>
		</g>
	</g>
	<g id="XMLID_135_" class="st1">
		<g id="XMLID_22_" class="st3">
			<path id="XMLID_35_" class="st0" d="M1232.5,621.4c0,0,0,0.2-0.1,0.6c0,0.1,0,0.2-0.1,0.4c0,0.1,0,0.1,0,0.2l0,0.1l0,0.1l0,0.2
				c-0.1,1.2-0.3,2.6-0.6,4.2c-0.2,0.9-0.3,1.3-0.5,1.9c-0.2,0.6-0.4,1.2-0.6,1.9c-0.4,1.3-0.9,2.6-1.5,4c-1.2,2.6-2.7,5.4-4.5,7.9
				c-0.2,0.3-0.5,0.6-0.7,1c-0.2,0.3-0.5,0.6-0.7,0.9c-0.5,0.6-1,1.2-1.5,1.8c-1,1.1-2.1,2.4-3.1,3.4c-2.2,2.2-4.5,4.2-7,6.1
				c-4.9,3.7-10.3,6.9-16,9.7c-5.7,2.8-11.8,5.3-18.2,7.5c-6.4,2.2-13.1,4.1-19.9,5.8c-13.8,3.4-28.3,5.8-42.8,7.5
				c-14.5,1.6-28.9,2.5-42.4,2.8c-13.5,0.3-26-0.1-36.6-0.6c-10.7-0.6-19.5-1.4-25.6-2c-3.1-0.3-5.5-0.6-7.1-0.8
				c-1.6-0.2-2.5-0.3-2.5-0.3c-0.3,0-0.5-0.3-0.4-0.6c0-0.2,0.2-0.4,0.4-0.4l0,0c0,0,0.9-0.1,2.5-0.3c1.6-0.2,4-0.5,7.1-0.9
				c6.1-0.9,14.8-2.2,25.1-4.2c10.3-2,22.2-4.6,34.7-7.9c12.5-3.4,25.7-7.5,38.5-12.2c12.8-4.7,25.1-10.1,36-15.9
				c5.4-2.9,10.5-5.8,15-8.7c4.5-2.9,8.4-5.8,11.6-8.6c3.2-2.7,5.6-5.3,7-7.3c0.7-1,1.2-1.8,1.4-2.4c0.1-0.3,0.1-0.5,0.2-0.7
				c0-0.1,0-0.1-0.1-0.2c0,0,0-0.1,0-0.1l-0.1,0c-0.4-0.1-1.2,0.9-1.7,2.6c-0.2,0.7-0.3,1.4-0.3,2l0,0.1l0,0.1l0,0l0-0.1
				c0-0.1,0-0.1,0-0.2c0-0.1,0-0.3,0-0.4c0-0.4,0-0.6,0-0.6l0,0c-1.1-15.4,10.5-28.8,25.9-29.9c15.4-1.1,28.8,10.5,29.9,25.9
				C1233,616.9,1232.9,619.2,1232.5,621.4z"/>
		</g>
		<g id="XMLID_57_" class="st3">
			<path id="XMLID_33_" class="st0" d="M1176.5,637c0,0-0.4,0.7-1.2,1.9c-0.4,0.6-0.9,1.4-1.5,2.4c-0.8,1.3-1.8,2.8-3,4.4
				c-0.6,0.9-1.1,1.5-1.7,2.3c-0.6,0.7-1.3,1.5-1.9,2.3c-1.4,1.6-2.9,3.2-4.6,4.9c-0.9,0.8-1.8,1.6-2.7,2.5
				c-0.5,0.4-0.9,0.9-1.4,1.3c-0.5,0.4-1,0.8-1.5,1.2c-1,0.8-2.1,1.6-3.1,2.5c-1.1,0.8-2.2,1.6-3.4,2.4c-4.6,3.1-9.8,6.1-15.3,8.5
				c-5.5,2.5-11.4,4.7-17.5,6.4c-6.1,1.8-12.3,3.2-18.6,4.4c-6.3,1.1-12.7,2-19.1,2.6c-6.4,0.6-12.7,1.1-18.9,1.3
				c-6.2,0.3-12.3,0.3-18.1,0.3c-11.7-0.1-22.6-0.5-31.9-1.1c-4.6-0.3-8.9-0.6-12.6-0.9c-3.8-0.3-7-0.6-9.7-0.8
				c-5.4-0.5-8.4-0.8-8.4-0.8c-0.3,0-0.5-0.3-0.5-0.5c0-0.2,0.2-0.4,0.5-0.5c0,0,3.1-0.3,8.4-0.9c2.7-0.3,5.9-0.7,9.6-1.1
				c3.7-0.4,7.9-1,12.5-1.6c9.1-1.2,19.7-2.8,30.9-5c5.6-1.1,11.3-2.3,17.1-3.7c5.8-1.3,11.6-2.9,17.3-4.6
				c5.7-1.7,11.3-3.6,16.6-5.7c5.3-2.1,10.4-4.4,15-6.8c4.7-2.4,8.8-5,12.5-7.7c3.7-2.6,6.8-5.4,9.3-8c0.6-0.7,1.2-1.3,1.8-1.9
				c0.5-0.7,1.1-1.3,1.6-1.9c0.3-0.3,0.5-0.6,0.8-0.9c0.2-0.3,0.4-0.6,0.6-0.9c0.4-0.6,0.8-1.2,1.2-1.7c0.7-1.2,1.4-2.2,1.9-3.3
				c0.3-0.5,0.5-1,0.7-1.5c0.2-0.4,0.5-0.9,0.6-1.3c0.2-0.7,0.5-1.3,0.7-1.8c0.4-0.9,0.7-1.7,0.9-2.3c0.5-1.4,0.8-2.1,0.8-2.1
				c3.9-10.2,15.2-15.3,25.4-11.4c10.2,3.9,15.3,15.2,11.4,25.4C1177.8,634.8,1177.2,636,1176.5,637z"/>
		</g>
		<g id="XMLID_58_" class="st3">
			<path id="XMLID_31_" class="st0" d="M1120.6,658.2c0,0-0.2,0.3-0.6,1c-0.2,0.3-0.4,0.7-0.7,1.2c-0.5,0.8-1,1.8-1.7,2.8
				c-0.2,0.3-0.3,0.5-0.5,0.8c-0.2,0.2-0.3,0.4-0.5,0.7c-0.3,0.5-0.7,0.9-1.1,1.4c-0.7,1-1.6,1.9-2.6,3c-0.9,1-2,2-3.1,3
				c-1.2,0.9-2.3,2-3.6,2.9c-2.6,1.9-5.4,3.5-8.4,5c-3,1.5-6.2,2.6-9.5,3.7c-3.3,1.1-6.6,1.8-10,2.5c-3.4,0.7-6.8,1.1-10.1,1.5
				c-6.7,0.7-13.4,0.9-19.5,0.8c-3.1,0-6-0.2-8.8-0.3c-2.8-0.1-5.4-0.3-7.8-0.6c-4.8-0.4-8.8-0.9-11.6-1.3c-2.8-0.4-4.4-0.6-4.4-0.6
				c-0.3,0-0.5-0.3-0.4-0.6c0-0.2,0.2-0.4,0.4-0.4l0,0c0,0,1.6-0.2,4.3-0.7c2.8-0.4,6.7-1.1,11.3-2.1c2.3-0.5,4.8-1,7.5-1.7
				c2.6-0.6,5.4-1.3,8.2-2.2c5.6-1.6,11.5-3.6,17-5.9c2.8-1.2,5.5-2.4,8-3.8c2.5-1.4,4.9-2.7,7-4.2c2.1-1.5,4-2.9,5.6-4.4
				c1.6-1.5,2.9-2.9,3.8-4.2c0.5-0.6,0.8-1.3,1.2-1.9c0.3-0.6,0.6-1.2,0.8-1.7c0.2-0.5,0.4-1,0.5-1.4c0.1-0.2,0.1-0.4,0.2-0.6
				c0-0.1,0.1-0.2,0.1-0.3l0-0.2c0-0.2,0-0.3,0-0.5c0.1-0.5,0.2-0.9,0.3-1.3c0.2-0.7,0.3-1.1,0.3-1.1c2-8.3,10.4-13.5,18.7-11.5
				c8.3,2,13.5,10.4,11.5,18.7C1121.9,655.6,1121.3,657,1120.6,658.2z"/>
		</g>
		<g id="XMLID_59_" class="st3">
			<path id="XMLID_29_" class="st0" d="M1245.6,640.3c0,0,0,0.2-0.1,0.7c0,0.1,0,0.2,0,0.4c0,0.1,0,0.2,0,0.3c0,0.2-0.1,0.4-0.1,0.6
				c-0.1,0.4-0.1,0.9-0.2,1.4c-0.1,0.5-0.2,1.1-0.3,1.4c-0.9,3.3-3.2,7.6-6.5,10.8c-3.3,3.3-7.3,6-11.8,8.4c-4.5,2.4-9.6,4.4-15,6.3
				c-5.5,1.8-11.4,3.5-17.6,4.9c-6.2,1.5-12.8,2.8-19.6,3.9c-13.6,2.3-28.1,4-42.6,5.2c-29,2.4-57.9,2.8-79.6,2.5
				c-10.8-0.1-19.8-0.4-26.1-0.7c-6.3-0.3-9.9-0.4-9.9-0.4c-0.3,0-0.5-0.2-0.5-0.5c0-0.3,0.2-0.5,0.5-0.5c0,0,3.6-0.2,9.9-0.5
				c6.3-0.4,15.3-0.9,26-1.8c21.5-1.7,50.1-4.9,78.2-9.9c14.1-2.5,28-5.5,40.8-8.9c6.4-1.7,12.5-3.5,18.2-5.4
				c5.7-1.9,10.9-3.9,15.5-5.9c4.6-2,8.6-4.2,11.6-6.2c3.1-2,5.2-4,6.2-5.3c0.5-0.7,0.7-1.1,0.8-1.4c0-0.1,0-0.1,0.1-0.2
				c0,0,0-0.1,0-0.1c0-0.1-0.1,0,0,0c0-0.1-0.1,0.1-0.1,0.2c0,0.1,0,0.2-0.1,0.3c0,0.1,0,0.1,0,0.2l0,0l0-0.1l0-0.1
				c0-0.1,0-0.3,0-0.4c0-0.4,0-0.7,0-0.7c0.1-6.3,5.2-11.3,11.5-11.2c6.3,0.1,11.3,5.2,11.2,11.5
				C1245.7,639.5,1245.7,639.9,1245.6,640.3z"/>
		</g>
	</g>
	<g id="XMLID_19_">
		<path id="XMLID_27_" class="st4" d="M945.1,656c0,0,2.3,0,6.3,0.1c2,0,4.5,0.1,7.3,0.1c2.8,0,6,0,9.4-0.1
			c3.4-0.1,7.2-0.3,11.1-0.5c3.9-0.2,8.1-0.5,12.3-0.9c8.5-0.8,17.5-2,26.4-3.6c8.9-1.7,17.7-3.8,25.4-6.7c3.8-1.4,7.4-3.1,10.4-4.9
			c1.5-0.9,2.8-1.9,3.7-2.8c1-0.9,1.6-1.9,1.8-2.5c0.1-0.3,0.2-0.5,0.3-0.7c0.1-0.2,0.2-0.5,0.3-0.9c0.1-0.8-0.1-2-0.5-3.2
			c-0.4-1.2-1.1-2.3-1.8-3.3c-0.7-1-1.5-1.8-2.2-2.5c-1.5-1.3-2.9-2.1-3.8-2.6c-1-0.5-1.5-0.6-1.5-0.6l0.4-0.9c0,0,0.5,0.3,1.5,0.8
			c1,0.5,2.4,1.1,4.4,1.8c1,0.4,2.1,0.8,3.3,1.2c0.6,0.2,1.3,0.5,2,0.8c0.7,0.3,1.4,0.6,2.2,1.1c1.5,0.9,3.2,2.1,4.4,4.3
			c0.6,1.1,1,2.4,1.1,3.8c0.1,1.4-0.1,2.9-0.6,4.2c-1,2.6-2.6,4.6-4.3,6.3c-1.7,1.6-3.6,2.9-5.5,4.1c-3.8,2.3-8,4-12.3,5.5
			c-4.3,1.5-8.8,2.6-13.3,3.6c-4.6,1-9.2,1.8-13.9,2.4c-4.7,0.6-9.3,1.1-13.9,1.4c-4.6,0.3-9.1,0.5-13.5,0.5c-4.4,0-8.6,0-12.6-0.2
			c-4-0.2-7.8-0.5-11.3-0.8c-1.7-0.1-3.4-0.3-5-0.5c-1.6-0.2-3.1-0.4-4.5-0.6c-2.8-0.4-5.2-0.7-7.2-1.1c-2-0.4-3.6-0.6-4.6-0.9
			c-1.1-0.2-1.6-0.3-1.6-0.3L945.1,656z"/>
	</g>
</g>
<g id="XMLID_14_">
	<path id="XMLID_37_" class="st5" d="M1004.2,602.4c0,0-2.3,0-6.3-0.1c-2,0-4.5-0.1-7.3-0.1c-2.8,0-6,0-9.4,0.1
		c-3.4,0.1-7.2,0.3-11.1,0.5c-3.9,0.2-8.1,0.5-12.3,0.9c-8.5,0.8-17.5,2-26.4,3.6c-8.9,1.7-17.7,3.8-25.4,6.7
		c-3.8,1.4-7.4,3.1-10.4,4.9c-1.5,0.9-2.8,1.9-3.7,2.8c-1,0.9-1.6,1.9-1.8,2.5c-0.1,0.3-0.2,0.5-0.3,0.7c-0.1,0.2-0.2,0.5-0.3,0.9
		c-0.1,0.8,0.1,2,0.5,3.2c0.4,1.2,1.1,2.3,1.8,3.3c0.7,1,1.5,1.8,2.2,2.5c1.5,1.3,2.9,2.1,3.8,2.6c1,0.5,1.5,0.6,1.5,0.6l-0.4,0.9
		c0,0-0.5-0.3-1.5-0.8c-1-0.5-2.4-1.1-4.4-1.8c-1-0.4-2.1-0.8-3.3-1.2c-0.6-0.2-1.3-0.5-2-0.8c-0.7-0.3-1.4-0.6-2.2-1.1
		c-1.5-0.9-3.2-2.1-4.4-4.3c-0.6-1.1-1-2.4-1.1-3.8c-0.1-1.4,0.1-2.9,0.6-4.2c1-2.6,2.6-4.6,4.3-6.3c1.7-1.6,3.6-2.9,5.5-4.1
		c3.8-2.3,8-4,12.3-5.5c4.3-1.5,8.8-2.6,13.3-3.6c4.6-1,9.2-1.8,13.9-2.4c4.7-0.6,9.3-1.1,13.9-1.4c4.6-0.3,9.1-0.5,13.5-0.5
		c4.4,0,8.6,0,12.6,0.2c4,0.2,7.8,0.5,11.3,0.8c1.7,0.1,3.4,0.3,5,0.5c1.6,0.2,3.1,0.4,4.5,0.6c2.8,0.4,5.2,0.7,7.2,1.1
		c2,0.4,3.6,0.6,4.6,0.9c1.1,0.2,1.6,0.3,1.6,0.3L1004.2,602.4z"/>
</g>
</svg>
