<?xml version="1.0" encoding="utf-8"?>
<!-- Generator: Adobe Illustrator 19.0.0, SVG Export Plug-In . SVG Version: 6.00 Build 0)  -->
<svg version="1.1" id="Layer_1" xmlns="http://www.w3.org/2000/svg" xmlns:xlink="http://www.w3.org/1999/xlink" x="0px" y="0px"
	 viewBox="0 0 615.4 103.1" style="enable-background:new 0 0 615.4 103.1;" xml:space="preserve">
<style type="text/css">
	.st0{fill:#EDDA78;}
</style>
<path id="XMLID_171_" d="M597.9,103.1H27.5c-9.7,0-17.5-7.8-17.5-17.5V27.5C10,17.8,17.8,10,27.5,10h570.4c9.7,0,17.5,7.8,17.5,17.5
	v58.2C615.4,95.3,607.6,103.1,597.9,103.1z"/>
<path id="XMLID_139_" class="st0" d="M587.9,93.1H17.5C7.8,93.1,0,85.3,0,75.6V17.5C0,7.8,7.8,0,17.5,0h570.4
	c9.7,0,17.5,7.8,17.5,17.5v58.2C605.4,85.3,597.6,93.1,587.9,93.1z"/>
</svg>
