<?xml version="1.0" encoding="utf-8"?>
<!-- Generator: Adobe Illustrator 19.0.0, SVG Export Plug-In . SVG Version: 6.00 Build 0)  -->
<svg version="1.1" id="Layer_1" xmlns="http://www.w3.org/2000/svg" xmlns:xlink="http://www.w3.org/1999/xlink" x="0px" y="0px"
	 viewBox="0 0 1500 1500" style="enable-background:new 0 0 1500 1500;" xml:space="preserve">
<style type="text/css">
	.st0{stroke:#000000;stroke-width:18;stroke-linecap:round;stroke-miterlimit:10;}
	.st1{fill:#FFFFFF;}
	.st2{fill:#C1242D;}
	.st3{fill:#EF3D43;}
	.st4{fill:none;stroke:#000000;stroke-width:18;stroke-linecap:round;stroke-miterlimit:10;}
	.st5{fill:#FCF8EF;}
</style>
<g id="XMLID_15_">
	<g id="XMLID_44_">
		<g id="XMLID_123_">
			<path id="XMLID_290_" d="M1145.8,796c0,0,1.4-0.2,4.1-0.5c0.7-0.1,1.4-0.2,2.3-0.3c0.8-0.1,1.8-0.2,2.8-0.4
				c2-0.3,4.3-0.7,6.9-1.2c10.3-2.1,25.3-6.2,42.1-15.4c8.4-4.6,17.1-10.6,25.7-18c1.1-0.9,2.1-1.9,3.2-2.8c1.1-1,2.1-2,3.2-3
				c1-1,2.1-2,3.1-3.1c1-1.1,2-2.2,3.1-3.3c1.1-1.1,2-2.3,3-3.5c1-1.2,2-2.4,3-3.6c1-1.2,1.9-2.5,2.9-3.8c0.5-0.6,1-1.3,1.4-1.9
				c0.5-0.7,0.9-1.3,1.4-2c0.9-1.3,1.9-2.6,2.8-4c0.9-1.4,1.7-2.8,2.6-4.2c0.9-1.4,1.7-2.8,2.5-4.3c0.8-1.5,1.7-2.9,2.5-4.4
				c3.2-6,6-12.4,8.5-19c2.4-6.7,4.4-13.7,6-20.9c1.5-7.3,2.6-14.7,3.2-22.4c0.1-1.9,0.2-3.8,0.3-5.8l0.1-1.4l0-1.5c0-1,0-1.9,0-2.9
				c0-1,0-1.9,0-2.9c0-1-0.1-2-0.1-2.9c0-1-0.1-2-0.1-2.9l-0.1-1.5l0-0.4c0,0.6,0-0.1,0-0.1l-0.1-0.8c-0.1-1.1-0.2-2.2-0.3-3.3
				l-0.1-1.7c-0.1-0.5-0.1-0.9-0.2-1.4c-0.1-0.9-0.3-1.8-0.4-2.7l-0.2-1.4l-0.3-1.5c-0.3-2-0.6-3.9-1.1-5.9c-0.2-1-0.4-2-0.6-2.9
				c-0.2-1-0.5-1.9-0.7-2.9c-1.9-7.8-4.5-15.6-7.7-23.2c-3.2-7.6-7.2-15.1-11.7-22.4c-9-14.5-20.4-28.3-33.8-40.8
				c-13.4-12.5-28.5-23.9-45-34c-33-20.2-71-35.4-111-45.6c-40.1-10.1-82.2-15.2-124.3-15.2c-2.6,0-5.3,0-7.9,0.1l-3.9,0.1l-3.9,0.1
				l-3.9,0.1l-1,0c-0.2,0,0.4,0-0.1,0l-0.5,0l-2.1,0.1l-8.5,0.5c-1.5,0.1-2.6,0.2-3.9,0.3l-3.8,0.3c-2.5,0.2-5,0.4-7.7,0.7l-7.8,0.8
				c-2.6,0.3-5.2,0.7-7.8,1c-20.8,2.6-41.2,6.7-61.2,11.7c-19.9,5.1-39.3,11-58,17.7c-4.7,1.6-9.3,3.4-14,5.1
				c-2.3,0.9-4.6,1.8-6.9,2.7c-2.3,0.9-4.6,1.8-6.8,2.7c-2.3,0.9-4.5,1.8-6.8,2.7c-2.2,0.9-4.5,1.9-6.7,2.8
				c-4.5,1.8-8.9,3.8-13.2,5.7c-35,15.5-67.4,32.9-96.5,52.2c-14.4,9.7-28.2,19.8-40.7,30.3c-6.4,5.2-12.3,10.6-18.3,15.9
				c-5.8,5.4-11.4,10.8-16.7,16.3c-21.4,21.9-38.6,44.5-52.2,66c-13.6,21.5-23.4,42-30.5,59.6c-3.5,8.8-6.5,16.9-8.8,24
				c-0.6,1.8-1.2,3.5-1.7,5.2c-0.5,1.7-1,3.3-1.4,4.8c-0.5,1.5-0.9,3-1.4,4.4c-0.4,1.4-0.8,2.8-1.1,4c-0.7,2.5-1.4,4.8-1.9,6.8
				c-0.5,2-0.9,3.6-1.3,5c-0.7,2.7-1.1,4.1-1.1,4.1h-10c0,0-0.3-1.4-1-4.2c-0.6-2.8-1.6-7-2.4-12.4c-1.8-11-3.7-27.3-3.3-48.5
				c0.5-21.1,3.6-47.2,12.1-76.1c8.4-28.9,22.2-60.7,42.7-92.1c20.3-31.5,47.4-62.5,80.1-90.2c32.7-27.8,71.2-52.3,113.9-70.5
				c21.4-9.1,43.7-16.7,66.6-22.7c23-6,46.5-10.3,70.3-13.4c23.8-3,47.9-4.7,72-5.2c3-0.1,6-0.2,9-0.2l9,0c3,0,6.1,0,9.2,0l4.7,0.1
				c1.5,0,3.2,0,4.5,0.1l8.5,0.3l2.1,0.1l1.5,0l1.1,0l4.5,0.2l4.5,0.2l4.5,0.3c3,0.2,6,0.4,9,0.6c24.1,1.7,48.1,4.8,71.7,9.3
				c23.6,4.5,46.9,10.5,69.5,18.1c45.2,15,88,36.2,124.9,63.9c18.4,13.9,35.3,29.4,50,46.5c7.3,8.5,14.1,17.4,20.2,26.7
				c6.1,9.3,11.5,18.9,16.1,28.7c9.3,19.7,15.3,40.4,17.7,60.8c0.1,1.3,0.3,2.5,0.4,3.8c0.1,1.3,0.2,2.5,0.3,3.8
				c0.2,2.5,0.3,5.1,0.4,7.6l0.1,1.9l0,2c0,1.3,0,2.6,0,3.9c0,0.6,0,1.3,0,1.9l-0.1,1.7c0,1.1-0.1,2.2-0.1,3.3l0,0.8
				c0,0.3,0-0.1,0,0.8l0,0.5l-0.1,1.8c-0.1,1.2-0.2,2.4-0.3,3.6c-0.1,1.2-0.2,2.4-0.3,3.6c-0.2,1.2-0.3,2.4-0.5,3.6
				c-0.2,1.2-0.3,2.4-0.5,3.5l-0.2,1.8l-0.3,1.7c-0.4,2.3-0.8,4.6-1.2,6.9c-1.9,9.1-4.3,17.9-7.3,26.2c-3.1,8.3-6.6,16.2-10.5,23.6
				c-4,7.4-8.3,14.3-12.8,20.7c-4.7,6.3-9.4,12.3-14.5,17.6c-0.6,0.7-1.3,1.3-1.9,2c-0.6,0.7-1.3,1.3-1.9,1.9
				c-1.3,1.3-2.6,2.5-3.8,3.7c-1.3,1.2-2.6,2.3-3.9,3.5c-1.3,1.1-2.6,2.3-3.9,3.3c-1.3,1.1-2.6,2.1-4,3.2c-1.3,1.1-2.7,2-4,3
				c-1.3,0.9-2.6,1.9-4,2.8c-1.3,0.9-2.7,1.7-4,2.6c-10.6,6.7-21,11.6-30.6,15.1c-9.6,3.5-18.6,5.5-26.3,6.8c-1,0.2-1.9,0.3-2.9,0.5
				c-0.9,0.2-1.8,0.3-2.7,0.4c-1.8,0.2-3.5,0.4-5.2,0.5c-1.6,0.2-3.2,0.2-4.7,0.3c-1.5,0.1-2.9,0.1-4.3,0.2c-2.7,0-5.1,0-7.1,0
				c-1,0-1.9,0-2.8-0.1c-0.8-0.1-1.6-0.1-2.3-0.1C1147.2,796.1,1145.8,796,1145.8,796z"/>
		</g>
		<g id="XMLID_120_">
			<path id="XMLID_288_" d="M424.5,779.6c0,0-1.3-2.7-3.2-7.7c-0.5-1.3-1.1-2.7-1.6-4.2c-0.6-1.5-1.2-3.2-1.8-5
				c-0.6-1.8-1.3-3.8-2-5.8c-0.8-2-1.3-4.3-1.9-6.8c-1.2-4.9-2.4-10.3-3.5-16.4c-0.3-1.5-0.6-3.1-0.9-4.6c-0.3-1.6-0.4-3.1-0.7-4.7
				c-0.4-3.2-0.8-6.5-1.2-10c-0.2-1.7-0.4-3.5-0.5-5.3c-0.2-1.8-0.3-3.6-0.5-5.4c-0.2-1.8-0.2-3.7-0.3-5.6c-0.1-1.9-0.1-3.8-0.2-5.7
				c-0.2-7.7-0.3-15.9,0.4-24.4c0.6-8.5,1.2-17.4,2.7-26.4c0.7-4.5,1.4-9.1,2.2-13.8c0.8-4.7,2-9.3,3.1-14.1
				c0.5-2.4,1.2-4.7,1.7-7.1c0.3-1.2,0.6-2.4,0.9-3.6l0.5-1.8l0.5-1.8c1.5-4.8,3-9.6,4.6-14.4c0.8-2.4,1.7-4.8,2.5-7.3
				c0.9-2.4,2-4.8,3-7.2c2-4.8,4.2-9.6,6.5-14.4c9.6-18.9,21.7-37.2,35.7-54.4c1.7-2.2,3.4-4.3,5.1-6.5c1.8-2.1,3.6-4.2,5.4-6.4
				c3.6-4.2,7.1-8.5,10.7-12.7c7.5-8.3,14.5-16.8,22-24.9l5.5-6.2l2.8-3.1l2.9-3c3.8-4,7.6-7.9,11.4-11.9c1.9-2,3.9-3.9,5.8-5.8
				c2-1.9,3.9-3.8,5.9-5.7c2-1.9,3.9-3.8,5.9-5.7c2-1.8,4-3.6,6-5.4c15.9-14.6,32.7-27.7,49.4-39.6c4.2-2.9,8.4-5.7,12.6-8.6
				c4.3-2.7,8.5-5.3,12.7-7.9c2.1-1.3,4.1-2.6,6.3-3.8c2.1-1.2,4.2-2.4,6.3-3.6c2.1-1.2,4.2-2.3,6.2-3.5c2.1-1.2,4.1-2.3,6.2-3.4
				c4.2-2.1,8.3-4.2,12.3-6.3c1-0.5,2-1,3-1.5c1-0.5,2-0.9,3.1-1.4c2-0.9,4-1.9,6-2.8c2-0.9,4-1.8,5.9-2.7c1-0.4,2-0.9,2.9-1.3
				c1-0.4,2-0.8,3-1.2c3.9-1.6,7.8-3.1,11.5-4.6c0.9-0.4,1.9-0.7,2.8-1.1c0.9-0.4,1.9-0.7,2.8-1c1.9-0.7,3.7-1.3,5.6-1.9
				c3.7-1.2,7.2-2.5,10.7-3.6c3.5-1.1,7-2.1,10.3-3.1c1.7-0.5,3.3-1,4.9-1.5c1.6-0.5,3.3-0.8,4.9-1.2c3.2-0.8,6.3-1.5,9.2-2.2
				c1.5-0.3,2.9-0.7,4.4-1c1.4-0.3,2.9-0.5,4.3-0.8c2.8-0.5,5.4-1,8-1.4c1.3-0.2,2.5-0.4,3.7-0.7c1.2-0.2,2.4-0.3,3.6-0.5
				c4.6-0.6,8.8-1.1,12.3-1.5c3.6-0.3,6.7-0.5,9.1-0.6c4.9-0.3,7.6-0.4,7.6-0.4s-2.4,1.1-6.9,3.2c-1.1,0.5-2.4,1.1-3.7,1.7
				c-1.4,0.6-2.9,1.2-4.4,2c-3.2,1.6-6.8,3.5-10.8,5.5c-1,0.5-2,1-3.1,1.6c-1,0.6-2.1,1.2-3.2,1.8c-2.2,1.2-4.4,2.5-6.8,3.8
				c-1.2,0.7-2.4,1.3-3.6,2c-1.2,0.7-2.4,1.5-3.7,2.2c-2.5,1.5-5,3.1-7.7,4.7c-2.7,1.6-5.3,3.4-8.1,5.2c-2.7,1.8-5.5,3.7-8.4,5.6
				c-2.9,1.9-5.7,4.1-8.6,6.2c-2.9,2.2-6,4.2-8.9,6.6c-3,2.3-6,4.7-9.1,7c-0.8,0.6-1.5,1.2-2.3,1.8c-0.8,0.6-1.5,1.3-2.3,1.9
				c-1.5,1.3-3.1,2.6-4.6,3.9c-1.6,1.3-3.1,2.6-4.7,3.9c-0.8,0.7-1.6,1.3-2.4,2c-0.8,0.7-1.6,1.4-2.3,2.1c-3.1,2.8-6.3,5.5-9.5,8.4
				c-1.6,1.4-3.2,2.9-4.8,4.4c-1.6,1.5-3.2,3-4.8,4.5c-1.6,1.5-3.2,3-4.8,4.5c-1.6,1.5-3.2,3.1-4.7,4.7c-3.2,3.2-6.3,6.4-9.6,9.5
				c-3.1,3.3-6.3,6.6-9.4,10c-12.6,13.5-25.2,27.6-37.1,42.7c-1.5,1.9-3,3.7-4.5,5.6c-1.5,1.9-2.9,3.8-4.4,5.8
				c-1.5,1.9-2.9,3.8-4.4,5.8c-1.4,1.9-3,3.8-4.3,5.8c-2.8,4-5.6,7.9-8.4,11.9l-2.1,3l-2,3l-4,6.1c-2.6,4.1-5.3,8.1-7.6,12.4
				l-3.6,6.3c-1.2,2.1-2.3,4.2-3.5,6.3c-1.1,2.1-2.1,4.3-3.2,6.5c-1,2.2-2.1,4.3-3.1,6.5c-1,2.2-2.1,4.3-3,6.5
				c-0.9,2.2-1.9,4.4-2.8,6.5c-1.9,4.3-3.7,8.6-5.6,12.9c-1.7,4.3-3.5,8.6-5.3,12.8l-1.4,3.1c-0.5,1-0.9,2.1-1.3,3.1
				c-0.8,2.1-1.7,4.2-2.6,6.2c-1.7,4.1-3.7,8.1-5.5,12.1c-1.8,4-3.6,8-5.5,11.8c-1,1.9-2,3.8-2.9,5.8c-0.9,1.9-1.8,3.9-2.8,5.7
				c-1.9,3.8-3.8,7.5-5.9,11.2c-2,3.7-3.7,7.4-5.7,11c-1,1.8-1.9,3.6-2.9,5.4c-0.9,1.8-2,3.5-2.8,5.3c-1.7,3.6-3.6,7.1-5.4,10.5
				c-3.8,6.8-7,13.7-10.5,20.2c-3.6,6.5-6.6,12.9-9.8,18.9c-1.6,3-3.3,6-4.7,8.9c-0.7,1.5-1.5,2.9-2.2,4.3c-0.7,1.4-1.5,2.8-2.2,4.2
				c-6,11.1-10.9,20.7-15.6,28.9c-0.6,1-1.2,2-1.7,3c-0.6,1-1.1,2-1.6,3c-1,1.9-2,3.8-2.9,5.4c-0.9,1.7-1.8,3.2-2.6,4.7
				c-0.8,1.4-1.6,2.7-2.2,3.9c-2.7,4.6-4.4,7.1-4.4,7.1c-1.8,2.6-5.4,3.3-8,1.5C425.6,781.3,424.9,780.5,424.5,779.6z"/>
		</g>
		<g id="XMLID_117_">
			<path id="XMLID_286_" d="M424.5,779.9c0,0-1.4-2.2-3.7-6.3c-1.1-2.1-2.3-4.9-3.7-8.3c-1.2-3.3-2.6-7.1-3.7-11.5
				c-2.3-8.8-4.1-19.8-4-32.7c0-6.4,0.6-13.2,1.5-20.4c0.6-3.5,1.1-7.3,2-10.9c0.4-1.9,0.8-3.7,1.3-5.6c0.5-1.9,1-3.8,1.6-5.7
				c4.5-15.2,11.5-31,21-46.1c1.2-1.9,2.4-3.8,3.7-5.6c1.3-1.8,2.5-3.8,3.9-5.6c2.7-3.6,5.5-7.3,8.5-10.8c6-7,12.6-13.7,19.8-19.7
				c7.2-6,14.9-11.6,23.1-16.5c8.2-4.9,16.7-9.3,25.4-13.3c17.4-8,35.2-14.9,52.7-21.6c8.7-3.4,17.5-6.5,26.3-9.4
				c4.4-1.5,8.8-2.8,13.2-4.1c4.4-1.2,8.8-2.6,13.2-3.7c2.2-0.6,4.4-1.1,6.6-1.7c2.2-0.5,4.4-1.1,6.5-1.6c4.3-1.1,8.7-1.9,13-2.9
				c8.6-1.8,17.2-3.2,25.6-4.5c16.9-2.4,33.2-3.9,48.7-4.5c15.5-0.7,30-0.6,43.4-0.1c13.4,0.5,25.6,1.6,36.3,2.8
				c2.7,0.3,5.3,0.6,7.8,0.9c2.5,0.3,4.9,0.7,7.2,1c4.6,0.6,8.9,1.4,12.7,2c3.8,0.6,7.2,1.3,10.2,1.9c2.9,0.5,5.4,1.1,7.5,1.6
				c4,0.9,6.2,1.4,6.2,1.4s-2.1,0.5-6.2,1.5c-4,1-9.8,2.4-17.3,4.1c-3.7,0.9-7.8,1.9-12.2,3.1c-2.2,0.6-4.5,1.1-6.9,1.7
				c-2.4,0.6-4.8,1.3-7.4,2c-10.1,2.7-21.5,5.9-33.7,9.6c-12.2,3.7-25.3,7.9-38.9,12.7c-13.6,4.8-27.7,10.2-41.9,16.1
				c-14.3,5.9-28.7,12.2-43.1,19.2c-3.6,1.7-7.1,3.5-10.7,5.3c-3.5,1.9-7.1,3.6-10.6,5.6c-7,3.8-13.9,7.8-20.6,11.9l-5,3.2
				c-1.6,1.1-3.3,2.2-4.9,3.3c-3.2,2.2-6.4,4.6-9.4,7c-6.2,4.8-11.9,9.9-17.5,15c-5.5,5.1-10.8,10.4-15.9,15.3
				c-1.3,1.2-2.5,2.5-3.8,3.7c-1.2,1.2-2.5,2.4-3.8,3.6c-1.3,1.2-2.5,2.4-3.8,3.5c-1.2,1.2-2.5,2.3-3.7,3.4
				c-5,4.5-9.9,8.8-14.7,12.8c-4.9,4.1-9.7,8-14.3,11.9c-2.3,1.9-4.5,3.9-6.8,5.8c-2.1,2-4.5,3.8-6.5,5.7
				c-4.3,3.8-8.3,7.6-12.3,11.3c-4,3.7-7.6,7.5-11.2,11.1c-3.5,3.7-6.9,7.3-10,10.9c-6.3,7.1-11.7,14.1-16.2,20.2
				c-2.3,3-4.3,5.9-6.1,8.5c-0.9,1.2-1.7,2.4-2.4,3.5c-0.7,1.1-1.5,2-2.1,3c-2.4,4-4,6.1-4,6.1c-2,2.7-5.8,3.3-8.5,1.4
				C425.4,781,424.9,780.5,424.5,779.9z"/>
		</g>
		<g id="XMLID_114_">
			<path id="XMLID_154_" d="M1187.8,534.9c0,0-0.1-0.4-0.2-1.3c-0.1-0.8-0.3-2.1-0.7-3.6c-0.7-3.1-2.1-7.6-5-12.6
				c-2.9-5-7.3-10.5-13.3-15.8c-3-2.7-6.4-5.3-10.1-7.8c-3.7-2.5-7.8-5-12.1-7.3c-4.3-2.4-9-4.6-13.9-6.7c-4.9-2.1-10-4.2-15.4-6.1
				c-5.4-1.9-10.9-3.7-16.7-5.4c-5.8-1.7-11.7-3.3-17.8-4.7c-12.1-2.9-24.8-5.4-37.8-7.5c-13-2.1-26.2-3.7-39.6-5
				c-26.6-2.6-53.4-3.7-78.4-3.8c-25-0.1-48.4,0.7-68.3,1.9c-10,0.6-19.1,1.3-27.2,2c-8.1,0.7-15.1,1.4-20.9,2
				c-5.8,0.6-10.3,1.1-13.4,1.5c-3.1,0.4-4.7,0.5-4.7,0.5c-27.6,3.2-52.6-16.7-55.7-44.3s16.7-52.6,44.3-55.7
				c3.8-0.4,7.5-0.4,11.1,0l0.3,0c0,0,1.8,0.2,5.1,0.6c3.3,0.4,8.3,1,14.5,1.7c6.2,0.8,13.8,1.8,22.4,3c8.7,1.3,18.4,2.7,29,4.5
				c21.2,3.6,45.8,8.3,71.8,14.4c26.1,6.2,53.6,13.7,80.7,22.8c13.5,4.5,27,9.5,40,14.7c13,5.3,25.7,10.9,37.7,16.9
				c6,3,11.9,6.1,17.5,9.3c5.7,3.1,11.1,6.4,16.3,9.8c5.2,3.3,10.2,6.7,14.9,10.2c4.7,3.5,9.1,7,13.2,10.6
				c4.1,3.6,7.8,7.2,11.2,10.9c3.4,3.7,6.4,7.3,8.9,10.9c5.1,7.2,8.5,14.2,10.3,20.3c1.9,6,2.2,10.9,2.2,14.2c0,1.6-0.1,2.9-0.2,3.7
				C1187.9,534.5,1187.8,534.9,1187.8,534.9z"/>
		</g>
		<g id="XMLID_111_">
			<path id="XMLID_151_" d="M424.5,764.8c0,0-1.4-3.5-3.6-10c-0.6-1.6-1.1-3.6-1.7-5.7c-0.6-2.1-1.2-4.5-1.8-7
				c-0.6-2.5-1.1-5.2-1.7-8.1c-0.3-1.5-0.6-3-0.9-4.5c-0.2-1.5-0.5-3.1-0.7-4.8c-1.9-13.2-2.9-29.5-1.5-48.4
				c0.2-2.4,0.4-4.7,0.6-7.2c0.2-2.4,0.6-4.9,0.9-7.4c0.3-2.5,0.7-5,1.1-7.6c0.5-2.5,0.9-5.1,1.4-7.7c0.9-5.3,2.3-10.5,3.6-16
				c0.7-2.7,1.5-5.4,2.3-8.2c0.8-2.8,1.6-5.6,2.5-8.3c0.9-2.8,1.9-5.6,2.8-8.4c1-2.8,2.1-5.6,3.2-8.5c0.6-1.4,1.1-2.9,1.7-4.3
				c0.6-1.4,1.2-2.8,1.8-4.2c1.2-2.8,2.5-5.7,3.8-8.6c5.4-11.4,11.5-22.9,18.5-34.3c7.1-11.3,14.9-22.6,23.6-33.5
				c8.8-10.8,18.4-21.2,28.8-31.1c10.4-9.8,21.7-19,33.6-27.6c11.9-8.6,24.3-16.4,37.1-23.8c25.5-14.8,52.1-27.9,78.6-40.2
				c13.2-6.2,26.7-11.9,40.1-17.3c13.5-5.3,27-10.3,40.5-14.8c27-9,53.9-16.3,80.2-21.9c26.3-5.5,51.9-9.5,76.2-12.3
				c6.1-0.7,12.1-1.3,18-1.8c5.9-0.5,11.7-1,17.4-1.4c5.7-0.3,11.3-0.7,16.9-1c5.5-0.2,10.9-0.4,16.2-0.7c5.3-0.2,10.5-0.3,15.5-0.4
				c5.1-0.1,10,0,14.8,0c4.8,0,9.5,0.1,14.1,0.2c2.3,0,4.5,0.1,6.7,0.1c2.2,0,4.4,0.2,6.5,0.3c17.1,0.6,32,1.8,44.2,2.9
				c6.1,0.5,11.5,1.2,16.3,1.7c4.7,0.5,8.7,1,12,1.5c6.5,0.9,9.9,1.4,9.9,1.4s-3.5,0.5-9.9,1.5c-6.5,0.9-15.9,2.5-27.9,4.4
				c-6,1-12.6,2.1-19.8,3.5c-3.6,0.6-7.3,1.3-11.2,2c-3.9,0.8-7.8,1.5-12,2.4c-4.1,0.8-8.4,1.7-12.7,2.6c-4.4,0.9-8.8,1.8-13.4,2.9
				c-9.2,2-18.7,4.3-28.7,6.7c-5,1.2-10,2.5-15.2,3.8c-5.1,1.4-10.4,2.8-15.7,4.2c-5.3,1.5-10.7,3-16.1,4.5
				c-2.7,0.8-5.4,1.6-8.2,2.4c-2.8,0.8-5.5,1.6-8.3,2.5c-22.2,6.9-45.4,14.7-68.8,23.7c-2.9,1.1-5.9,2.3-8.8,3.4
				c-2.9,1.2-5.9,2.3-8.8,3.5c-5.9,2.4-11.8,4.8-17.7,7.3c-11.8,5-23.7,10.3-35.5,15.8c-5.9,2.8-11.8,5.6-17.6,8.6
				c-5.9,2.9-11.6,6-17.5,9c-11.5,6.2-23,12.7-34.1,19.5c-2.8,1.7-5.5,3.5-8.3,5.2l-4.1,2.6c-1.4,0.9-2.7,1.8-4,2.7
				c-2.7,1.8-5.3,3.7-8,5.5c-2.6,1.9-5.2,3.8-7.8,5.8c-10.3,7.8-20.3,15.8-29.7,24.2c-18.9,16.7-36.1,33.9-52.7,50
				c-8.2,8.1-16.2,16.1-24.1,23.9c-7.7,7.9-15.2,15.6-22.4,23.3c-7,7.8-13.8,15.4-20.1,23.1c-1.6,1.9-3.1,3.8-4.6,5.7
				c-0.8,1-1.5,1.9-2.3,2.8c-0.7,1-1.5,1.9-2.2,2.9c-1.5,1.9-2.9,3.8-4.4,5.7c-1.4,1.9-2.8,3.8-4.2,5.6c-0.7,0.9-1.4,1.9-2.1,2.8
				c-0.7,0.9-1.3,1.9-2,2.8c-1.3,1.9-2.6,3.7-3.9,5.5c-1.3,1.9-2.5,3.7-3.7,5.5c-0.6,0.9-1.3,1.8-1.9,2.7c-0.6,0.9-1.2,1.8-1.7,2.7
				c-1.1,1.8-2.3,3.6-3.5,5.4c-1.1,1.8-2.2,3.6-3.3,5.3c-2.2,3.5-4.2,7-6.2,10.4c-7.9,13.6-14.2,26.2-19.2,37
				c-0.6,1.4-1.3,2.7-1.9,4c-0.5,1.3-1.1,2.6-1.7,3.8c-1.1,2.4-2.2,4.8-3.1,6.9c-0.9,2.2-1.8,4.2-2.6,6c-0.8,1.9-1.6,3.5-2.2,5.2
				c-2.5,6.4-4,9.9-4,9.9c-1.2,2.7-4.5,4-7.2,2.7C426,767.1,425,766,424.5,764.8z"/>
		</g>
		<g id="XMLID_108_">
			<path id="XMLID_149_" d="M439.5,780.2c0,0-0.4-0.5-1.1-1.5c-0.4-0.5-0.8-1.1-1.3-1.8c-0.5-0.7-1.1-1.6-1.7-2.5
				c-0.6-1-1.3-2-2-3.2c-0.7-1.2-1.5-2.5-2.3-3.9c-1.6-2.8-3.5-6-5.3-9.6c-1.8-3.7-3.8-7.8-5.8-12.2c-2-4.5-4-9.4-5.9-14.6
				c-1.9-5.2-3.8-10.7-5.6-16.6c-1.8-5.9-3.3-12.1-4.9-18.6c-0.4-1.6-0.7-3.3-1.1-4.9c-0.3-1.7-0.6-3.3-1-5
				c-0.7-3.4-1.2-6.9-1.8-10.4c-0.5-3.5-1.1-7.1-1.5-10.8c-0.4-3.7-0.8-7.4-1.2-11.2c-0.7-7.5-1-15.4-1-23.3
				c0-7.9,0.6-16.1,1.5-24.3c0.6-4.1,1.2-8.2,2-12.4c0.8-4.1,1.6-8.3,2.7-12.5c1.1-4.2,2.2-8.3,3.4-12.5c0.6-2.1,1.3-4.2,1.9-6.3
				c0.7-2.1,1.4-4.2,2-6.3c2.7-8.4,5.8-16.8,8.6-25.2c0.7-2.1,1.5-4.2,2.2-6.3l2.2-6.3c0.7-2.1,1.4-4.2,2.1-6.3l2.2-6.3
				c5.6-16.9,12.1-33.6,19.2-49.7c7.1-16.1,15.3-31.6,24.1-46c1.1-1.8,2.2-3.6,3.4-5.3c0.6-0.9,1.1-1.8,1.7-2.6
				c0.6-0.9,1.2-1.7,1.8-2.6c2.3-3.5,4.7-6.8,7-10.1c4.9-6.5,9.6-12.9,14.7-18.8c2.5-3,4.9-5.9,7.5-8.6c2.6-2.7,5.1-5.5,7.6-8.1
				c5.3-5.1,10.2-10.1,15.4-14.4c1.3-1.1,2.5-2.2,3.8-3.3c0.6-0.5,1.2-1.1,1.8-1.6c0.6-0.5,1.3-1,1.9-1.5c2.5-2,5-3.9,7.4-5.7
				c0.6-0.5,1.2-0.9,1.8-1.4c0.6-0.4,1.2-0.9,1.9-1.3c1.2-0.8,2.4-1.7,3.6-2.5c2.4-1.6,4.6-3.2,7-4.6c2.3-1.4,4.6-2.7,6.7-4
				c1.1-0.6,2.1-1.3,3.2-1.9c1-0.6,2.1-1.1,3.1-1.7c2.1-1,4.1-2,5.9-3c1.9-0.9,3.7-1.9,5.4-2.6c3.5-1.5,6.6-2.8,9.3-3.9
				c2.7-1.1,5.1-1.8,7.1-2.5c3.8-1.3,5.9-1.9,5.9-1.9s-1.5,1.5-4.3,4.4c-0.7,0.7-1.5,1.5-2.3,2.4c-0.9,0.9-1.8,1.7-2.8,2.8
				c-1.9,2.1-4.1,4.6-6.6,7.2c-4.8,5.5-10.4,12.3-16.2,20.3c-0.8,1-1.4,2.1-2.2,3.1c-0.7,1.1-1.4,2.1-2.2,3.2
				c-0.7,1.1-1.5,2.2-2.2,3.3c-0.4,0.6-0.8,1.1-1.1,1.7c-0.4,0.6-0.7,1.2-1.1,1.8c-1.4,2.3-2.9,4.7-4.4,7.2
				c-0.4,0.6-0.8,1.2-1.1,1.8c-0.4,0.6-0.7,1.3-1.1,1.9c-0.7,1.3-1.4,2.6-2.2,3.9c-3,5.1-5.7,10.8-8.6,16.4c-2.7,5.8-5.5,11.7-8,18
				c-1.3,3.1-2.6,6.2-3.8,9.5c-1.2,3.2-2.4,6.5-3.7,9.8c-1.1,3.4-2.2,6.8-3.4,10.1c-0.3,0.8-0.6,1.7-0.9,2.5
				c-0.3,0.9-0.5,1.7-0.8,2.6c-0.5,1.7-1.1,3.5-1.6,5.2c-4.3,14-8.2,28.5-11.5,43.5c-3.3,15-6.3,30.3-8.4,45.9
				c-0.3,1.9-0.6,3.9-0.8,5.8c-0.2,2-0.4,3.9-0.6,5.9c-0.3,3.9-0.7,7.8-0.8,11.8c-0.3,7.9-0.5,15.7-0.4,23.6c0,3.9,0,7.8,0,11.7
				c0.1,3.9,0.1,7.7,0,11.5c-0.1,3.8-0.2,7.6-0.3,11.3c-0.2,3.7-0.5,7.4-0.8,11.1c-0.3,3.7-0.7,7.3-1.2,10.9
				c-0.5,3.6-1.1,7.1-1.7,10.7c-0.6,3.5-1.3,7-2,10.5c-0.3,1.7-0.8,3.4-1.2,5.1c-0.4,1.7-0.7,3.4-1.1,5.1
				c-1.5,6.8-3.3,13.3-4.8,19.7c-0.9,3.2-1.7,6.4-2.6,9.5c-0.9,3.1-1.8,6.2-2.7,9.2c-1.8,6-3.6,11.8-5.6,17.3
				c-1.9,5.5-3.7,10.8-5.7,15.8c-2,5-3.7,9.6-5.6,13.9c-1.8,4.3-3.6,8.3-5.4,11.9c-1.7,3.7-3.3,7-4.7,9.9c-0.8,1.4-1.4,2.8-2.1,4
				c-0.6,1.2-1.3,2.3-1.8,3.3c-0.5,1-1.1,1.9-1.5,2.6c-0.4,0.8-0.8,1.4-1.2,1.9c-0.6,1-1,1.6-1,1.6c-1.8,2.8-5.5,3.7-8.3,1.9
				C440.6,781.3,440,780.8,439.5,780.2z"/>
		</g>
		<g id="XMLID_105_">
			<path id="XMLID_125_" d="M424.9,763c0,0-0.5-2.6-1.2-7.4c-0.1-1.2-0.3-2.5-0.5-4c-0.2-1.5-0.3-3-0.5-4.7
				c-0.1-0.4-0.1-0.9-0.1-1.3c0-0.5,0-0.9,0-1.4c0-0.9,0-1.9,0-2.9c0-2,0-4.2,0-6.5c0.1-2.3,0.1-4.7,0.3-7.3c0.2-2.5,0.4-5,0.7-7.7
				c0.3-2.7,0.6-5.5,1-8.4c0.2-1.5,0.4-2.9,0.7-4.4c0.3-1.5,0.5-3,0.8-4.5c0.3-1.5,0.6-3.1,0.9-4.6c0.3-1.6,0.7-3.2,1-4.8
				c0.3-1.6,0.8-3.2,1.3-4.8c0.5-1.6,0.9-3.3,1.4-4.9c1-3.3,2-6.8,3.2-10.2c1.2-3.4,2.5-6.9,3.9-10.4c0.7-1.8,1.4-3.6,2.1-5.4
				c0.8-1.8,1.6-3.5,2.4-5.3c1.6-3.6,3.4-7.2,5.2-10.9c1.9-3.6,3.9-7.2,6-10.8c1-1.8,2.1-3.7,3.2-5.5c1.1-1.8,2.3-3.6,3.5-5.4
				c1.2-1.8,2.4-3.6,3.6-5.4c1.2-1.8,2.4-3.7,3.7-5.5c2.6-3.5,5.3-7.1,8.2-10.6c1.4-1.8,2.8-3.5,4.3-5.2c1.5-1.7,3.1-3.4,4.6-5.1
				c1.6-1.7,3.2-3.4,4.8-5c0.8-0.8,1.6-1.7,2.4-2.5c0.9-0.8,1.7-1.6,2.6-2.4c13.6-12.9,29.8-23.6,46.6-33.4
				c4.2-2.4,8.5-4.8,12.8-7.2c4.3-2.4,8.7-4.5,12.9-6.9c2.1-1.1,4.3-2.3,6.5-3.4l6.5-3.3c2.2-1.1,4.3-2.2,6.5-3.4
				c2.2-1.1,4.3-2.3,6.5-3.3c4.3-2.2,8.7-4.3,13-6.5c2.1-1.1,4.4-2.1,6.5-3.1c2.2-1,4.4-2,6.6-3c2.2-1,4.4-2,6.5-3
				c2.2-1,4.4-1.9,6.6-2.8c4.4-1.8,8.8-3.6,13.2-5.4c4.4-1.6,8.9-3.2,13.3-4.8c4.4-1.7,8.8-3,13.2-4.4c2.2-0.7,4.4-1.4,6.6-2.1
				c2.2-0.7,4.4-1.4,6.6-1.9c4.4-1.2,8.7-2.3,13.1-3.5c4.3-1.2,8.7-2,12.9-3c4.3-0.9,8.5-1.9,12.7-2.6c4.2-0.7,8.4-1.4,12.5-2.1
				c2.1-0.3,4.1-0.7,6.1-1c2-0.3,4.1-0.5,6.1-0.8c4-0.5,8-1,11.9-1.5c3.9-0.5,7.8-0.7,11.6-1c3.8-0.3,7.5-0.6,11.2-0.8
				c3.7-0.1,7.3-0.3,10.8-0.4c3.5-0.1,6.9-0.3,10.3-0.3c3.4,0,6.6,0.1,9.8,0.1c3.2,0,6.3,0.1,9.3,0.1c3,0.1,5.9,0.3,8.8,0.5
				c2.8,0.2,5.6,0.3,8.2,0.5c1.3,0.1,2.6,0.2,3.9,0.2c1.3,0.1,2.5,0.2,3.7,0.4c4.9,0.5,9.3,1,13.3,1.5c4,0.4,7.6,1,10.7,1.5
				c3.1,0.5,5.7,0.9,7.8,1.3c4.2,0.7,6.5,1.2,6.5,1.2s-2.2,0.6-6.4,1.7c-2.1,0.6-4.6,1.2-7.6,2c-3,0.8-6.4,1.6-10.3,2.7
				c-7.6,2.2-16.9,4.7-27.3,8c-2.6,0.8-5.3,1.6-8,2.5c-2.7,0.9-5.5,1.9-8.4,2.9c-2.9,1-5.8,2-8.8,3c-3,1.1-6,2.2-9.1,3.4
				c-3.1,1.1-6.3,2.3-9.5,3.5c-3.2,1.3-6.4,2.6-9.7,3.9c-3.3,1.3-6.6,2.6-10,4c-3.3,1.5-6.7,2.9-10.1,4.4c-1.7,0.7-3.4,1.5-5.2,2.2
				c-1.7,0.8-3.4,1.6-5.2,2.4c-3.4,1.6-6.9,3.2-10.5,4.9c-1.8,0.8-3.5,1.7-5.2,2.6c-1.8,0.9-3.5,1.8-5.3,2.6
				c-3.5,1.8-7.1,3.5-10.6,5.5c-3.5,1.9-7.1,3.8-10.7,5.7c-1.8,0.9-3.5,2-5.3,3c-1.8,1-3.6,2-5.3,3c-7.2,3.9-14.2,8.3-21.3,12.5
				c-14.1,8.8-28,18.1-41.3,28.2c-13.2,10.2-25.3,21.6-36.3,33.7c-2.8,2.9-5.4,6.1-8.1,9c-1.4,1.5-2.7,3-4,4.4
				c-1.3,1.5-2.6,3-3.9,4.4c-2.6,2.9-5.3,5.7-7.9,8.5c-2.6,2.8-5.2,5.5-7.9,8.2l-2,1.9c-0.6,0.7-1.3,1.3-2,2c-1.3,1.3-2.7,2.6-4,3.9
				c-2.7,2.5-5.4,5-8.1,7.4c-2.6,2.4-5.4,4.8-8.1,7.1c-2.6,2.3-5.3,4.7-7.9,6.9c-10.7,9.2-20.9,17.9-30.2,25.9c-2.4,2-4.7,4.1-7.1,6
				c-1.2,1-2.3,2-3.4,3c-1.1,1-2.3,1.9-3.4,2.9c-2.3,1.9-4.5,3.8-6.6,5.6c-1.1,0.9-2.1,1.8-3.1,2.7c-1.1,0.9-2.1,1.8-3.1,2.6
				c-2,1.8-4.2,3.4-6.1,5.1c-1.9,1.7-3.8,3.3-5.6,4.8c-1.9,1.5-3.7,3-5.4,4.5c-1.6,1.4-3.3,2.8-4.8,4c-1.6,1.3-3.1,2.5-4.5,3.7
				c-0.7,0.6-1.4,1.2-2.1,1.7c-0.3,0.3-0.7,0.6-1,0.8c-0.3,0.3-0.6,0.6-1,0.9c-1.3,1.1-2.5,2.2-3.6,3.1c-1.1,1-2.2,1.8-3.1,2.6
				c-3.7,3-6,4.6-6,4.6c-2.7,1.9-6.4,1.2-8.3-1.5C425.3,764.6,425,763.8,424.9,763z"/>
		</g>
		<g id="XMLID_102_">
			<path id="XMLID_122_" d="M1336.4,648.9c0,0-0.2-1.8-0.4-5.2c-0.1-1.7-0.3-3.8-0.5-6.2c-0.1-0.6-0.1-1.2-0.2-1.9
				c-0.1-0.6-0.2-1.3-0.3-2c-0.2-1.4-0.4-2.8-0.7-4.4c-0.5-3.1-0.9-6.5-1.8-10.2c-0.4-1.8-0.8-3.8-1.2-5.7c-0.2-1-0.4-2-0.7-3
				c-0.3-1-0.6-2-0.9-3.1c-0.6-2.1-1.2-4.2-1.8-6.5c-0.3-1.1-0.6-2.2-1-3.3c-0.4-1.1-0.8-2.2-1.2-3.4c-0.8-2.3-1.6-4.6-2.5-7
				c-0.9-2.4-2-4.8-3-7.2c-0.5-1.2-1-2.5-1.5-3.7c-0.3-0.6-0.5-1.3-0.8-1.9c-0.3-0.6-0.6-1.2-0.9-1.8c-1.2-2.5-2.4-5-3.7-7.6
				c-0.3-0.6-0.6-1.3-0.9-1.9c-0.4-0.6-0.7-1.3-1.1-1.9c-0.7-1.3-1.4-2.5-2.2-3.8c-1.5-2.5-2.8-5.2-4.5-7.7c-1.6-2.5-3.3-5.1-5-7.7
				c-1.7-2.6-3.6-5.1-5.5-7.7c-0.9-1.3-1.8-2.6-2.8-3.9c-1-1.2-2-2.5-3-3.8c-1-1.3-2-2.5-3-3.8l-1.5-1.9c-0.5-0.6-1.1-1.2-1.6-1.8
				c-2.2-2.4-4.4-4.9-6.6-7.4c-2.3-2.4-4.7-4.8-7.1-7.2c-1.2-1.2-2.3-2.4-3.6-3.6c-1.2-1.2-2.5-2.3-3.8-3.5
				c-2.5-2.3-4.9-4.7-7.6-6.9c-2.6-2.2-5.3-4.4-7.9-6.7c-2.8-2.1-5.5-4.2-8.3-6.3c-2.7-2.2-5.7-4.1-8.5-6.1c-2.9-2-5.7-4-8.7-5.8
				c-3-1.8-5.9-3.7-8.9-5.5c-3-1.7-6.1-3.4-9.1-5.1c-3-1.7-6.2-3.2-9.3-4.7c-3.1-1.5-6.2-3.1-9.4-4.4c-3.1-1.4-6.3-2.7-9.4-4.1
				c-3.1-1.3-6.3-2.5-9.4-3.7c-1.6-0.6-3.1-1.3-4.6-1.9c-1.6-0.6-3.1-1.2-4.7-1.7c-3.1-1.1-6.2-2.3-9.2-3.5
				c-12.3-4.4-24.1-8.7-35.6-12.3c-2.9-0.9-5.7-1.8-8.5-2.7c-2.8-0.8-5.6-1.6-8.3-2.4c-2.7-0.8-5.4-1.7-8.1-2.3
				c-2.7-0.7-5.3-1.4-7.8-2.1c-5.1-1.5-10.1-2.6-14.8-3.7c-2.4-0.6-4.7-1.2-6.9-1.7c-2.3-0.5-4.4-1-6.6-1.4c-8.5-2-16-3.4-22.2-4.8
				c-3.1-0.7-5.9-1.2-8.3-1.7c-2.4-0.5-4.5-0.9-6.2-1.3c-3.4-0.7-5.2-1.2-5.2-1.2l-0.1,0c-0.8-0.2-1.2-1-1-1.7
				c0.1-0.6,0.6-0.9,1.1-1.1c0,0,1.8-0.4,5.2-1c1.7-0.3,3.8-0.7,6.3-1c2.5-0.4,5.4-0.9,8.6-1.1c6.4-0.6,14.3-1.4,23.4-1.4
				c2.3-0.1,4.6-0.1,7-0.1c2.4,0,4.9,0.1,7.4,0.2c5.1,0.2,10.5,0.3,16,1c5.6,0.5,11.4,1.1,17.3,2c3,0.5,6,1,9.1,1.5
				c3.1,0.5,6.2,1.2,9.3,1.9c12.6,2.5,25.7,6.4,38.9,11.3c13.1,5.2,26.3,11.4,39.1,18.9c3.3,1.8,6.4,3.8,9.5,5.7
				c3.2,2,6.4,3.8,9.4,6c3.1,2.1,6.2,4.2,9.3,6.2c3.1,2.2,6.1,4.4,9.1,6.6c3.1,2.1,6,4.5,8.9,6.8c2.9,2.3,5.9,4.6,8.7,7.1
				c2.8,2.4,5.6,4.9,8.4,7.3c2.7,2.6,5.4,5.1,8,7.7c2.7,2.5,5.1,5.3,7.7,7.9c1.3,1.3,2.5,2.6,3.7,4c1.2,1.3,2.4,2.8,3.5,4.1
				c2.3,2.8,4.7,5.5,6.9,8.2c2.2,2.8,4.3,5.6,6.4,8.4c0.5,0.7,1.1,1.4,1.6,2.1l1.5,2.2c1,1.4,1.9,2.9,2.9,4.3c1,1.4,1.9,2.8,2.9,4.2
				c0.9,1.4,1.8,2.9,2.7,4.3c1.7,2.9,3.5,5.7,5.1,8.6c1.5,2.9,3,5.8,4.5,8.6c1.6,2.8,2.8,5.7,4.1,8.5c0.6,1.4,1.3,2.8,1.9,4.2
				c0.3,0.7,0.6,1.4,0.9,2.1c0.3,0.7,0.5,1.4,0.8,2.1c1.1,2.8,2.1,5.6,3.2,8.3c0.3,0.7,0.5,1.3,0.8,2c0.2,0.7,0.4,1.4,0.7,2
				c0.4,1.4,0.9,2.7,1.3,4c0.4,1.3,0.8,2.6,1.2,3.9c0.4,1.3,0.9,2.6,1.1,3.9c0.6,2.6,1.2,5.1,1.9,7.6c0.3,1.2,0.6,2.4,0.9,3.6
				c0.3,1.2,0.5,2.4,0.7,3.6c0.4,2.4,0.8,4.6,1.2,6.8c0.2,1.1,0.4,2.2,0.6,3.3c0.1,1.1,0.2,2.1,0.4,3.2c0.2,2.1,0.5,4.1,0.7,6
				c0.5,3.8,0.6,7.4,0.7,10.7c0.1,1.6,0.1,3.1,0.2,4.6c0,0.7,0.1,1.4,0.1,2.1c0,0.7,0,1.3,0,1.9c-0.1,2.5-0.1,4.6-0.1,6.3
				c-0.1,3.4-0.1,5.2-0.1,5.2c0,0.8-0.7,1.4-1.4,1.4C1337.1,650.1,1336.5,649.6,1336.4,648.9z"/>
		</g>
		<g id="XMLID_99_">
			<path id="XMLID_119_" d="M494.5,824c0,0-0.3-0.4-1-1.2c-0.3-0.4-0.7-0.9-1.2-1.4c-0.5-0.6-1-1.2-1.5-2c-0.6-0.7-1.2-1.6-1.9-2.5
				c-0.6-0.9-1.4-1.9-2.1-3c-0.4-0.5-0.7-1.1-1.1-1.7c-0.4-0.6-0.7-1.3-1.1-2c-0.8-1.4-1.4-2.9-2.2-4.5c-0.8-1.6-1.6-3.3-2.3-5.2
				c-0.4-0.9-0.8-1.9-1.1-2.8c-0.3-0.9-0.7-1.9-1-2.9c-0.7-2-1.3-4-2-6.2c-0.3-1.1-0.6-2.2-0.9-3.3c-0.3-1.1-0.6-2.3-0.8-3.4
				c-0.2-1.2-0.5-2.4-0.7-3.6c-0.2-1.2-0.4-2.4-0.6-3.7c-0.4-2.5-0.9-5.1-1-7.8c-0.1-1.3-0.2-2.7-0.3-4c-0.1-1.4-0.1-2.8-0.2-4.2
				c-0.2-2.8-0.1-5.7,0-8.6c0.1-2.9,0.3-5.9,0.6-9c0.3-3,0.8-6.1,1.3-9.2c0.3-1.6,0.6-3.1,0.8-4.7c0.3-1.6,0.7-3.1,1.1-4.7
				c0.8-3.2,1.6-6.4,2.6-9.6c4.1-12.7,10-25.7,18.7-37.2c1.1-1.5,2.2-2.9,3.4-4.2c1.2-1.4,2.4-2.7,3.6-4.1c1.2-1.3,2.5-2.7,3.7-4
				c1.3-1.3,2.7-2.5,4-3.8c1.4-1.2,2.7-2.5,4.2-3.7c1.4-1.2,2.8-2.4,4.3-3.5c2.9-2.3,5.9-4.5,8.9-6.7c12.3-8.5,24.9-16,37.3-23.5
				c12.4-7.3,25.1-13.8,37.9-19.3c3.2-1.3,6.5-2.5,9.6-3.8c1.6-0.6,3.2-1.2,4.8-1.8c1.6-0.5,3.2-1,4.8-1.6c3.2-1,6.4-2.1,9.6-3
				c3.2-0.8,6.4-1.7,9.5-2.5c3.1-0.8,6.3-1.4,9.4-2c3.1-0.6,6.2-1.2,9.3-1.7c3.1-0.4,6.1-0.9,9.1-1.3c1.5-0.2,3-0.4,4.5-0.6
				c1.5-0.1,3-0.3,4.4-0.4c2.9-0.3,5.8-0.5,8.6-0.7c2.8-0.2,5.6-0.2,8.4-0.3c2.7-0.1,5.4-0.1,8-0.2c2.6,0,5.2,0.1,7.7,0.2
				c2.5,0.1,5,0.1,7.4,0.3c2.4,0.2,4.7,0.4,7,0.6c2.3,0.2,4.5,0.4,6.6,0.6c2.1,0.2,4.2,0.6,6.2,0.8c2,0.3,3.9,0.6,5.8,0.8
				c0.9,0.1,1.8,0.3,2.7,0.4c0.9,0.1,1.8,0.3,2.6,0.5c3.4,0.7,6.5,1.4,9.4,2c2.8,0.5,5.3,1.3,7.5,1.9c2.2,0.6,4,1.1,5.5,1.5
				c2.9,0.9,4.5,1.4,4.5,1.4s-1.6,0.5-4.5,1.5c-2.9,1-7.1,2.3-12.4,4.2c-2.6,0.9-5.5,2-8.7,3.1c-0.8,0.3-1.6,0.5-2.4,0.8
				c-0.8,0.3-1.6,0.6-2.5,1c-1.7,0.6-3.4,1.3-5.2,2c-1.8,0.7-3.6,1.4-5.5,2.1c-1.9,0.8-3.8,1.6-5.7,2.4c-1.9,0.8-3.9,1.6-6,2.5
				c-2,0.9-4.1,1.8-6.1,2.8c-2.1,0.9-4.2,1.9-6.3,2.9c-2.1,1.1-4.3,2.1-6.4,3.2c-2.2,1.1-4.4,2.1-6.6,3.3c-2.2,1.2-4.4,2.4-6.6,3.6
				c-1.1,0.6-2.2,1.2-3.4,1.8c-1.1,0.7-2.2,1.3-3.3,2c-2.2,1.3-4.5,2.6-6.8,3.9c-1.1,0.6-2.2,1.4-3.4,2.1c-1.1,0.7-2.2,1.4-3.4,2.1
				c-2.3,1.4-4.5,2.8-6.7,4.3c-2.2,1.5-4.5,2.9-6.7,4.4c-2.2,1.5-4.4,3.1-6.7,4.7c-1.1,0.8-2.2,1.5-3.3,2.3
				c-1.1,0.8-2.2,1.6-3.3,2.4c-2.2,1.6-4.3,3.3-6.5,4.9c-8.6,6.7-16.8,13.9-24.4,21.5c-7.5,7.7-13.6,16.6-18.7,25.5
				c-1.2,2.3-2.4,4.5-3.7,6.7c-0.7,1.1-1.2,2.2-1.7,3.3c-0.6,1.1-1.2,2.2-1.7,3.2c-0.6,1-1.2,2.1-1.8,3.1c-0.5,1.1-1.1,2.1-1.7,3.1
				c-0.6,1-1.2,2-1.8,2.9c-0.6,1-1.3,1.9-1.9,2.8c-1.2,1.9-2.5,3.7-3.9,5.4c-0.7,0.8-1.3,1.8-2,2.6c-0.7,0.9-1.3,1.7-2,2.5
				c-0.7,0.8-1.4,1.7-2.2,2.5c-0.7,0.8-1.4,1.6-2.1,2.5c-1.4,1.6-2.9,3.2-4.3,4.8c-1.3,1.6-2.8,3.2-4.2,4.7
				c-0.7,0.8-1.5,1.5-2.2,2.3c-0.7,0.8-1.4,1.6-2,2.3c-1.4,1.5-2.8,3.1-4.3,4.6c-1.3,1.6-2.7,3.1-4.1,4.6c-0.7,0.8-1.4,1.5-2.1,2.2
				c-0.7,0.7-1.3,1.5-2,2.3c-0.7,0.8-1.3,1.5-2,2.2c-0.7,0.7-1.4,1.5-2,2.2c-1.4,1.4-2.6,2.9-3.9,4.4c-0.6,0.7-1.3,1.4-1.9,2.1
				c-0.7,0.7-1.3,1.4-1.9,2.1c-1.3,1.4-2.4,2.8-3.6,4.1c-1.2,1.4-2.4,2.7-3.5,4c-0.6,0.7-1.2,1.3-1.7,1.9c-0.5,0.6-1.1,1.2-1.6,1.8
				c-1,1.2-2.1,2.3-3.1,3.4c-4.1,4.2-7.3,8.9-9.8,11.6c-0.6,0.7-1.2,1.3-1.7,1.9c-0.5,0.5-0.9,1-1.3,1.4c-0.7,0.7-1.1,1.1-1.1,1.1
				c-2.6,2.7-6.8,2.8-9.5,0.2C494.8,824.3,494.7,824.2,494.5,824z"/>
		</g>
		<g id="XMLID_96_">
			<path id="XMLID_116_" d="M439.5,779.9c0,0-1.4-3.2-3.6-9.1c-1.1-3.1-2.2-7.1-3.4-11.8c-1-4.6-2.3-10-3.1-16.2
				c-1.7-12.2-2.5-27.5-0.6-45c1.7-17.5,6.3-37.1,14-57.4c4-10.1,8.7-20.4,14.2-30.7c1.4-2.6,2.9-5.1,4.3-7.7
				c0.7-1.3,1.5-2.6,2.2-3.9c0.8-1.3,1.6-2.5,2.4-3.8c1.6-2.5,3.2-5.1,4.9-7.6c1.7-2.5,3.5-5,5.2-7.5c7.2-10,15-19.8,23.8-29.2
				c8.7-9.3,18.2-18.2,28.4-26.5c10.2-8.2,21.1-15.8,32.4-22.8c11.4-6.9,23.3-13.2,35.3-19.1c3-1.4,6.1-2.9,9.1-4.3
				c3-1.4,6.1-2.8,9.2-4.2l4.6-2.1l4.6-2c3.1-1.3,6.2-2.7,9.2-4c12.4-5.2,24.7-10.2,37.1-15.1c24.8-9.6,49.8-18.1,74.8-24.8
				c24.9-6.9,49.7-12.2,73.7-16.4c24-4.1,47.3-7.2,69.4-9.1c11-1,21.8-1.8,32.2-2.4c10.4-0.6,20.4-0.9,30-1.2
				c4.8-0.1,9.5-0.2,14.1-0.3c4.6,0,9.1,0,13.5,0c4.4,0,8.6,0.1,12.8,0.2c2.1,0,4.1,0.1,6.1,0.1c2,0.1,4,0.1,5.9,0.2
				c3.9,0.1,7.7,0.2,11.3,0.4c3.6,0.2,7.1,0.4,10.5,0.5c3.4,0.2,6.6,0.4,9.6,0.6c3.1,0.2,6,0.4,8.8,0.6c11.1,0.9,19.8,1.6,25.7,2.3
				c5.9,0.6,9.1,1,9.1,1c2.8,0.3,4.8,2.8,4.5,5.5c-0.3,2.4-2.1,4.2-4.4,4.4l-0.1,0c0,0-3.1,0.4-9,1.1c-5.8,0.7-14.4,1.8-25.3,3.3
				c-5.4,0.8-11.4,1.6-17.9,2.7c-3.3,0.5-6.6,1-10.1,1.6c-3.5,0.6-7.1,1.2-10.9,1.9c-7.5,1.3-15.4,2.8-23.8,4.3
				c-4.2,0.8-8.4,1.7-12.8,2.6c-4.4,0.9-8.8,1.9-13.4,2.8c-9.1,2-18.5,4.1-28.2,6.5c-9.7,2.3-19.7,4.9-29.9,7.7
				c-5.1,1.4-10.2,2.9-15.4,4.4c-5.2,1.5-10.4,3.1-15.7,4.7c-10.5,3.3-21.3,6.8-32,10.6c-21.6,7.4-43.5,16-65.3,25.4
				c-10.9,4.7-21.7,9.7-32.4,14.8c-10.7,5.2-21.3,10.7-31.7,16.3c-10.4,5.8-20.5,11.8-30.2,18.4c-9.7,6.6-19.1,13.5-28,20.6
				c-9,7.1-17.6,14.3-26,21.4c-8.3,7-16.4,14-24.4,20.8c-7.9,6.7-15.6,13.3-23.2,19.8c-1.8,1.6-3.7,3.2-5.6,4.8
				c-1.9,1.6-3.7,3.2-5.5,4.8c-0.9,0.8-1.8,1.6-2.7,2.4c-0.9,0.8-1.8,1.6-2.7,2.4c-1.8,1.6-3.5,3.2-5.3,4.8
				c-6.9,6.3-13.5,12.7-19.7,19c-6.2,6.3-12,12.6-17.5,18.7c-10.8,12.4-20.3,24.6-28.1,36.1c-7.9,11.5-14.3,22.4-19.4,31.9
				c-2.6,4.7-4.7,9.1-6.7,12.9c-1,1.9-1.8,3.6-2.6,5.3c-0.8,1.7-1.6,3.1-2.2,4.6c-2.5,5.8-4,8.9-4,8.9c-1.4,2.7-4.7,3.8-7.4,2.5
				C440.9,782,440,781,439.5,779.9z"/>
		</g>
		<g id="XMLID_93_">
			<path id="XMLID_113_" d="M519.4,738.9c0,0-1.4-2.5-3.7-7.3c-0.6-1.1-1.2-2.6-1.7-4.2c-0.6-1.6-1.2-3.3-1.9-5.2
				c-0.7-1.9-1.2-3.9-1.9-6c-0.7-2.2-1.3-4.5-1.9-6.9c-2.4-9.8-4.2-22.1-4.3-36.4c-0.1-14.2,1.7-30.5,6-47.7c1.2-4.2,2.3-8.7,3.8-13
				c1.4-4.4,3.1-8.8,4.8-13.2c0.9-2.2,1.9-4.4,2.8-6.6c0.5-1.1,1-2.2,1.5-3.3c0.5-1.1,1-2.2,1.6-3.3c1.1-2.2,2.1-4.4,3.3-6.7
				c1.2-2.2,2.4-4.4,3.6-6.6c4.9-8.8,10.4-17.6,16.7-25.9c6.3-8.4,13.3-16.4,21-23.9c7.7-7.5,16.1-14.4,25-20.8
				c8.9-6.3,18.3-12.1,27.9-17.6c9.6-5.4,19.4-10.4,29.2-15.3c2.5-1.2,4.9-2.4,7.4-3.6c2.4-1.2,4.9-2.4,7.4-3.5
				c4.9-2.3,9.8-4.6,14.8-6.9c19.7-8.9,39.7-16.8,59.7-23.1c20-6.4,39.9-11.3,59.2-15.2c9.7-1.8,19.2-3.5,28.5-4.9
				c2.3-0.3,4.7-0.7,7-1c2.3-0.3,4.6-0.6,6.9-0.9c4.6-0.6,9.1-1.1,13.5-1.5c8.9-0.9,17.5-1.6,25.9-2.2c4.2-0.3,8.3-0.4,12.3-0.6
				c4-0.2,8-0.3,11.9-0.4c7.7-0.2,15.1-0.2,22.2-0.1c1.8,0,3.5,0,5.2,0.1c1.7,0,3.4,0.1,5.1,0.1c3.3,0.1,6.5,0.2,9.7,0.3
				c12.5,0.5,23.3,1.4,32.2,2.3c4.4,0.4,8.4,0.9,11.8,1.3c3.4,0.4,6.4,0.8,8.7,1.1c4.7,0.6,7.2,1,7.2,1c2.8,0.4,4.7,2.9,4.3,5.7
				c-0.3,2.3-2.1,4-4.2,4.3l-0.1,0c0,0-2.5,0.4-7.1,1.1c-4.6,0.7-11.4,1.8-20,3.3c-4.3,0.8-9,1.6-14.2,2.6c-2.6,0.5-5.2,1-8,1.6
				c-2.8,0.6-5.6,1.2-8.6,1.8c-2.9,0.6-6,1.3-9.1,2c-1.6,0.3-3.1,0.7-4.7,1.1c-1.6,0.4-3.2,0.8-4.9,1.2c-6.6,1.5-13.4,3.3-20.5,5.2
				c-3.5,1-7.2,1.9-10.8,3c-3.7,1.1-7.4,2.1-11.2,3.3c-7.6,2.3-15.3,4.7-23.2,7.4c-15.8,5.4-32.2,11.4-48.7,18.5
				c-8.2,3.5-16.6,7.2-24.8,11.2c-4.2,1.9-8.2,4-12.4,6c-2.1,1-4.1,2.1-6.2,3.1l-3.1,1.6l-3.1,1.6c-2,1.1-4.1,2.2-6.1,3.3
				c-2,1.1-4.1,2.2-6.1,3.4c-2,1.1-4.1,2.3-6.1,3.4c-2,1.2-4,2.3-6,3.5c-8,4.7-15.8,9.7-23.5,14.8c-3.8,2.6-7.6,5.2-11.2,8
				c-1.8,1.4-3.7,2.7-5.4,4.2l-5.3,4.3c-7,5.9-13.5,12-19.8,18.3c-12.5,12.6-23.7,25.2-34.9,36.6c-11.1,11.5-22,22-32.1,32.3
				c-10.1,10.4-19.3,20.6-27.7,30.6c-8.3,10-15.7,19.7-22.2,29c-6.5,9.2-12,17.9-16.5,25.4c-1.2,1.9-2.2,3.7-3.2,5.4
				c-1,1.7-2,3.4-2.9,4.9c-0.9,1.5-1.7,2.9-2.5,4.2c-0.7,1.3-1.5,2.5-2.1,3.7c-2.5,4.6-4,7.1-4,7.1c-1.7,2.7-5.3,3.6-8,1.9
				C520.6,740.5,519.9,739.7,519.4,738.9z"/>
		</g>
		<g id="XMLID_45_">
			<path id="XMLID_110_" d="M442.5,780c0,0-0.6-2.3-1.4-6.7c-0.5-2.2-0.8-5-1.3-8.3c-0.2-1.7-0.3-3.4-0.5-5.3
				c-0.2-1.9-0.4-3.9-0.4-6c-0.5-8.5-0.3-19,1.1-30.9c1.5-11.9,4.3-25.3,9.1-39.5c4.8-14.1,11.4-29,20.2-43.7
				c2.2-3.7,4.5-7.3,6.9-11c1.2-1.8,2.5-3.6,3.8-5.4c0.6-0.9,1.3-1.8,1.9-2.7c0.7-0.9,1.4-1.8,2-2.7c5.4-7.2,11.3-14.1,17.7-20.9
				c12.8-13.5,27.6-25.6,43.4-36.6c15.8-11,32.5-20.9,49.4-30.1c8.5-4.6,17.1-8.9,25.7-12.9c4.3-2.1,8.7-3.9,13-5.9
				c2.2-0.9,4.4-1.8,6.6-2.7c2.2-0.9,4.4-1.8,6.6-2.7c8.7-3.5,17.5-6.7,26.2-9.6c4.4-1.4,8.7-2.8,13.1-4.1c2.2-0.6,4.3-1.3,6.5-1.9
				c2.2-0.6,4.3-1.2,6.5-1.8c4.3-1.2,8.6-2.2,12.8-3.3c4.3-1,8.5-2,12.7-2.9c8.4-1.8,16.6-3.4,24.6-4.7c2-0.3,4-0.7,6-1
				c2-0.3,3.9-0.6,5.9-0.9c3.9-0.6,7.8-1.1,11.5-1.6c7.6-0.9,14.9-1.7,21.9-2.3c14.1-1.2,27-1.7,38.4-2c11.4-0.2,21.4,0,29.6,0.3
				c4.1,0.1,7.7,0.4,10.9,0.5c3.2,0.1,5.9,0.3,8,0.5c4.4,0.3,6.7,0.5,6.7,0.5s-2.3,0.2-6.7,0.6c-4.3,0.4-10.7,1-18.8,2
				c-4,0.5-8.5,1-13.3,1.7c-2.4,0.3-4.9,0.6-7.6,1c-2.6,0.4-5.3,0.8-8.1,1.2c-5.6,0.9-11.5,1.8-17.7,3c-3.1,0.6-6.3,1.1-9.5,1.8
				c-3.2,0.7-6.6,1.3-9.9,2c-6.8,1.4-13.8,3-21,4.8c-3.6,0.9-7.3,1.8-11,2.8c-1.8,0.5-3.7,1-5.6,1.5c-1.9,0.5-3.8,1.1-5.6,1.6
				c-15.1,4.4-30.9,9.3-46.9,15.4c-2,0.7-4,1.5-6,2.2c-2,0.8-4,1.6-6,2.4c-4,1.6-8,3.3-12.1,4.9c-8,3.5-16.2,7-24.1,10.9
				c-2,0.9-4,1.9-6,2.9c-2,1-4,2-6,3c-4,2.1-7.9,4.1-11.9,6.3c-7.9,4.3-15.6,8.9-23.2,13.7c-7.6,4.8-15,9.9-22,15.3
				c-1.8,1.4-3.5,2.7-5.3,4.1c-1.7,1.4-3.5,2.8-5.2,4.1c-1.7,1.4-3.4,2.8-5,4.2c-1.7,1.4-3.3,2.8-5,4.3c-3.3,2.9-6.5,5.8-9.6,8.7
				c-3.1,3-6.2,5.9-9.2,8.9c-3.1,2.9-5.9,6-8.9,8.9c-1.4,1.5-2.8,3-4.3,4.5c-1.5,1.5-2.8,3-4.2,4.5c-1.4,1.5-2.8,3-4.1,4.5
				c-1.4,1.5-2.7,3-4.1,4.5c-2.6,3-5.3,5.9-7.8,8.9c-5.1,6-9.9,11.9-14.4,17.8c-1.1,1.5-2.3,2.9-3.3,4.4c-1.1,1.5-2.1,3-3.2,4.4
				c-2,3-4.1,5.9-6,8.8c-2,2.9-3.8,5.8-5.6,8.7c-0.9,1.4-1.7,2.9-2.6,4.3c-0.8,1.4-1.7,2.8-2.5,4.3c-6.4,11.4-11.7,22.3-15.8,32.4
				c-4.1,10-7.3,19.1-9.5,26.8c-0.6,1.9-1.1,3.7-1.6,5.5c-0.5,1.7-1,3.4-1.4,4.8c-0.4,1.5-0.8,2.9-1.1,4.2c-0.3,1.3-0.7,2.5-0.9,3.6
				c-1,4.3-1.7,6.7-1.7,6.7c-0.3,1.1-1.4,1.7-2.5,1.4C443.3,781.3,442.7,780.7,442.5,780z"/>
		</g>
	</g>
	<g id="XMLID_46_">
		
			<ellipse id="XMLID_50_" transform="matrix(0.9827 -0.185 0.185 0.9827 -107.7546 103.2785)" cx="499.5" cy="629" rx="180.3" ry="297.8"/>
		<polygon id="XMLID_248_" points="373.1,362.2 428.6,340.5 575.4,915.6 529.4,932.8 		"/>
		<g id="XMLID_247_">
			<path id="XMLID_249_" d="M644.3,724.8c-1.9,32.5-7.5,62.8-16.2,89.9c-10.4,32.3-25.3,59.9-44,80.8
				c-19.4,21.7-42.8,36.2-69.5,41.2c-1.7,0.3-3.4,0.6-5.1,0.8c-34.9,4.9-70.4-7-102.9-31.8c-23.3-17.8-45.1-42.1-64-71.6
				c-16.9-26.3-31.5-56.8-42.9-90.2c-7.2-21-13-43.3-17.4-66.5c-2.1-11.2-3.8-22.3-5.1-33.3c-4.9-41.5-4.2-81.4,1.3-117.6
				c4.9-32,13.5-61.1,25.4-86.2c13.3-28,30.6-50.8,51.3-66.6c14.8-11.3,31.2-18.9,49.2-22.3c32.6-6.1,65.9,2.7,97,23.2
				c20.8,13.7,40.6,32.7,58.5,55.9v0c18.1,23.5,34.2,51.3,47.5,82.5c12.7,29.9,22.8,62.8,29.4,97.8
				C644.1,650.2,646.4,688.8,644.3,724.8z"/>
			
				<ellipse id="XMLID_48_" transform="matrix(0.9827 -0.185 0.185 0.9827 -111.2206 96.1366)" cx="459.5" cy="644" rx="141.7" ry="234.1"/>
			
				<ellipse id="XMLID_47_" transform="matrix(0.9827 -0.185 0.185 0.9827 -111.2206 96.1366)" cx="459.5" cy="644" rx="113.6" ry="187.7"/>
			<g id="XMLID_87_">
				
					<ellipse id="XMLID_49_" transform="matrix(0.9685 -0.2491 0.2491 0.9685 -139.7655 114.0343)" cx="380.8" cy="609.4" rx="18.2" ry="25.6"/>
				
					<ellipse id="XMLID_83_" transform="matrix(0.9685 -0.2491 0.2491 0.9685 -123.8465 139.8548)" cx="490.8" cy="559.4" rx="18.2" ry="25.6"/>
				<path id="XMLID_84_" class="st0" d="M420.8,631.9c23.2,10.9,40.8,4.9,51.2-22.6"/>
			</g>
			<g id="XMLID_147_">
				<path id="XMLID_238_" d="M416.2,413.9c-13.9,3.3-28.5,10.3-35.4,15.2l-30.9-51.2c14.8-11.3,36.6-23.2,54.5-26.6L416.2,413.9z"/>
				<path id="XMLID_237_" d="M559.8,430.4L559.8,430.4l-36.6,28c-11.8-13.4-16.5-19.1-33.7-27.3l8-56.6c1.3,0,2.6,0,3.9,0.1
					C522.2,388.2,542,407.2,559.8,430.4z"/>
				<path id="XMLID_236_" d="M636.7,610.6h-40.2c-4.3-23.7-10.5-46.2-19.5-66.8l28.5-32.9c0.6,0.6,1.3,1.2,1.9,1.8
					C620,542.7,630,575.6,636.7,610.6z"/>
				<path id="XMLID_235_" d="M644.3,724.8c-1.9,32.5-7.5,62.8-16.2,89.9l-36.3-35.8c5.3-19.2,9.4-38.7,12-58.6L644.3,724.8z"/>
				<path id="XMLID_234_" d="M584.1,895.4c-19.4,21.7-42.8,36.2-69.5,41.2c-1.7,0.3-3.4,0.6-5.1,0.8l-6.7-63.4
					c15.3-1.5,29.4-7.2,41.6-19.9L584.1,895.4z"/>
				<path id="XMLID_233_" d="M419,850.5l-12.4,55.2c-23.3-17.8-45.1-42.1-64-71.6l37-23.5C392.1,826.9,405.2,840.3,419,850.5z"/>
				<path id="XMLID_239_" d="M331.5,715.2l-31.8,28.6c-7.2-21-13-43.3-17.4-66.5c-2.1-11.2-3.8-22.3-5.1-33.3l40,8
					C321.8,680.6,326.6,701,331.5,715.2z"/>
				<path id="XMLID_241_" d="M337.4,483.3c-5.7,16.8-11.2,32.8-16.3,47.6l-42.6-4.5c4.9-32,13.5-61.1,25.4-86.2L337.4,483.3z"/>
			</g>
		</g>
	</g>
	<g id="XMLID_43_">
		<g id="XMLID_33_">
			<path id="XMLID_107_" class="st1" d="M1125.8,786c0,0,1.4-0.2,4.1-0.5c0.7-0.1,1.4-0.2,2.3-0.3c0.8-0.1,1.8-0.2,2.8-0.4
				c2-0.3,4.3-0.7,6.9-1.2c10.3-2.1,25.3-6.2,42.1-15.4c8.4-4.6,17.1-10.6,25.7-18c1.1-0.9,2.1-1.9,3.2-2.8c1.1-1,2.1-2,3.2-3
				c1-1,2.1-2,3.1-3.1c1-1.1,2-2.2,3.1-3.3c1.1-1.1,2-2.3,3-3.5c1-1.2,2-2.4,3-3.6c1-1.2,1.9-2.5,2.9-3.8c0.5-0.6,1-1.3,1.4-1.9
				c0.5-0.7,0.9-1.3,1.4-2c0.9-1.3,1.9-2.6,2.8-4c0.9-1.4,1.7-2.8,2.6-4.2c0.9-1.4,1.7-2.8,2.5-4.3c0.8-1.5,1.7-2.9,2.5-4.4
				c3.2-6,6-12.4,8.5-19c2.4-6.7,4.4-13.7,6-20.9c1.5-7.3,2.6-14.7,3.2-22.4c0.1-1.9,0.2-3.8,0.3-5.8l0.1-1.4l0-1.5c0-1,0-1.9,0-2.9
				c0-1,0-1.9,0-2.9c0-1-0.1-2-0.1-2.9c0-1-0.1-2-0.1-2.9l-0.1-1.5l0-0.4c0,0.6,0-0.1,0-0.1l-0.1-0.8c-0.1-1.1-0.2-2.2-0.3-3.3
				l-0.1-1.7c-0.1-0.5-0.1-0.9-0.2-1.4c-0.1-0.9-0.3-1.8-0.4-2.7l-0.2-1.4l-0.3-1.5c-0.3-2-0.6-3.9-1.1-5.9c-0.2-1-0.4-2-0.6-2.9
				c-0.2-1-0.5-1.9-0.7-2.9c-1.9-7.8-4.5-15.6-7.7-23.2c-3.2-7.6-7.2-15.1-11.7-22.4c-9-14.5-20.4-28.3-33.8-40.8
				c-13.4-12.5-28.5-23.9-45-34c-33-20.2-71-35.4-111-45.6c-40.1-10.1-82.2-15.2-124.3-15.2c-2.6,0-5.3,0-7.9,0.1l-3.9,0.1l-3.9,0.1
				l-3.9,0.1l-1,0c-0.2,0,0.4,0-0.1,0l-0.5,0l-2.1,0.1l-8.5,0.5c-1.5,0.1-2.6,0.2-3.9,0.3l-3.8,0.3c-2.5,0.2-5,0.4-7.7,0.7l-7.8,0.8
				c-2.6,0.3-5.2,0.7-7.8,1c-20.8,2.6-41.2,6.7-61.2,11.7c-19.9,5.1-39.3,11-58,17.7c-4.7,1.6-9.3,3.4-14,5.1
				c-2.3,0.9-4.6,1.8-6.9,2.7c-2.3,0.9-4.6,1.8-6.8,2.7c-2.3,0.9-4.5,1.8-6.8,2.7c-2.2,0.9-4.5,1.9-6.7,2.8
				c-4.5,1.8-8.9,3.8-13.2,5.7c-35,15.5-67.4,32.9-96.5,52.2c-14.4,9.7-28.2,19.8-40.7,30.3c-6.4,5.2-12.3,10.6-18.3,15.9
				c-5.8,5.4-11.4,10.8-16.7,16.3c-21.4,21.9-38.6,44.5-52.2,66c-13.6,21.5-23.4,42-30.5,59.6c-3.5,8.8-6.5,16.9-8.8,24
				c-0.6,1.8-1.2,3.5-1.7,5.2c-0.5,1.7-1,3.3-1.4,4.8c-0.5,1.5-0.9,3-1.4,4.4c-0.4,1.4-0.8,2.8-1.1,4c-0.7,2.5-1.4,4.8-1.9,6.8
				c-0.5,2-0.9,3.6-1.3,5c-0.7,2.7-1.1,4.1-1.1,4.1h-10c0,0-0.3-1.4-1-4.2c-0.6-2.8-1.6-7-2.4-12.4c-1.8-11-3.7-27.3-3.3-48.5
				c0.5-21.1,3.6-47.2,12.1-76.1c8.4-28.9,22.2-60.7,42.7-92.1c20.3-31.5,47.4-62.5,80.1-90.2c32.7-27.8,71.2-52.3,113.9-70.5
				c21.4-9.1,43.7-16.7,66.6-22.7c23-6,46.5-10.3,70.3-13.4c23.8-3,47.9-4.7,72-5.2c3-0.1,6-0.2,9-0.2l9,0c3,0,6.1,0,9.2,0l4.7,0.1
				c1.5,0,3.2,0,4.5,0.1l8.5,0.3l2.1,0.1l1.5,0l1.1,0l4.5,0.2l4.5,0.2l4.5,0.3c3,0.2,6,0.4,9,0.6c24.1,1.7,48.1,4.8,71.7,9.3
				c23.6,4.5,46.9,10.5,69.5,18.1c45.2,15,88,36.2,124.9,63.9c18.4,13.9,35.3,29.4,50,46.5c7.3,8.5,14.1,17.4,20.2,26.7
				c6.1,9.3,11.5,18.9,16.1,28.7c9.3,19.7,15.3,40.4,17.7,60.8c0.1,1.3,0.3,2.5,0.4,3.8c0.1,1.3,0.2,2.5,0.3,3.8
				c0.2,2.5,0.3,5.1,0.4,7.6l0.1,1.9l0,2c0,1.3,0,2.6,0,3.9c0,0.6,0,1.3,0,1.9l-0.1,1.7c0,1.1-0.1,2.2-0.1,3.3l0,0.8
				c0,0.3,0-0.1,0,0.8l0,0.5l-0.1,1.8c-0.1,1.2-0.2,2.4-0.3,3.6c-0.1,1.2-0.2,2.4-0.3,3.6c-0.2,1.2-0.3,2.4-0.5,3.6
				c-0.2,1.2-0.3,2.4-0.5,3.5l-0.2,1.8l-0.3,1.7c-0.4,2.3-0.8,4.6-1.2,6.9c-1.9,9.1-4.3,17.9-7.3,26.2c-3.1,8.3-6.6,16.2-10.5,23.6
				c-4,7.4-8.3,14.3-12.8,20.7c-4.7,6.3-9.4,12.3-14.5,17.6c-0.6,0.7-1.3,1.3-1.9,2c-0.6,0.7-1.3,1.3-1.9,1.9
				c-1.3,1.3-2.6,2.5-3.8,3.7c-1.3,1.2-2.6,2.3-3.9,3.5c-1.3,1.1-2.6,2.3-3.9,3.3c-1.3,1.1-2.6,2.1-4,3.2c-1.3,1.1-2.7,2-4,3
				c-1.3,0.9-2.6,1.9-4,2.8c-1.3,0.9-2.7,1.7-4,2.6c-10.6,6.7-21,11.6-30.6,15.1c-9.6,3.5-18.6,5.5-26.3,6.8c-1,0.2-1.9,0.3-2.9,0.5
				c-0.9,0.2-1.8,0.3-2.7,0.4c-1.8,0.2-3.5,0.4-5.2,0.5c-1.6,0.2-3.2,0.2-4.7,0.3c-1.5,0.1-2.9,0.1-4.3,0.2c-2.7,0-5.1,0-7.1,0
				c-1,0-1.9,0-2.8-0.1c-0.8-0.1-1.6-0.1-2.3-0.1C1127.2,786.1,1125.8,786,1125.8,786z"/>
		</g>
		<g id="XMLID_31_">
			<path id="XMLID_104_" class="st1" d="M404.5,769.6c0,0-1.3-2.7-3.2-7.7c-0.5-1.3-1.1-2.7-1.6-4.2c-0.6-1.5-1.2-3.2-1.8-5
				c-0.6-1.8-1.3-3.8-2-5.8c-0.8-2-1.3-4.3-1.9-6.8c-1.2-4.9-2.4-10.3-3.5-16.4c-0.3-1.5-0.6-3.1-0.9-4.6c-0.3-1.6-0.4-3.1-0.7-4.7
				c-0.4-3.2-0.8-6.5-1.2-10c-0.2-1.7-0.4-3.5-0.5-5.3c-0.2-1.8-0.3-3.6-0.5-5.4c-0.2-1.8-0.2-3.7-0.3-5.6c-0.1-1.9-0.1-3.8-0.2-5.7
				c-0.2-7.7-0.3-15.9,0.4-24.4c0.6-8.5,1.2-17.4,2.7-26.4c0.7-4.5,1.4-9.1,2.2-13.8c0.8-4.7,2-9.3,3.1-14.1
				c0.5-2.4,1.2-4.7,1.7-7.1c0.3-1.2,0.6-2.4,0.9-3.6l0.5-1.8l0.5-1.8c1.5-4.8,3-9.6,4.6-14.4c0.8-2.4,1.7-4.8,2.5-7.3
				c0.9-2.4,2-4.8,3-7.2c2-4.8,4.2-9.6,6.5-14.4c9.6-18.9,21.7-37.2,35.7-54.4c1.7-2.2,3.4-4.3,5.1-6.5c1.8-2.1,3.6-4.2,5.4-6.4
				c3.6-4.2,7.1-8.5,10.7-12.7c7.5-8.3,14.5-16.8,22-24.9l5.5-6.2l2.8-3.1l2.9-3c3.8-4,7.6-7.9,11.4-11.9c1.9-2,3.9-3.9,5.8-5.8
				c2-1.9,3.9-3.8,5.9-5.7c2-1.9,3.9-3.8,5.9-5.7c2-1.8,4-3.6,6-5.4c15.9-14.6,32.7-27.7,49.4-39.6c4.2-2.9,8.4-5.7,12.6-8.6
				c4.3-2.7,8.5-5.3,12.7-7.9c2.1-1.3,4.1-2.6,6.3-3.8c2.1-1.2,4.2-2.4,6.3-3.6c2.1-1.2,4.2-2.3,6.2-3.5c2.1-1.2,4.1-2.3,6.2-3.4
				c4.2-2.1,8.3-4.2,12.3-6.3c1-0.5,2-1,3-1.5c1-0.5,2-0.9,3.1-1.4c2-0.9,4-1.9,6-2.8c2-0.9,4-1.8,5.9-2.7c1-0.4,2-0.9,2.9-1.3
				c1-0.4,2-0.8,3-1.2c3.9-1.6,7.8-3.1,11.5-4.6c0.9-0.4,1.9-0.7,2.8-1.1c0.9-0.4,1.9-0.7,2.8-1c1.9-0.7,3.7-1.3,5.6-1.9
				c3.7-1.2,7.2-2.5,10.7-3.6c3.5-1.1,7-2.1,10.3-3.1c1.7-0.5,3.3-1,4.9-1.5c1.6-0.5,3.3-0.8,4.9-1.2c3.2-0.8,6.3-1.5,9.2-2.2
				c1.5-0.3,2.9-0.7,4.4-1c1.4-0.3,2.9-0.5,4.3-0.8c2.8-0.5,5.4-1,8-1.4c1.3-0.2,2.5-0.4,3.7-0.7c1.2-0.2,2.4-0.3,3.6-0.5
				c4.6-0.6,8.8-1.1,12.3-1.5c3.6-0.3,6.7-0.5,9.1-0.6c4.9-0.3,7.6-0.4,7.6-0.4s-2.4,1.1-6.9,3.2c-1.1,0.5-2.4,1.1-3.7,1.7
				c-1.4,0.6-2.9,1.2-4.4,2c-3.2,1.6-6.8,3.5-10.8,5.5c-1,0.5-2,1-3.1,1.6c-1,0.6-2.1,1.2-3.2,1.8c-2.2,1.2-4.4,2.5-6.8,3.8
				c-1.2,0.7-2.4,1.3-3.6,2c-1.2,0.7-2.4,1.5-3.7,2.2c-2.5,1.5-5,3.1-7.7,4.7c-2.7,1.6-5.3,3.4-8.1,5.2c-2.7,1.8-5.5,3.7-8.4,5.6
				c-2.9,1.9-5.7,4.1-8.6,6.2c-2.9,2.2-6,4.2-8.9,6.6c-3,2.3-6,4.7-9.1,7c-0.8,0.6-1.5,1.2-2.3,1.8c-0.8,0.6-1.5,1.3-2.3,1.9
				c-1.5,1.3-3.1,2.6-4.6,3.9c-1.6,1.3-3.1,2.6-4.7,3.9c-0.8,0.7-1.6,1.3-2.4,2c-0.8,0.7-1.6,1.4-2.3,2.1c-3.1,2.8-6.3,5.5-9.5,8.4
				c-1.6,1.4-3.2,2.9-4.8,4.4c-1.6,1.5-3.2,3-4.8,4.5c-1.6,1.5-3.2,3-4.8,4.5c-1.6,1.5-3.2,3.1-4.7,4.7c-3.2,3.2-6.3,6.4-9.6,9.5
				c-3.1,3.3-6.3,6.6-9.4,10c-12.6,13.5-25.2,27.6-37.1,42.7c-1.5,1.9-3,3.7-4.5,5.6c-1.5,1.9-2.9,3.8-4.4,5.8
				c-1.5,1.9-2.9,3.8-4.4,5.8c-1.4,1.9-3,3.8-4.3,5.8c-2.8,4-5.6,7.9-8.4,11.9l-2.1,3l-2,3l-4,6.1c-2.6,4.1-5.3,8.1-7.6,12.4
				l-3.6,6.3c-1.2,2.1-2.3,4.2-3.5,6.3c-1.1,2.1-2.1,4.3-3.2,6.5c-1,2.2-2.1,4.3-3.1,6.5c-1,2.2-2.1,4.3-3,6.5
				c-0.9,2.2-1.9,4.4-2.8,6.5c-1.9,4.3-3.7,8.6-5.6,12.9c-1.7,4.3-3.5,8.6-5.3,12.8l-1.4,3.1c-0.5,1-0.9,2.1-1.3,3.1
				c-0.8,2.1-1.7,4.2-2.6,6.2c-1.7,4.1-3.7,8.1-5.5,12.1c-1.8,4-3.6,8-5.5,11.8c-1,1.9-2,3.8-2.9,5.8c-0.9,1.9-1.8,3.9-2.8,5.7
				c-1.9,3.8-3.8,7.5-5.9,11.2c-2,3.7-3.7,7.4-5.7,11c-1,1.8-1.9,3.6-2.9,5.4c-0.9,1.8-2,3.5-2.8,5.3c-1.7,3.6-3.6,7.1-5.4,10.5
				c-3.8,6.8-7,13.7-10.5,20.2c-3.6,6.5-6.6,12.9-9.8,18.9c-1.6,3-3.3,6-4.7,8.9c-0.7,1.5-1.5,2.9-2.2,4.3c-0.7,1.4-1.5,2.8-2.2,4.2
				c-6,11.1-10.9,20.7-15.6,28.9c-0.6,1-1.2,2-1.7,3c-0.6,1-1.1,2-1.6,3c-1,1.9-2,3.8-2.9,5.4c-0.9,1.7-1.8,3.2-2.6,4.7
				c-0.8,1.4-1.6,2.7-2.2,3.9c-2.7,4.6-4.4,7.1-4.4,7.1c-1.8,2.6-5.4,3.3-8,1.5C405.6,771.3,404.9,770.5,404.5,769.6z"/>
		</g>
		<g id="XMLID_32_">
			<path id="XMLID_101_" class="st1" d="M404.5,769.9c0,0-1.4-2.2-3.7-6.3c-1.1-2.1-2.3-4.9-3.7-8.3c-1.2-3.3-2.6-7.1-3.7-11.5
				c-2.3-8.8-4.1-19.8-4-32.7c0-6.4,0.6-13.2,1.5-20.4c0.6-3.5,1.1-7.3,2-10.9c0.4-1.9,0.8-3.7,1.3-5.6c0.5-1.9,1-3.8,1.6-5.7
				c4.5-15.2,11.5-31,21-46.1c1.2-1.9,2.4-3.8,3.7-5.6c1.3-1.8,2.5-3.8,3.9-5.6c2.7-3.6,5.5-7.3,8.5-10.8c6-7,12.6-13.7,19.8-19.7
				c7.2-6,14.9-11.6,23.1-16.5c8.2-4.9,16.7-9.3,25.4-13.3c17.4-8,35.2-14.9,52.7-21.6c8.7-3.4,17.5-6.5,26.3-9.4
				c4.4-1.5,8.8-2.8,13.2-4.1c4.4-1.2,8.8-2.6,13.2-3.7c2.2-0.6,4.4-1.1,6.6-1.7c2.2-0.5,4.4-1.1,6.5-1.6c4.3-1.1,8.7-1.9,13-2.9
				c8.6-1.8,17.2-3.2,25.6-4.5c16.9-2.4,33.2-3.9,48.7-4.5c15.5-0.7,30-0.6,43.4-0.1c13.4,0.5,25.6,1.6,36.3,2.8
				c2.7,0.3,5.3,0.6,7.8,0.9c2.5,0.3,4.9,0.7,7.2,1c4.6,0.6,8.9,1.4,12.7,2c3.8,0.6,7.2,1.3,10.2,1.9c2.9,0.5,5.4,1.1,7.5,1.6
				c4,0.9,6.2,1.4,6.2,1.4s-2.1,0.5-6.2,1.5c-4,1-9.8,2.4-17.3,4.1c-3.7,0.9-7.8,1.9-12.2,3.1c-2.2,0.6-4.5,1.1-6.9,1.7
				c-2.4,0.6-4.8,1.3-7.4,2c-10.1,2.7-21.5,5.9-33.7,9.6c-12.2,3.7-25.3,7.9-38.9,12.7c-13.6,4.8-27.7,10.2-41.9,16.1
				c-14.3,5.9-28.7,12.2-43.1,19.2c-3.6,1.7-7.1,3.5-10.7,5.3c-3.5,1.9-7.1,3.6-10.6,5.6c-7,3.8-13.9,7.8-20.6,11.9l-5,3.2
				c-1.6,1.1-3.3,2.2-4.9,3.3c-3.2,2.2-6.4,4.6-9.4,7c-6.2,4.8-11.9,9.9-17.5,15c-5.5,5.1-10.8,10.4-15.9,15.3
				c-1.3,1.2-2.5,2.5-3.8,3.7c-1.2,1.2-2.5,2.4-3.8,3.6c-1.3,1.2-2.5,2.4-3.8,3.5c-1.2,1.2-2.5,2.3-3.7,3.4
				c-5,4.5-9.9,8.8-14.7,12.8c-4.9,4.1-9.7,8-14.3,11.9c-2.3,1.9-4.5,3.9-6.8,5.8c-2.1,2-4.5,3.8-6.5,5.7
				c-4.3,3.8-8.3,7.6-12.3,11.3c-4,3.7-7.6,7.5-11.2,11.1c-3.5,3.7-6.9,7.3-10,10.9c-6.3,7.1-11.7,14.1-16.2,20.2
				c-2.3,3-4.3,5.9-6.1,8.5c-0.9,1.2-1.7,2.4-2.4,3.5c-0.7,1.1-1.5,2-2.1,3c-2.4,4-4,6.1-4,6.1c-2,2.7-5.8,3.3-8.5,1.4
				C405.4,771,404.9,770.5,404.5,769.9z"/>
		</g>
		<g id="XMLID_34_">
			<path id="XMLID_81_" class="st1" d="M1167.8,524.9c0,0-0.1-0.4-0.2-1.3c-0.1-0.8-0.3-2.1-0.7-3.6c-0.7-3.1-2.1-7.6-5-12.6
				c-2.9-5-7.3-10.5-13.3-15.8c-3-2.7-6.4-5.3-10.1-7.8c-3.7-2.5-7.8-5-12.1-7.3c-4.3-2.4-9-4.6-13.9-6.7c-4.9-2.1-10-4.2-15.4-6.1
				c-5.4-1.9-10.9-3.7-16.7-5.4c-5.8-1.7-11.7-3.3-17.8-4.7c-12.1-2.9-24.8-5.4-37.8-7.5c-13-2.1-26.2-3.7-39.6-5
				c-26.6-2.6-53.4-3.7-78.4-3.8c-25-0.1-48.4,0.7-68.3,1.9c-10,0.6-19.1,1.3-27.2,2c-8.1,0.7-15.1,1.4-20.9,2
				c-5.8,0.6-10.3,1.1-13.4,1.5c-3.1,0.4-4.7,0.5-4.7,0.5c-27.6,3.2-52.6-16.7-55.7-44.3s16.7-52.6,44.3-55.7
				c3.8-0.4,7.5-0.4,11.1,0l0.3,0c0,0,1.8,0.2,5.1,0.6c3.3,0.4,8.3,1,14.5,1.7c6.2,0.8,13.8,1.8,22.4,3c8.7,1.3,18.4,2.7,29,4.5
				c21.2,3.6,45.8,8.3,71.8,14.4c26.1,6.2,53.6,13.7,80.7,22.8c13.5,4.5,27,9.5,40,14.7c13,5.3,25.7,10.9,37.7,16.9
				c6,3,11.9,6.1,17.5,9.3c5.7,3.1,11.1,6.4,16.3,9.8c5.2,3.3,10.2,6.7,14.9,10.2c4.7,3.5,9.1,7,13.2,10.6
				c4.1,3.6,7.8,7.2,11.2,10.9c3.4,3.7,6.4,7.3,8.9,10.9c5.1,7.2,8.5,14.2,10.3,20.3c1.9,6,2.2,10.9,2.2,14.2c0,1.6-0.1,2.9-0.2,3.7
				C1167.9,524.5,1167.8,524.9,1167.8,524.9z"/>
		</g>
		<g id="XMLID_35_">
			<path id="XMLID_79_" class="st1" d="M404.5,754.8c0,0-1.4-3.5-3.6-10c-0.6-1.6-1.1-3.6-1.7-5.7c-0.6-2.1-1.2-4.5-1.8-7
				c-0.6-2.5-1.1-5.2-1.7-8.1c-0.3-1.5-0.6-3-0.9-4.5c-0.2-1.5-0.5-3.1-0.7-4.8c-1.9-13.2-2.9-29.5-1.5-48.4
				c0.2-2.4,0.4-4.7,0.6-7.2c0.2-2.4,0.6-4.9,0.9-7.4c0.3-2.5,0.7-5,1.1-7.6c0.5-2.5,0.9-5.1,1.4-7.7c0.9-5.3,2.3-10.5,3.6-16
				c0.7-2.7,1.5-5.4,2.3-8.2c0.8-2.8,1.6-5.6,2.5-8.3c0.9-2.8,1.9-5.6,2.8-8.4c1-2.8,2.1-5.6,3.2-8.5c0.6-1.4,1.1-2.9,1.7-4.3
				c0.6-1.4,1.2-2.8,1.8-4.2c1.2-2.8,2.5-5.7,3.8-8.6c5.4-11.4,11.5-22.9,18.5-34.3c7.1-11.3,14.9-22.6,23.6-33.5
				c8.8-10.8,18.4-21.2,28.8-31.1c10.4-9.8,21.7-19,33.6-27.6c11.9-8.6,24.3-16.4,37.1-23.8c25.5-14.8,52.1-27.9,78.6-40.2
				c13.2-6.2,26.7-11.9,40.1-17.3c13.5-5.3,27-10.3,40.5-14.8c27-9,53.9-16.3,80.2-21.9c26.3-5.5,51.9-9.5,76.2-12.3
				c6.1-0.7,12.1-1.3,18-1.8c5.9-0.5,11.7-1,17.4-1.4c5.7-0.3,11.3-0.7,16.9-1c5.5-0.2,10.9-0.4,16.2-0.7c5.3-0.2,10.5-0.3,15.5-0.4
				c5.1-0.1,10,0,14.8,0c4.8,0,9.5,0.1,14.1,0.2c2.3,0,4.5,0.1,6.7,0.1c2.2,0,4.4,0.2,6.5,0.3c17.1,0.6,32,1.8,44.2,2.9
				c6.1,0.5,11.5,1.2,16.3,1.7c4.7,0.5,8.7,1,12,1.5c6.5,0.9,9.9,1.4,9.9,1.4s-3.5,0.5-9.9,1.5c-6.5,0.9-15.9,2.5-27.9,4.4
				c-6,1-12.6,2.1-19.8,3.5c-3.6,0.6-7.3,1.3-11.2,2c-3.9,0.8-7.8,1.5-12,2.4c-4.1,0.8-8.4,1.7-12.7,2.6c-4.4,0.9-8.8,1.8-13.4,2.9
				c-9.2,2-18.7,4.3-28.7,6.7c-5,1.2-10,2.5-15.2,3.8c-5.1,1.4-10.4,2.8-15.7,4.2c-5.3,1.5-10.7,3-16.1,4.5
				c-2.7,0.8-5.4,1.6-8.2,2.4c-2.8,0.8-5.5,1.6-8.3,2.5c-22.2,6.9-45.4,14.7-68.8,23.7c-2.9,1.1-5.9,2.3-8.8,3.4
				c-2.9,1.2-5.9,2.3-8.8,3.5c-5.9,2.4-11.8,4.8-17.7,7.3c-11.8,5-23.7,10.3-35.5,15.8c-5.9,2.8-11.8,5.6-17.6,8.6
				c-5.9,2.9-11.6,6-17.5,9c-11.5,6.2-23,12.7-34.1,19.5c-2.8,1.7-5.5,3.5-8.3,5.2l-4.1,2.6c-1.4,0.9-2.7,1.8-4,2.7
				c-2.7,1.8-5.3,3.7-8,5.5c-2.6,1.9-5.2,3.8-7.8,5.8c-10.3,7.8-20.3,15.8-29.7,24.2c-18.9,16.7-36.1,33.9-52.7,50
				c-8.2,8.1-16.2,16.1-24.1,23.9c-7.7,7.9-15.2,15.6-22.4,23.3c-7,7.8-13.8,15.4-20.1,23.1c-1.6,1.9-3.1,3.8-4.6,5.7
				c-0.8,1-1.5,1.9-2.3,2.8c-0.7,1-1.5,1.9-2.2,2.9c-1.5,1.9-2.9,3.8-4.4,5.7c-1.4,1.9-2.8,3.8-4.2,5.6c-0.7,0.9-1.4,1.9-2.1,2.8
				c-0.7,0.9-1.3,1.9-2,2.8c-1.3,1.9-2.6,3.7-3.9,5.5c-1.3,1.9-2.5,3.7-3.7,5.5c-0.6,0.9-1.3,1.8-1.9,2.7c-0.6,0.9-1.2,1.8-1.7,2.7
				c-1.1,1.8-2.3,3.6-3.5,5.4c-1.1,1.8-2.2,3.6-3.3,5.3c-2.2,3.5-4.2,7-6.2,10.4c-7.9,13.6-14.2,26.2-19.2,37
				c-0.6,1.4-1.3,2.7-1.9,4c-0.5,1.3-1.1,2.6-1.7,3.8c-1.1,2.4-2.2,4.8-3.1,6.9c-0.9,2.2-1.8,4.2-2.6,6c-0.8,1.9-1.6,3.5-2.2,5.2
				c-2.5,6.4-4,9.9-4,9.9c-1.2,2.7-4.5,4-7.2,2.7C406,757.1,405,756,404.5,754.8z"/>
		</g>
		<g id="XMLID_36_">
			<path id="XMLID_76_" class="st1" d="M419.5,770.2c0,0-0.4-0.5-1.1-1.5c-0.4-0.5-0.8-1.1-1.3-1.8c-0.5-0.7-1.1-1.6-1.7-2.5
				c-0.6-1-1.3-2-2-3.2c-0.7-1.2-1.5-2.5-2.3-3.9c-1.6-2.8-3.5-6-5.3-9.6c-1.8-3.7-3.8-7.8-5.8-12.2c-2-4.5-4-9.4-5.9-14.6
				c-1.9-5.2-3.8-10.7-5.6-16.6c-1.8-5.9-3.3-12.1-4.9-18.6c-0.4-1.6-0.7-3.3-1.1-4.9c-0.3-1.7-0.6-3.3-1-5
				c-0.7-3.4-1.2-6.9-1.8-10.4c-0.5-3.5-1.1-7.1-1.5-10.8c-0.4-3.7-0.8-7.4-1.2-11.2c-0.7-7.5-1-15.4-1-23.3
				c0-7.9,0.6-16.1,1.5-24.3c0.6-4.1,1.2-8.2,2-12.4c0.8-4.1,1.6-8.3,2.7-12.5c1.1-4.2,2.2-8.3,3.4-12.5c0.6-2.1,1.3-4.2,1.9-6.3
				c0.7-2.1,1.4-4.2,2-6.3c2.7-8.4,5.8-16.8,8.6-25.2c0.7-2.1,1.5-4.2,2.2-6.3l2.2-6.3c0.7-2.1,1.4-4.2,2.1-6.3l2.2-6.3
				c5.6-16.9,12.1-33.6,19.2-49.7c7.1-16.1,15.3-31.6,24.1-46c1.1-1.8,2.2-3.6,3.4-5.3c0.6-0.9,1.1-1.8,1.7-2.6
				c0.6-0.9,1.2-1.7,1.8-2.6c2.3-3.5,4.7-6.8,7-10.1c4.9-6.5,9.6-12.9,14.7-18.8c2.5-3,4.9-5.9,7.5-8.6c2.6-2.7,5.1-5.5,7.6-8.1
				c5.3-5.1,10.2-10.1,15.4-14.4c1.3-1.1,2.5-2.2,3.8-3.3c0.6-0.5,1.2-1.1,1.8-1.6c0.6-0.5,1.3-1,1.9-1.5c2.5-2,5-3.9,7.4-5.7
				c0.6-0.5,1.2-0.9,1.8-1.4c0.6-0.4,1.2-0.9,1.9-1.3c1.2-0.8,2.4-1.7,3.6-2.5c2.4-1.6,4.6-3.2,7-4.6c2.3-1.4,4.6-2.7,6.7-4
				c1.1-0.6,2.1-1.3,3.2-1.9c1-0.6,2.1-1.1,3.1-1.7c2.1-1,4.1-2,5.9-3c1.9-0.9,3.7-1.9,5.4-2.6c3.5-1.5,6.6-2.8,9.3-3.9
				c2.7-1.1,5.1-1.8,7.1-2.5c3.8-1.3,5.9-1.9,5.9-1.9s-1.5,1.5-4.3,4.4c-0.7,0.7-1.5,1.5-2.3,2.4c-0.9,0.9-1.8,1.7-2.8,2.8
				c-1.9,2.1-4.1,4.6-6.6,7.2c-4.8,5.5-10.4,12.3-16.2,20.3c-0.8,1-1.4,2.1-2.2,3.1c-0.7,1.1-1.4,2.1-2.2,3.2
				c-0.7,1.1-1.5,2.2-2.2,3.3c-0.4,0.6-0.8,1.1-1.1,1.7c-0.4,0.6-0.7,1.2-1.1,1.8c-1.4,2.3-2.9,4.7-4.4,7.2
				c-0.4,0.6-0.8,1.2-1.1,1.8c-0.4,0.6-0.7,1.3-1.1,1.9c-0.7,1.3-1.4,2.6-2.2,3.9c-3,5.1-5.7,10.8-8.6,16.4c-2.7,5.8-5.5,11.7-8,18
				c-1.3,3.1-2.6,6.2-3.8,9.5c-1.2,3.2-2.4,6.5-3.7,9.8c-1.1,3.4-2.2,6.8-3.4,10.1c-0.3,0.8-0.6,1.7-0.9,2.5
				c-0.3,0.9-0.5,1.7-0.8,2.6c-0.5,1.7-1.1,3.5-1.6,5.2c-4.3,14-8.2,28.5-11.5,43.5c-3.3,15-6.3,30.3-8.4,45.9
				c-0.3,1.9-0.6,3.9-0.8,5.8c-0.2,2-0.4,3.9-0.6,5.9c-0.3,3.9-0.7,7.8-0.8,11.8c-0.3,7.9-0.5,15.7-0.4,23.6c0,3.9,0,7.8,0,11.7
				c0.1,3.9,0.1,7.7,0,11.5c-0.1,3.8-0.2,7.6-0.3,11.3c-0.2,3.7-0.5,7.4-0.8,11.1c-0.3,3.7-0.7,7.3-1.2,10.9
				c-0.5,3.6-1.1,7.1-1.7,10.7c-0.6,3.5-1.3,7-2,10.5c-0.3,1.7-0.8,3.4-1.2,5.1c-0.4,1.7-0.7,3.4-1.1,5.1
				c-1.5,6.8-3.3,13.3-4.8,19.7c-0.9,3.2-1.7,6.4-2.6,9.5c-0.9,3.1-1.8,6.2-2.7,9.2c-1.8,6-3.6,11.8-5.6,17.3
				c-1.9,5.5-3.7,10.8-5.7,15.8c-2,5-3.7,9.6-5.6,13.9c-1.8,4.3-3.6,8.3-5.4,11.9c-1.7,3.7-3.3,7-4.7,9.9c-0.8,1.4-1.4,2.8-2.1,4
				c-0.6,1.2-1.3,2.3-1.8,3.3c-0.5,1-1.1,1.9-1.5,2.6c-0.4,0.8-0.8,1.4-1.2,1.9c-0.6,1-1,1.6-1,1.6c-1.8,2.8-5.5,3.7-8.3,1.9
				C420.6,771.3,420,770.8,419.5,770.2z"/>
		</g>
		<g id="XMLID_37_">
			<path id="XMLID_74_" class="st1" d="M404.9,753c0,0-0.5-2.6-1.2-7.4c-0.1-1.2-0.3-2.5-0.5-4c-0.2-1.5-0.3-3-0.5-4.7
				c-0.1-0.4-0.1-0.9-0.1-1.3c0-0.5,0-0.9,0-1.4c0-0.9,0-1.9,0-2.9c0-2,0-4.2,0-6.5c0.1-2.3,0.1-4.7,0.3-7.3c0.2-2.5,0.4-5,0.7-7.7
				c0.3-2.7,0.6-5.5,1-8.4c0.2-1.5,0.4-2.9,0.7-4.4c0.3-1.5,0.5-3,0.8-4.5c0.3-1.5,0.6-3.1,0.9-4.6c0.3-1.6,0.7-3.2,1-4.8
				c0.3-1.6,0.8-3.2,1.3-4.8c0.5-1.6,0.9-3.3,1.4-4.9c1-3.3,2-6.8,3.2-10.2c1.2-3.4,2.5-6.9,3.9-10.4c0.7-1.8,1.4-3.6,2.1-5.4
				c0.8-1.8,1.6-3.5,2.4-5.3c1.6-3.6,3.4-7.2,5.2-10.9c1.9-3.6,3.9-7.2,6-10.8c1-1.8,2.1-3.7,3.2-5.5c1.1-1.8,2.3-3.6,3.5-5.4
				c1.2-1.8,2.4-3.6,3.6-5.4c1.2-1.8,2.4-3.7,3.7-5.5c2.6-3.5,5.3-7.1,8.2-10.6c1.4-1.8,2.8-3.5,4.3-5.2c1.5-1.7,3.1-3.4,4.6-5.1
				c1.6-1.7,3.2-3.4,4.8-5c0.8-0.8,1.6-1.7,2.4-2.5c0.9-0.8,1.7-1.6,2.6-2.4c13.6-12.9,29.8-23.6,46.6-33.4
				c4.2-2.4,8.5-4.8,12.8-7.2c4.3-2.4,8.7-4.5,12.9-6.9c2.1-1.1,4.3-2.3,6.5-3.4l6.5-3.3c2.2-1.1,4.3-2.2,6.5-3.4
				c2.2-1.1,4.3-2.3,6.5-3.3c4.3-2.2,8.7-4.3,13-6.5c2.1-1.1,4.4-2.1,6.5-3.1c2.2-1,4.4-2,6.6-3c2.2-1,4.4-2,6.5-3
				c2.2-1,4.4-1.9,6.6-2.8c4.4-1.8,8.8-3.6,13.2-5.4c4.4-1.6,8.9-3.2,13.3-4.8c4.4-1.7,8.8-3,13.2-4.4c2.2-0.7,4.4-1.4,6.6-2.1
				c2.2-0.7,4.4-1.4,6.6-1.9c4.4-1.2,8.7-2.3,13.1-3.5c4.3-1.2,8.7-2,12.9-3c4.3-0.9,8.5-1.9,12.7-2.6c4.2-0.7,8.4-1.4,12.5-2.1
				c2.1-0.3,4.1-0.7,6.1-1c2-0.3,4.1-0.5,6.1-0.8c4-0.5,8-1,11.9-1.5c3.9-0.5,7.8-0.7,11.6-1c3.8-0.3,7.5-0.6,11.2-0.8
				c3.7-0.1,7.3-0.3,10.8-0.4c3.5-0.1,6.9-0.3,10.3-0.3c3.4,0,6.6,0.1,9.8,0.1c3.2,0,6.3,0.1,9.3,0.1c3,0.1,5.9,0.3,8.8,0.5
				c2.8,0.2,5.6,0.3,8.2,0.5c1.3,0.1,2.6,0.2,3.9,0.2c1.3,0.1,2.5,0.2,3.7,0.4c4.9,0.5,9.3,1,13.3,1.5c4,0.4,7.6,1,10.7,1.5
				c3.1,0.5,5.7,0.9,7.8,1.3c4.2,0.7,6.5,1.2,6.5,1.2s-2.2,0.6-6.4,1.7c-2.1,0.6-4.6,1.2-7.6,2c-3,0.8-6.4,1.6-10.3,2.7
				c-7.6,2.2-16.9,4.7-27.3,8c-2.6,0.8-5.3,1.6-8,2.5c-2.7,0.9-5.5,1.9-8.4,2.9c-2.9,1-5.8,2-8.8,3c-3,1.1-6,2.2-9.1,3.4
				c-3.1,1.1-6.3,2.3-9.5,3.5c-3.2,1.3-6.4,2.6-9.7,3.9c-3.3,1.3-6.6,2.6-10,4c-3.3,1.5-6.7,2.9-10.1,4.4c-1.7,0.7-3.4,1.5-5.2,2.2
				c-1.7,0.8-3.4,1.6-5.2,2.4c-3.4,1.6-6.9,3.2-10.5,4.9c-1.8,0.8-3.5,1.7-5.2,2.6c-1.8,0.9-3.5,1.8-5.3,2.6
				c-3.5,1.8-7.1,3.5-10.6,5.5c-3.5,1.9-7.1,3.8-10.7,5.7c-1.8,0.9-3.5,2-5.3,3c-1.8,1-3.6,2-5.3,3c-7.2,3.9-14.2,8.3-21.3,12.5
				c-14.1,8.8-28,18.1-41.3,28.2c-13.2,10.2-25.3,21.6-36.3,33.7c-2.8,2.9-5.4,6.1-8.1,9c-1.4,1.5-2.7,3-4,4.4
				c-1.3,1.5-2.6,3-3.9,4.4c-2.6,2.9-5.3,5.7-7.9,8.5c-2.6,2.8-5.2,5.5-7.9,8.2l-2,1.9c-0.6,0.7-1.3,1.3-2,2c-1.3,1.3-2.7,2.6-4,3.9
				c-2.7,2.5-5.4,5-8.1,7.4c-2.6,2.4-5.4,4.8-8.1,7.1c-2.6,2.3-5.3,4.7-7.9,6.9c-10.7,9.2-20.9,17.9-30.2,25.9c-2.4,2-4.7,4.1-7.1,6
				c-1.2,1-2.3,2-3.4,3c-1.1,1-2.3,1.9-3.4,2.9c-2.3,1.9-4.5,3.8-6.6,5.6c-1.1,0.9-2.1,1.8-3.1,2.7c-1.1,0.9-2.1,1.8-3.1,2.6
				c-2,1.8-4.2,3.4-6.1,5.1c-1.9,1.7-3.8,3.3-5.6,4.8c-1.9,1.5-3.7,3-5.4,4.5c-1.6,1.4-3.3,2.8-4.8,4c-1.6,1.3-3.1,2.5-4.5,3.7
				c-0.7,0.6-1.4,1.2-2.1,1.7c-0.3,0.3-0.7,0.6-1,0.8c-0.3,0.3-0.6,0.6-1,0.9c-1.3,1.1-2.5,2.2-3.6,3.1c-1.1,1-2.2,1.8-3.1,2.6
				c-3.7,3-6,4.6-6,4.6c-2.7,1.9-6.4,1.2-8.3-1.5C405.3,754.6,405,753.8,404.9,753z"/>
		</g>
		<g id="XMLID_38_">
			<path id="XMLID_72_" class="st1" d="M1316.4,638.9c0,0-0.2-1.8-0.4-5.2c-0.1-1.7-0.3-3.8-0.5-6.2c-0.1-0.6-0.1-1.2-0.2-1.9
				c-0.1-0.6-0.2-1.3-0.3-2c-0.2-1.4-0.4-2.8-0.7-4.4c-0.5-3.1-0.9-6.5-1.8-10.2c-0.4-1.8-0.8-3.8-1.2-5.7c-0.2-1-0.4-2-0.7-3
				c-0.3-1-0.6-2-0.9-3.1c-0.6-2.1-1.2-4.2-1.8-6.5c-0.3-1.1-0.6-2.2-1-3.3c-0.4-1.1-0.8-2.2-1.2-3.4c-0.8-2.3-1.6-4.6-2.5-7
				c-0.9-2.4-2-4.8-3-7.2c-0.5-1.2-1-2.5-1.5-3.7c-0.3-0.6-0.5-1.3-0.8-1.9c-0.3-0.6-0.6-1.2-0.9-1.8c-1.2-2.5-2.4-5-3.7-7.6
				c-0.3-0.6-0.6-1.3-0.9-1.9c-0.4-0.6-0.7-1.3-1.1-1.9c-0.7-1.3-1.4-2.5-2.2-3.8c-1.5-2.5-2.8-5.2-4.5-7.7c-1.6-2.5-3.3-5.1-5-7.7
				c-1.7-2.6-3.6-5.1-5.5-7.7c-0.9-1.3-1.8-2.6-2.8-3.9c-1-1.2-2-2.5-3-3.8c-1-1.3-2-2.5-3-3.8l-1.5-1.9c-0.5-0.6-1.1-1.2-1.6-1.8
				c-2.2-2.4-4.4-4.9-6.6-7.4c-2.3-2.4-4.7-4.8-7.1-7.2c-1.2-1.2-2.3-2.4-3.6-3.6c-1.2-1.2-2.5-2.3-3.8-3.5
				c-2.5-2.3-4.9-4.7-7.6-6.9c-2.6-2.2-5.3-4.4-7.9-6.7c-2.8-2.1-5.5-4.2-8.3-6.3c-2.7-2.2-5.7-4.1-8.5-6.1c-2.9-2-5.7-4-8.7-5.8
				c-3-1.8-5.9-3.7-8.9-5.5c-3-1.7-6.1-3.4-9.1-5.1c-3-1.7-6.2-3.2-9.3-4.7c-3.1-1.5-6.2-3.1-9.4-4.4c-3.1-1.4-6.3-2.7-9.4-4.1
				c-3.1-1.3-6.3-2.5-9.4-3.7c-1.6-0.6-3.1-1.3-4.6-1.9c-1.6-0.6-3.1-1.2-4.7-1.7c-3.1-1.1-6.2-2.3-9.2-3.5
				c-12.3-4.4-24.1-8.7-35.6-12.3c-2.9-0.9-5.7-1.8-8.5-2.7c-2.8-0.8-5.6-1.6-8.3-2.4c-2.7-0.8-5.4-1.7-8.1-2.3
				c-2.7-0.7-5.3-1.4-7.8-2.1c-5.1-1.5-10.1-2.6-14.8-3.7c-2.4-0.6-4.7-1.2-6.9-1.7c-2.3-0.5-4.4-1-6.6-1.4c-8.5-2-16-3.4-22.2-4.8
				c-3.1-0.7-5.9-1.2-8.3-1.7c-2.4-0.5-4.5-0.9-6.2-1.3c-3.4-0.7-5.2-1.2-5.2-1.2l-0.1,0c-0.8-0.2-1.2-1-1-1.7
				c0.1-0.6,0.6-0.9,1.1-1.1c0,0,1.8-0.4,5.2-1c1.7-0.3,3.8-0.7,6.3-1c2.5-0.4,5.4-0.9,8.6-1.1c6.4-0.6,14.3-1.4,23.4-1.4
				c2.3-0.1,4.6-0.1,7-0.1c2.4,0,4.9,0.1,7.4,0.2c5.1,0.2,10.5,0.3,16,1c5.6,0.5,11.4,1.1,17.3,2c3,0.5,6,1,9.1,1.5
				c3.1,0.5,6.2,1.2,9.3,1.9c12.6,2.5,25.7,6.4,38.9,11.3c13.1,5.2,26.3,11.4,39.1,18.9c3.3,1.8,6.4,3.8,9.5,5.7
				c3.2,2,6.4,3.8,9.4,6c3.1,2.1,6.2,4.2,9.3,6.2c3.1,2.2,6.1,4.4,9.1,6.6c3.1,2.1,6,4.5,8.9,6.8c2.9,2.3,5.9,4.6,8.7,7.1
				c2.8,2.4,5.6,4.9,8.4,7.3c2.7,2.6,5.4,5.1,8,7.7c2.7,2.5,5.1,5.3,7.7,7.9c1.3,1.3,2.5,2.6,3.7,4c1.2,1.3,2.4,2.8,3.5,4.1
				c2.3,2.8,4.7,5.5,6.9,8.2c2.2,2.8,4.3,5.6,6.4,8.4c0.5,0.7,1.1,1.4,1.6,2.1l1.5,2.2c1,1.4,1.9,2.9,2.9,4.3c1,1.4,1.9,2.8,2.9,4.2
				c0.9,1.4,1.8,2.9,2.7,4.3c1.7,2.9,3.5,5.7,5.1,8.6c1.5,2.9,3,5.8,4.5,8.6c1.6,2.8,2.8,5.7,4.1,8.5c0.6,1.4,1.3,2.8,1.9,4.2
				c0.3,0.7,0.6,1.4,0.9,2.1c0.3,0.7,0.5,1.4,0.8,2.1c1.1,2.8,2.1,5.6,3.2,8.3c0.3,0.7,0.5,1.3,0.8,2c0.2,0.7,0.4,1.4,0.7,2
				c0.4,1.4,0.9,2.7,1.3,4c0.4,1.3,0.8,2.6,1.2,3.9c0.4,1.3,0.9,2.6,1.1,3.9c0.6,2.6,1.2,5.1,1.9,7.6c0.3,1.2,0.6,2.4,0.9,3.6
				c0.3,1.2,0.5,2.4,0.7,3.6c0.4,2.4,0.8,4.6,1.2,6.8c0.2,1.1,0.4,2.2,0.6,3.3c0.1,1.1,0.2,2.1,0.4,3.2c0.2,2.1,0.5,4.1,0.7,6
				c0.5,3.8,0.6,7.4,0.7,10.7c0.1,1.6,0.1,3.1,0.2,4.6c0,0.7,0.1,1.4,0.1,2.1c0,0.7,0,1.3,0,1.9c-0.1,2.5-0.1,4.6-0.1,6.3
				c-0.1,3.4-0.1,5.2-0.1,5.2c0,0.8-0.7,1.4-1.4,1.4C1317.1,640.1,1316.5,639.6,1316.4,638.9z"/>
		</g>
		<g id="XMLID_39_">
			<path id="XMLID_70_" class="st1" d="M474.5,814c0,0-0.3-0.4-1-1.2c-0.3-0.4-0.7-0.9-1.2-1.4c-0.5-0.6-1-1.2-1.5-2
				c-0.6-0.7-1.2-1.6-1.9-2.5c-0.6-0.9-1.4-1.9-2.1-3c-0.4-0.5-0.7-1.1-1.1-1.7c-0.4-0.6-0.7-1.3-1.1-2c-0.8-1.4-1.4-2.9-2.2-4.5
				c-0.8-1.6-1.6-3.3-2.3-5.2c-0.4-0.9-0.8-1.9-1.1-2.8c-0.3-0.9-0.7-1.9-1-2.9c-0.7-2-1.3-4-2-6.2c-0.3-1.1-0.6-2.2-0.9-3.3
				c-0.3-1.1-0.6-2.3-0.8-3.4c-0.2-1.2-0.5-2.4-0.7-3.6c-0.2-1.2-0.4-2.4-0.6-3.7c-0.4-2.5-0.9-5.1-1-7.8c-0.1-1.3-0.2-2.7-0.3-4
				c-0.1-1.4-0.1-2.8-0.2-4.2c-0.2-2.8-0.1-5.7,0-8.6c0.1-2.9,0.3-5.9,0.6-9c0.3-3,0.8-6.1,1.3-9.2c0.3-1.6,0.6-3.1,0.8-4.7
				c0.3-1.6,0.7-3.1,1.1-4.7c0.8-3.2,1.6-6.4,2.6-9.6c4.1-12.7,10-25.7,18.7-37.2c1.1-1.5,2.2-2.9,3.4-4.2c1.2-1.4,2.4-2.7,3.6-4.1
				c1.2-1.3,2.5-2.7,3.7-4c1.3-1.3,2.7-2.5,4-3.8c1.4-1.2,2.7-2.5,4.2-3.7c1.4-1.2,2.8-2.4,4.3-3.5c2.9-2.3,5.9-4.5,8.9-6.7
				c12.3-8.5,24.9-16,37.3-23.5c12.4-7.3,25.1-13.8,37.9-19.3c3.2-1.3,6.5-2.5,9.6-3.8c1.6-0.6,3.2-1.2,4.8-1.8
				c1.6-0.5,3.2-1,4.8-1.6c3.2-1,6.4-2.1,9.6-3c3.2-0.8,6.4-1.7,9.5-2.5c3.1-0.8,6.3-1.4,9.4-2c3.1-0.6,6.2-1.2,9.3-1.7
				c3.1-0.4,6.1-0.9,9.1-1.3c1.5-0.2,3-0.4,4.5-0.6c1.5-0.1,3-0.3,4.4-0.4c2.9-0.3,5.8-0.5,8.6-0.7c2.8-0.2,5.6-0.2,8.4-0.3
				c2.7-0.1,5.4-0.1,8-0.2c2.6,0,5.2,0.1,7.7,0.2c2.5,0.1,5,0.1,7.4,0.3c2.4,0.2,4.7,0.4,7,0.6c2.3,0.2,4.5,0.4,6.6,0.6
				c2.1,0.2,4.2,0.6,6.2,0.8c2,0.3,3.9,0.6,5.8,0.8c0.9,0.1,1.8,0.3,2.7,0.4c0.9,0.1,1.8,0.3,2.6,0.5c3.4,0.7,6.5,1.4,9.4,2
				c2.8,0.5,5.3,1.3,7.5,1.9c2.2,0.6,4,1.1,5.5,1.5c2.9,0.9,4.5,1.4,4.5,1.4s-1.6,0.5-4.5,1.5c-2.9,1-7.1,2.3-12.4,4.2
				c-2.6,0.9-5.5,2-8.7,3.1c-0.8,0.3-1.6,0.5-2.4,0.8c-0.8,0.3-1.6,0.6-2.5,1c-1.7,0.6-3.4,1.3-5.2,2c-1.8,0.7-3.6,1.4-5.5,2.1
				c-1.9,0.8-3.8,1.6-5.7,2.4c-1.9,0.8-3.9,1.6-6,2.5c-2,0.9-4.1,1.8-6.1,2.8c-2.1,0.9-4.2,1.9-6.3,2.9c-2.1,1.1-4.3,2.1-6.4,3.2
				c-2.2,1.1-4.4,2.1-6.6,3.3c-2.2,1.2-4.4,2.4-6.6,3.6c-1.1,0.6-2.2,1.2-3.4,1.8c-1.1,0.7-2.2,1.3-3.3,2c-2.2,1.3-4.5,2.6-6.8,3.9
				c-1.1,0.6-2.2,1.4-3.4,2.1c-1.1,0.7-2.2,1.4-3.4,2.1c-2.3,1.4-4.5,2.8-6.7,4.3c-2.2,1.5-4.5,2.9-6.7,4.4
				c-2.2,1.5-4.4,3.1-6.7,4.7c-1.1,0.8-2.2,1.5-3.3,2.3c-1.1,0.8-2.2,1.6-3.3,2.4c-2.2,1.6-4.3,3.3-6.5,4.9
				c-8.6,6.7-16.8,13.9-24.4,21.5c-7.5,7.7-13.6,16.6-18.7,25.5c-1.2,2.3-2.4,4.5-3.7,6.7c-0.7,1.1-1.2,2.2-1.7,3.3
				c-0.6,1.1-1.2,2.2-1.7,3.2c-0.6,1-1.2,2.1-1.8,3.1c-0.5,1.1-1.1,2.1-1.7,3.1c-0.6,1-1.2,2-1.8,2.9c-0.6,1-1.3,1.9-1.9,2.8
				c-1.2,1.9-2.5,3.7-3.9,5.4c-0.7,0.8-1.3,1.8-2,2.6c-0.7,0.9-1.3,1.7-2,2.5c-0.7,0.8-1.4,1.7-2.2,2.5c-0.7,0.8-1.4,1.6-2.1,2.5
				c-1.4,1.6-2.9,3.2-4.3,4.8c-1.3,1.6-2.8,3.2-4.2,4.7c-0.7,0.8-1.5,1.5-2.2,2.3c-0.7,0.8-1.4,1.6-2,2.3c-1.4,1.5-2.8,3.1-4.3,4.6
				c-1.3,1.6-2.7,3.1-4.1,4.6c-0.7,0.8-1.4,1.5-2.1,2.2c-0.7,0.7-1.3,1.5-2,2.3c-0.7,0.8-1.3,1.5-2,2.2c-0.7,0.7-1.4,1.5-2,2.2
				c-1.4,1.4-2.6,2.9-3.9,4.4c-0.6,0.7-1.3,1.4-1.9,2.1c-0.7,0.7-1.3,1.4-1.9,2.1c-1.3,1.4-2.4,2.8-3.6,4.1c-1.2,1.4-2.4,2.7-3.5,4
				c-0.6,0.7-1.2,1.3-1.7,1.9c-0.5,0.6-1.1,1.2-1.6,1.8c-1,1.2-2.1,2.3-3.1,3.4c-4.1,4.2-7.3,8.9-9.8,11.6c-0.6,0.7-1.2,1.3-1.7,1.9
				c-0.5,0.5-0.9,1-1.3,1.4c-0.7,0.7-1.1,1.1-1.1,1.1c-2.6,2.7-6.8,2.8-9.5,0.2C474.8,814.3,474.7,814.2,474.5,814z"/>
		</g>
		<g id="XMLID_40_">
			<path id="XMLID_68_" class="st1" d="M419.5,769.9c0,0-1.4-3.2-3.6-9.1c-1.1-3.1-2.2-7.1-3.4-11.8c-1-4.6-2.3-10-3.1-16.2
				c-1.7-12.2-2.5-27.5-0.6-45c1.7-17.5,6.3-37.1,14-57.4c4-10.1,8.7-20.4,14.2-30.7c1.4-2.6,2.9-5.1,4.3-7.7
				c0.7-1.3,1.5-2.6,2.2-3.9c0.8-1.3,1.6-2.5,2.4-3.8c1.6-2.5,3.2-5.1,4.9-7.6c1.7-2.5,3.5-5,5.2-7.5c7.2-10,15-19.8,23.8-29.2
				c8.7-9.3,18.2-18.2,28.4-26.5c10.2-8.2,21.1-15.8,32.4-22.8c11.4-6.9,23.3-13.2,35.3-19.1c3-1.4,6.1-2.9,9.1-4.3
				c3-1.4,6.1-2.8,9.2-4.2l4.6-2.1l4.6-2c3.1-1.3,6.2-2.7,9.2-4c12.4-5.2,24.7-10.2,37.1-15.1c24.8-9.6,49.8-18.1,74.8-24.8
				c24.9-6.9,49.7-12.2,73.7-16.4c24-4.1,47.3-7.2,69.4-9.1c11-1,21.8-1.8,32.2-2.4c10.4-0.6,20.4-0.9,30-1.2
				c4.8-0.1,9.5-0.2,14.1-0.3c4.6,0,9.1,0,13.5,0c4.4,0,8.6,0.1,12.8,0.2c2.1,0,4.1,0.1,6.1,0.1c2,0.1,4,0.1,5.9,0.2
				c3.9,0.1,7.7,0.2,11.3,0.4c3.6,0.2,7.1,0.4,10.5,0.5c3.4,0.2,6.6,0.4,9.6,0.6c3.1,0.2,6,0.4,8.8,0.6c11.1,0.9,19.8,1.6,25.7,2.3
				c5.9,0.6,9.1,1,9.1,1c2.8,0.3,4.8,2.8,4.5,5.5c-0.3,2.4-2.1,4.2-4.4,4.4l-0.1,0c0,0-3.1,0.4-9,1.1c-5.8,0.7-14.4,1.8-25.3,3.3
				c-5.4,0.8-11.4,1.6-17.9,2.7c-3.3,0.5-6.6,1-10.1,1.6c-3.5,0.6-7.1,1.2-10.9,1.9c-7.5,1.3-15.4,2.8-23.8,4.3
				c-4.2,0.8-8.4,1.7-12.8,2.6c-4.4,0.9-8.8,1.9-13.4,2.8c-9.1,2-18.5,4.1-28.2,6.5c-9.7,2.3-19.7,4.9-29.9,7.7
				c-5.1,1.4-10.2,2.9-15.4,4.4c-5.2,1.5-10.4,3.1-15.7,4.7c-10.5,3.3-21.3,6.8-32,10.6c-21.6,7.4-43.5,16-65.3,25.4
				c-10.9,4.7-21.7,9.7-32.4,14.8c-10.7,5.2-21.3,10.7-31.7,16.3c-10.4,5.8-20.5,11.8-30.2,18.4c-9.7,6.6-19.1,13.5-28,20.6
				c-9,7.1-17.6,14.3-26,21.4c-8.3,7-16.4,14-24.4,20.8c-7.9,6.7-15.6,13.3-23.2,19.8c-1.8,1.6-3.7,3.2-5.6,4.8
				c-1.9,1.6-3.7,3.2-5.5,4.8c-0.9,0.8-1.8,1.6-2.7,2.4c-0.9,0.8-1.8,1.6-2.7,2.4c-1.8,1.6-3.5,3.2-5.3,4.8
				c-6.9,6.3-13.5,12.7-19.7,19c-6.2,6.3-12,12.6-17.5,18.7c-10.8,12.4-20.3,24.6-28.1,36.1c-7.9,11.5-14.3,22.4-19.4,31.9
				c-2.6,4.7-4.7,9.1-6.7,12.9c-1,1.9-1.8,3.6-2.6,5.3c-0.8,1.7-1.6,3.1-2.2,4.6c-2.5,5.8-4,8.9-4,8.9c-1.4,2.7-4.7,3.8-7.4,2.5
				C420.9,772,420,771,419.5,769.9z"/>
		</g>
		<g id="XMLID_41_">
			<path id="XMLID_66_" class="st1" d="M499.4,728.9c0,0-1.4-2.5-3.7-7.3c-0.6-1.1-1.2-2.6-1.7-4.2c-0.6-1.6-1.2-3.3-1.9-5.2
				c-0.7-1.9-1.2-3.9-1.9-6c-0.7-2.2-1.3-4.5-1.9-6.9c-2.4-9.8-4.2-22.1-4.3-36.4c-0.1-14.2,1.7-30.5,6-47.7c1.2-4.2,2.3-8.7,3.8-13
				c1.4-4.4,3.1-8.8,4.8-13.2c0.9-2.2,1.9-4.4,2.8-6.6c0.5-1.1,1-2.2,1.5-3.3c0.5-1.1,1-2.2,1.6-3.3c1.1-2.2,2.1-4.4,3.3-6.7
				c1.2-2.2,2.4-4.4,3.6-6.6c4.9-8.8,10.4-17.6,16.7-25.9c6.3-8.4,13.3-16.4,21-23.9c7.7-7.5,16.1-14.4,25-20.8
				c8.9-6.3,18.3-12.1,27.9-17.6c9.6-5.4,19.4-10.4,29.2-15.3c2.5-1.2,4.9-2.4,7.4-3.6c2.4-1.2,4.9-2.4,7.4-3.5
				c4.9-2.3,9.8-4.6,14.8-6.9c19.7-8.9,39.7-16.8,59.7-23.1c20-6.4,39.9-11.3,59.2-15.2c9.7-1.8,19.2-3.5,28.5-4.9
				c2.3-0.3,4.7-0.7,7-1c2.3-0.3,4.6-0.6,6.9-0.9c4.6-0.6,9.1-1.1,13.5-1.5c8.9-0.9,17.5-1.6,25.9-2.2c4.2-0.3,8.3-0.4,12.3-0.6
				c4-0.2,8-0.3,11.9-0.4c7.7-0.2,15.1-0.2,22.2-0.1c1.8,0,3.5,0,5.2,0.1c1.7,0,3.4,0.1,5.1,0.1c3.3,0.1,6.5,0.2,9.7,0.3
				c12.5,0.5,23.3,1.4,32.2,2.3c4.4,0.4,8.4,0.9,11.8,1.3c3.4,0.4,6.4,0.8,8.7,1.1c4.7,0.6,7.2,1,7.2,1c2.8,0.4,4.7,2.9,4.3,5.7
				c-0.3,2.3-2.1,4-4.2,4.3l-0.1,0c0,0-2.5,0.4-7.1,1.1c-4.6,0.7-11.4,1.8-20,3.3c-4.3,0.8-9,1.6-14.2,2.6c-2.6,0.5-5.2,1-8,1.6
				c-2.8,0.6-5.6,1.2-8.6,1.8c-2.9,0.6-6,1.3-9.1,2c-1.6,0.3-3.1,0.7-4.7,1.1c-1.6,0.4-3.2,0.8-4.9,1.2c-6.6,1.5-13.4,3.3-20.5,5.2
				c-3.5,1-7.2,1.9-10.8,3c-3.7,1.1-7.4,2.1-11.2,3.3c-7.6,2.3-15.3,4.7-23.2,7.4c-15.8,5.4-32.2,11.4-48.7,18.5
				c-8.2,3.5-16.6,7.2-24.8,11.2c-4.2,1.9-8.2,4-12.4,6c-2.1,1-4.1,2.1-6.2,3.1l-3.1,1.6l-3.1,1.6c-2,1.1-4.1,2.2-6.1,3.3
				c-2,1.1-4.1,2.2-6.1,3.4c-2,1.1-4.1,2.3-6.1,3.4c-2,1.2-4,2.3-6,3.5c-8,4.7-15.8,9.7-23.5,14.8c-3.8,2.6-7.6,5.2-11.2,8
				c-1.8,1.4-3.7,2.7-5.4,4.2l-5.3,4.3c-7,5.9-13.5,12-19.8,18.3c-12.5,12.6-23.7,25.2-34.9,36.6c-11.1,11.5-22,22-32.1,32.3
				c-10.1,10.4-19.3,20.6-27.7,30.6c-8.3,10-15.7,19.7-22.2,29c-6.5,9.2-12,17.9-16.5,25.4c-1.2,1.9-2.2,3.7-3.2,5.4
				c-1,1.7-2,3.4-2.9,4.9c-0.9,1.5-1.7,2.9-2.5,4.2c-0.7,1.3-1.5,2.5-2.1,3.7c-2.5,4.6-4,7.1-4,7.1c-1.7,2.7-5.3,3.6-8,1.9
				C500.6,730.5,499.9,729.7,499.4,728.9z"/>
		</g>
		<g id="XMLID_42_">
			<path id="XMLID_64_" class="st1" d="M422.5,770c0,0-0.6-2.3-1.4-6.7c-0.5-2.2-0.8-5-1.3-8.3c-0.2-1.7-0.3-3.4-0.5-5.3
				c-0.2-1.9-0.4-3.9-0.4-6c-0.5-8.5-0.3-19,1.1-30.9c1.5-11.9,4.3-25.3,9.1-39.5c4.8-14.1,11.4-29,20.2-43.7
				c2.2-3.7,4.5-7.3,6.9-11c1.2-1.8,2.5-3.6,3.8-5.4c0.6-0.9,1.3-1.8,1.9-2.7c0.7-0.9,1.4-1.8,2-2.7c5.4-7.2,11.3-14.1,17.7-20.9
				c12.8-13.5,27.6-25.6,43.4-36.6c15.8-11,32.5-20.9,49.4-30.1c8.5-4.6,17.1-8.9,25.7-12.9c4.3-2.1,8.7-3.9,13-5.9
				c2.2-0.9,4.4-1.8,6.6-2.7c2.2-0.9,4.4-1.8,6.6-2.7c8.7-3.5,17.5-6.7,26.2-9.6c4.4-1.4,8.7-2.8,13.1-4.1c2.2-0.6,4.3-1.3,6.5-1.9
				c2.2-0.6,4.3-1.2,6.5-1.8c4.3-1.2,8.6-2.2,12.8-3.3c4.3-1,8.5-2,12.7-2.9c8.4-1.8,16.6-3.4,24.6-4.7c2-0.3,4-0.7,6-1
				c2-0.3,3.9-0.6,5.9-0.9c3.9-0.6,7.8-1.1,11.5-1.6c7.6-0.9,14.9-1.7,21.9-2.3c14.1-1.2,27-1.7,38.4-2c11.4-0.2,21.4,0,29.6,0.3
				c4.1,0.1,7.7,0.4,10.9,0.5c3.2,0.1,5.9,0.3,8,0.5c4.4,0.3,6.7,0.5,6.7,0.5s-2.3,0.2-6.7,0.6c-4.3,0.4-10.7,1-18.8,2
				c-4,0.5-8.5,1-13.3,1.7c-2.4,0.3-4.9,0.6-7.6,1c-2.6,0.4-5.3,0.8-8.1,1.2c-5.6,0.9-11.5,1.8-17.7,3c-3.1,0.6-6.3,1.1-9.5,1.8
				c-3.2,0.7-6.6,1.3-9.9,2c-6.8,1.4-13.8,3-21,4.8c-3.6,0.9-7.3,1.8-11,2.8c-1.8,0.5-3.7,1-5.6,1.5c-1.9,0.5-3.8,1.1-5.6,1.6
				c-15.1,4.4-30.9,9.3-46.9,15.4c-2,0.7-4,1.5-6,2.2c-2,0.8-4,1.6-6,2.4c-4,1.6-8,3.3-12.1,4.9c-8,3.5-16.2,7-24.1,10.9
				c-2,0.9-4,1.9-6,2.9c-2,1-4,2-6,3c-4,2.1-7.9,4.1-11.9,6.3c-7.9,4.3-15.6,8.9-23.2,13.7c-7.6,4.8-15,9.9-22,15.3
				c-1.8,1.4-3.5,2.7-5.3,4.1c-1.7,1.4-3.5,2.8-5.2,4.1c-1.7,1.4-3.4,2.8-5,4.2c-1.7,1.4-3.3,2.8-5,4.3c-3.3,2.9-6.5,5.8-9.6,8.7
				c-3.1,3-6.2,5.9-9.2,8.9c-3.1,2.9-5.9,6-8.9,8.9c-1.4,1.5-2.8,3-4.3,4.5c-1.5,1.5-2.8,3-4.2,4.5c-1.4,1.5-2.8,3-4.1,4.5
				c-1.4,1.5-2.7,3-4.1,4.5c-2.6,3-5.3,5.9-7.8,8.9c-5.1,6-9.9,11.9-14.4,17.8c-1.1,1.5-2.3,2.9-3.3,4.4c-1.1,1.5-2.1,3-3.2,4.4
				c-2,3-4.1,5.9-6,8.8c-2,2.9-3.8,5.8-5.6,8.7c-0.9,1.4-1.7,2.9-2.6,4.3c-0.8,1.4-1.7,2.8-2.5,4.3c-6.4,11.4-11.7,22.3-15.8,32.4
				c-4.1,10-7.3,19.1-9.5,26.8c-0.6,1.9-1.1,3.7-1.6,5.5c-0.5,1.7-1,3.4-1.4,4.8c-0.4,1.5-0.8,2.9-1.1,4.2c-0.3,1.3-0.7,2.5-0.9,3.6
				c-1,4.3-1.7,6.7-1.7,6.7c-0.3,1.1-1.4,1.7-2.5,1.4C423.3,771.3,422.7,770.7,422.5,770z"/>
		</g>
	</g>
	<g id="XMLID_25_">
		
			<ellipse id="XMLID_278_" transform="matrix(0.9827 -0.185 0.185 0.9827 -108.0999 99.5781)" class="st2" cx="479.5" cy="629" rx="180.3" ry="297.8"/>
		<polygon id="XMLID_277_" class="st2" points="353.1,362.2 408.6,340.5 555.4,915.6 509.4,932.8 		"/>
		<g id="XMLID_26_">
			<path id="XMLID_276_" class="st3" d="M624.3,724.8c-1.9,32.5-7.5,62.8-16.2,89.9c-10.4,32.3-25.3,59.9-44,80.8
				c-19.4,21.7-42.8,36.2-69.5,41.2c-1.7,0.3-3.4,0.6-5.1,0.8c-34.9,4.9-70.4-7-102.9-31.8c-23.3-17.8-45.1-42.1-64-71.6
				c-16.9-26.3-31.5-56.8-42.9-90.2c-7.2-21-13-43.3-17.4-66.5c-2.1-11.2-3.8-22.3-5.1-33.3c-4.9-41.5-4.2-81.4,1.3-117.6
				c4.9-32,13.5-61.1,25.4-86.2c13.3-28,30.6-50.8,51.3-66.6c14.8-11.3,31.2-18.9,49.2-22.3c32.6-6.1,65.9,2.7,97,23.2
				c20.8,13.7,40.6,32.7,58.5,55.9v0c18.1,23.5,34.2,51.3,47.5,82.5c12.7,29.9,22.8,62.8,29.4,97.8
				C624.1,650.2,626.4,688.8,624.3,724.8z"/>
			
				<ellipse id="XMLID_275_" transform="matrix(0.9827 -0.185 0.185 0.9827 -111.5659 92.4362)" class="st2" cx="439.5" cy="644" rx="141.7" ry="234.1"/>
			
				<ellipse id="XMLID_274_" transform="matrix(0.9827 -0.185 0.185 0.9827 -111.5659 92.4362)" class="st3" cx="439.5" cy="644" rx="113.6" ry="187.7"/>
			<g id="XMLID_256_">
				
					<ellipse id="XMLID_273_" transform="matrix(0.9685 -0.2491 0.2491 0.9685 -145.3108 112.2055)" cx="370.8" cy="630.4" rx="18.2" ry="25.6"/>
				
					<ellipse id="XMLID_258_" transform="matrix(0.9685 -0.2491 0.2491 0.9685 -129.3918 138.026)" cx="480.8" cy="580.4" rx="18.2" ry="25.6"/>
				<path id="XMLID_257_" class="st4" d="M410.8,652.9c23.2,10.9,40.8,4.9,51.2-22.6"/>
			</g>
			<g id="XMLID_27_">
				<path id="XMLID_255_" class="st5" d="M396.2,413.9c-13.9,3.3-28.5,10.3-35.4,15.2l-30.9-51.2c14.8-11.3,36.6-23.2,54.5-26.6
					L396.2,413.9z"/>
				<path id="XMLID_254_" class="st5" d="M539.8,430.4L539.8,430.4l-36.6,28c-11.8-13.4-16.5-19.1-33.7-27.3l8-56.6
					c1.3,0,2.6,0,3.9,0.1C502.2,388.2,522,407.2,539.8,430.4z"/>
				<path id="XMLID_253_" class="st5" d="M616.7,610.6h-40.2c-4.3-23.7-10.5-46.2-19.5-66.8l28.5-32.9c0.6,0.6,1.3,1.2,1.9,1.8
					C600,542.7,610,575.6,616.7,610.6z"/>
				<path id="XMLID_252_" class="st5" d="M624.3,724.8c-1.9,32.5-7.5,62.8-16.2,89.9l-36.3-35.8c5.3-19.2,9.4-38.7,12-58.6
					L624.3,724.8z"/>
				<path id="XMLID_251_" class="st5" d="M564.1,895.4c-19.4,21.7-42.8,36.2-69.5,41.2c-1.7,0.3-3.4,0.6-5.1,0.8l-6.7-63.4
					c15.3-1.5,29.4-7.2,41.6-19.9L564.1,895.4z"/>
				<path id="XMLID_250_" class="st5" d="M399,850.5l-12.4,55.2c-23.3-17.8-45.1-42.1-64-71.6l37-23.5
					C372.1,826.9,385.2,840.3,399,850.5z"/>
				<path id="XMLID_30_" class="st5" d="M311.5,715.2l-31.8,28.6c-7.2-21-13-43.3-17.4-66.5c-2.1-11.2-3.8-22.3-5.1-33.3l40,8
					C301.8,680.6,306.6,701,311.5,715.2z"/>
				<path id="XMLID_28_" class="st5" d="M317.4,483.3c-5.7,16.8-11.2,32.8-16.3,47.6l-42.6-4.5c4.9-32,13.5-61.1,25.4-86.2
					L317.4,483.3z"/>
			</g>
		</g>
	</g>
</g>
</svg>
