<?xml version="1.0" encoding="utf-8"?>
<!-- Generator: Adobe Illustrator 26.3.1, SVG Export Plug-In . SVG Version: 6.00 Build 0)  -->
<svg version="1.1" id="Layer_1" xmlns="http://www.w3.org/2000/svg" xmlns:xlink="http://www.w3.org/1999/xlink" x="0px" y="0px"
	 viewBox="0 0 1080 1080" style="enable-background:new 0 0 1080 1080;" xml:space="preserve">
<style type="text/css">
	.st0{fill:#FCF8EF;}
	.st1{fill:none;}
	.st2{fill:#E5DECF;}
	.st3{fill:#212121;}
</style>
<g>
	<path class="st0" d="M1080,1080H0V13.6C0,6.1,6.1,0,13.6,0h1052.8c7.5,0,13.6,6.1,13.6,13.6L1080,1080z"/>
</g>
<path class="st1" d="M1080,1080"/>
<path class="st1" d="M0,0"/>
<rect x="0" y="1080" class="st2" width="1080" height="389.6"/>
<circle class="st3" cx="258.5" cy="258" r="150"/>
<circle class="st3" cx="540.5" cy="540" r="150"/>
<circle class="st3" cx="258.5" cy="822" r="150"/>
<circle class="st3" cx="822.5" cy="258" r="150"/>
<circle class="st3" cx="822.5" cy="822" r="150"/>
<ellipse class="st3" cx="263" cy="1274.8" rx="150" ry="41.6"/>
<ellipse class="st3" cx="263" cy="1374.2" rx="150" ry="41.6"/>
<ellipse class="st3" cx="263" cy="1175.5" rx="150" ry="41.6"/>
<ellipse class="st3" cx="817" cy="1274.8" rx="150" ry="41.6"/>
<ellipse class="st3" cx="817" cy="1374.2" rx="150" ry="41.6"/>
<ellipse class="st3" cx="817" cy="1175.5" rx="150" ry="41.6"/>
</svg>
