<?xml version="1.0" encoding="utf-8"?>
<!-- Generator: Adobe Illustrator 26.3.1, SVG Export Plug-In . SVG Version: 6.00 Build 0)  -->
<svg version="1.1" id="Layer_1" xmlns="http://www.w3.org/2000/svg" xmlns:xlink="http://www.w3.org/1999/xlink" x="0px" y="0px"
	 viewBox="0 0 1080 1080" style="enable-background:new 0 0 1080 1080;" xml:space="preserve">
<style type="text/css">
	.st0{fill:#894666;}
	.st1{fill:#428E69;}
	.st2{fill:#AA6F89;}
	.st3{fill:#6FAD91;}
</style>
<g>
	<path class="st0" d="M-329.74,523.68h869.2v888.76c-240.04,0-457.32-99.47-614.63-260.3
		C-232.46,991.29-329.74,769.12-329.74,523.68z"/>
	<path class="st1" d="M539.46,1412.44V523.68h869.2c0,245.44-97.28,467.61-254.58,628.46
		C996.78,1312.97,779.5,1412.44,539.46,1412.44z"/>
	<path class="st2" d="M1409.02,502.71h-869.2v-869.2c240.04,0,457.32,97.28,614.63,254.58
		C1311.74,45.39,1409.02,262.67,1409.02,502.71z"/>
	<path class="st3" d="M539.82-366.5v869.2h-869.2c0-240.04,97.28-457.32,254.58-614.63C82.5-269.21,299.78-366.5,539.82-366.5z"/>
	<path class="st2" d="M-329.39,502.71h869.2v869.2c-240.04,0-457.32-97.28-614.63-254.58C-232.1,960.03-329.39,742.74-329.39,502.71
		z"/>
	<path class="st3" d="M539.82,1371.91v-869.2h869.2c0,240.04-97.28,457.32-254.58,614.63
		C997.14,1274.63,779.85,1371.91,539.82,1371.91z"/>
</g>
</svg>
