<?xml version="1.0" encoding="utf-8"?>
<!-- Generator: Adobe Illustrator 19.0.0, SVG Export Plug-In . SVG Version: 6.00 Build 0)  -->
<svg version="1.1" id="Layer_1" xmlns="http://www.w3.org/2000/svg" xmlns:xlink="http://www.w3.org/1999/xlink" x="0px" y="0px"
	 viewBox="60 -260 1080 1080" style="enable-background:new 60 -260 1080 1080;" xml:space="preserve">
<style type="text/css">
	.st0{display:none;}
	.st1{display:inline;fill:#894666;}
	.st2{display:inline;fill:#428E69;}
	.st3{display:inline;fill:#AA6F89;}
	.st4{display:inline;fill:#6FAD91;}
	.st5{fill:#428E69;}
	.st6{fill:#894666;}
	.st7{fill:#6FAD91;}
	.st8{fill:#AA6F89;}
</style>
<g class="st0">
	<path class="st1" d="M-269.7,263.7h869.2v888.8c-240,0-457.3-99.5-614.6-260.3C-172.5,731.3-269.7,509.1-269.7,263.7z"/>
	<path class="st2" d="M599.5,1152.4V263.7h869.2c0,245.4-97.3,467.6-254.6,628.5C1056.8,1053,839.5,1152.4,599.5,1152.4z"/>
	<path class="st3" d="M1469,242.7H599.8v-869.2c240,0,457.3,97.3,614.6,254.6C1371.7-214.6,1469,2.7,1469,242.7z"/>
	<path class="st4" d="M599.8-626.5v869.2h-869.2c0-240,97.3-457.3,254.6-614.6C142.5-529.2,359.8-626.5,599.8-626.5z"/>
	<path class="st3" d="M-269.4,242.7h869.2v869.2c-240,0-457.3-97.3-614.6-254.6C-172.1,700-269.4,482.7-269.4,242.7z"/>
	<path class="st4" d="M599.8,1111.9V242.7H1469c0,240-97.3,457.3-254.6,614.6C1057.1,1014.6,839.8,1111.9,599.8,1111.9z"/>
</g>
<g>
	<g>
		<ellipse class="st5" cx="599.5" cy="280" rx="869.2" ry="868.4"/>
		<path class="st6" d="M599.5-588.4c239.4,0,456.3,96.8,613.5,253.4L599.5,278.8l869.2,2c0,239.5-96.9,456.4-253.6,613.6l0.5-38.7
			L599.5,278.8v869.6c-240,0-457.3-95.7-614.6-253l0.5-38.7l614.1-577.9l-869.2,2c0-240,97.3-457.3,254.6-614.6l614.6,612.6V-588.4z
			"/>
	</g>
</g>
<g>
	<g>
		<ellipse class="st7" cx="600" cy="241.3" rx="869.2" ry="868.4"/>
		<path class="st8" d="M600-627.1c239.4,0,456.3,96.8,613.5,253.4L600,240.1l869.2,2c0,239.5-96.9,456.4-253.6,613.6L600,240.1
			v869.6c-240,0-457.3-95.7-614.6-253L600,240.1l-869.2,2c0-240,97.3-457.3,254.6-614.6L600,240.1V-627.1z"/>
	</g>
	<g>
		
			<ellipse transform="matrix(-0.7071 -0.7071 0.7071 -0.7071 852.5491 836.2031)" class="st7" cx="599.5" cy="241.5" rx="817.1" ry="817.9"/>
		<path class="st8" d="M21.7-336.3C181-495.6,391.1-575.6,599.9-576l-1.3,814.6l578.7-576C1336.6-178,1416.6,33.1,1417,242
			l-818.4-3.3l579.7,579.7C1018.6,978,809.3,1059,600,1059l-1.4-820.4l-577,581.7C-138.1,660.7-218,451.3-218,242l816.6-3.3
			L21.7-336.3z"/>
	</g>
</g>
<g>
	<g>
		<circle class="st7" cx="598.9" cy="238.9" r="89.2"/>
		<path class="st8" d="M688.1,238.9c0,24.6-9.9,46.8-26,63l-63.1-63l-0.2,89.2c-24.6,0-46.9-9.9-63-26l63.2-63.2h-89.3
			c0-24.6,9.8-46.9,26-63.1l63.3,63.1l-0.2-89.2c24.7,0,47,10,63.1,26.1L599,238.9H688.1z"/>
	</g>
	<g>
		<path class="st7" d="M642.9,194.9c24.4,24.3,24.4,63.8,0,88.1c-24.3,24.3-63.8,24.3-88.2,0s-24.4-63.8,0-88.1
			C579.1,170.5,618.5,170.5,642.9,194.9z"/>
		<path class="st8" d="M642.9,194.9c12.2,12.1,18.3,28.2,18.3,44.1l-62.1-0.1l43.9,44.1c-12.2,12.1-28.3,18.2-44.2,18.3l0.3-62.4
			L554.8,283c-12.2-12.2-18.4-28.1-18.4-44.1l62.6-0.1l-44.4-44c12.2-12.2,28.1-18.3,44.1-18.3l0.3,62.2L642.9,194.9z"/>
	</g>
</g>
</svg>
