<?xml version="1.0" encoding="iso-8859-1"?>
<!-- Generator: Adobe Illustrator 19.0.0, SVG Export Plug-In . SVG Version: 6.00 Build 0)  -->
<svg version="1.1" id="Layer_1" xmlns="http://www.w3.org/2000/svg" xmlns:xlink="http://www.w3.org/1999/xlink" x="0px" y="0px"
	 viewBox="284 -284 1080 1080" style="enable-background:new 284 -284 1080 1080;" xml:space="preserve">
<g id="Layer_2">
</g>
<circle style="fill:#681258;" cx="824" cy="312" r="540"/>
<g>
	<circle style="fill:#8C1974;" cx="824" cy="256" r="540"/>
</g>
<circle style="fill:#681258;" cx="824" cy="256" r="389"/>
<g>
	<circle style="fill:#8C1974;" cx="824" cy="256" r="294"/>
</g>
<path style="fill:#FCF8EF;" d="M856.8-147h-51.6c-34.35,0-62.2-27.85-62.2-62.2v-62.88c0-20.39,16.53-36.92,36.92-36.92h102.15
	c20.4,0,36.93,16.53,36.93,36.92v62.88C919-174.85,891.15-147,856.8-147z"/>
<path style="fill:#FCF8EF;" d="M555.52-48.97l-36.49,36.49c-24.29,24.29-63.67,24.29-87.96,0l-44.46-44.46
	c-14.42-14.42-14.42-37.8,0-52.22l72.23-72.23c14.42-14.42,37.8-14.42,52.22,0l44.46,44.46C579.81-112.64,579.81-73.26,555.52-48.97
	z"/>
<path style="fill:#D3CEC5;" d="M798.2,697h51.6c34.35,0,62.2,27.85,62.2,62.2v62.88c0,20.39-16.53,36.92-36.92,36.92H772.92
	c-20.39,0-36.92-16.53-36.92-36.92V759.2C736,724.85,763.85,697,798.2,697z"/>
<path style="fill:#FCF8EF;" d="M1126.97-30.48l-36.49-36.49c-24.29-24.29-24.29-63.67,0-87.96l44.46-44.46
	c14.42-14.42,37.8-14.42,52.22,0l72.23,72.23c14.42,14.42,14.42,37.8,0,52.22l-44.46,44.46C1190.64-6.19,1151.26-6.19,1126.97-30.48
	z"/>
<circle cx="626" cy="204" r="52"/>
<circle cx="1021" cy="204" r="52"/>
<path d="M896.5,240h-145c-8.56,0-15.5-6.94-15.5-15.5l0,0c0-8.56,6.94-15.5,15.5-15.5h145c8.56,0,15.5,6.94,15.5,15.5l0,0
	C912,233.06,905.06,240,896.5,240z"/>
<path d="M752.8,162.31L626.11,91.77c-7.48-4.16-10.17-13.6-6-21.08l0,0c4.16-7.48,13.6-10.17,21.08-6l126.69,70.54
	c7.48,4.16,10.17,13.6,6,21.08l0,0C769.72,163.79,760.28,166.47,752.8,162.31z"/>
<path d="M996.23,60.88l-78.38,121.99c-4.63,7.2-14.22,9.29-21.42,4.66l0,0c-7.2-4.63-9.29-14.22-4.66-21.42l78.38-121.99
	c4.63-7.2,14.22-9.29,21.42-4.66l0,0C998.77,44.09,1000.86,53.68,996.23,60.88z"/>
<path style="fill:#FCF8EF;" d="M798.2,659h51.6c34.35,0,62.2,27.85,62.2,62.2v62.88c0,20.39-16.53,36.92-36.92,36.92H772.92
	c-20.39,0-36.92-16.53-36.92-36.92V721.2C736,686.85,763.85,659,798.2,659z"/>
<path style="fill:#D3CEC5;" d="M360.8,589.71v39.21c0,10.41,3.89,20.45,10.91,28.13c25.72,28.14,89.03,95.73,103.29,94.94
	c18-1,23.55-9.07,23.55-9.07l-2.49-54.54"/>
<path style="fill:#D3CEC5;" d="M1275,595v39.21c0,10.41-3.89,20.45-10.91,28.13c-25.72,28.14-89.03,95.73-103.29,94.94
	c-18-1-23.55-9.07-23.55-9.07l2.49-54.54"/>
<path style="fill:#FCF8EF;" d="M504.03,519.48l36.49,36.49c24.29,24.29,24.29,63.67,0,87.96l-44.46,44.46
	c-14.42,14.42-37.8,14.42-52.22,0l-72.23-72.23c-14.42-14.42-14.42-37.8,0-52.22l44.46-44.46
	C440.36,495.19,479.74,495.19,504.03,519.48z"/>
<path style="fill:#FCF8EF;" d="M1095.48,563.97l36.49-36.49c24.29-24.29,63.67-24.29,87.96,0l44.46,44.46
	c14.42,14.42,14.42,37.8,0,52.22l-72.23,72.23c-14.42,14.42-37.8,14.42-52.22,0l-44.46-44.46
	C1071.19,627.64,1071.19,588.26,1095.48,563.97z"/>
<path style="fill:#D3CEC5;" d="M286,363l-14.24-0.34c-10.36,0-18.76-8.4-18.76-18.76v-36.82h31L286,363z"/>
<path style="fill:#D3CEC5;" d="M1361,372l15.24-0.34c10.36,0,18.76-8.4,18.76-18.76v-36.82h-31L1361,372z"/>
<path style="fill:#FCF8EF;" d="M415,230.2v51.6c0,34.35-27.85,62.2-62.2,62.2h-62.88c-20.39,0-36.92-16.53-36.92-36.92v-12.44
	v-89.71c0-20.4,16.53-36.93,36.92-36.93h62.88C387.15,168,415,195.85,415,230.2z"/>
<path style="fill:#FCF8EF;" d="M1234,281.8v-51.6c0-34.35,27.85-62.2,62.2-62.2h62.88c20.39,0,36.92,16.53,36.92,36.92v102.15
	c0,20.39-16.53,36.92-36.92,36.92h-62.88C1261.85,344,1234,316.15,1234,281.8z"/>
</svg>
