<?xml version="1.0" encoding="iso-8859-1"?>
<!-- Generator: Adobe Illustrator 19.0.0, SVG Export Plug-In . SVG Version: 6.00 Build 0)  -->
<svg version="1.1" id="Layer_1" xmlns="http://www.w3.org/2000/svg" xmlns:xlink="http://www.w3.org/1999/xlink" x="0px" y="0px"
	 viewBox="0 0 500 500" style="enable-background:new 0 0 500 500;" xml:space="preserve">
<g id="Layer_1_1_">
	<g id="XMLID_13_">
		<path id="XMLID_11_" style="fill:#FFFFFF;stroke:#000000;stroke-width:7;stroke-miterlimit:10;" d="M470.159,392.713H29.841
			c-5.523,0-10-4.477-10-10V256.966c0-5.523,4.477-10,10-10h440.317c5.523,0,10,4.477,10,10v125.747
			C480.159,388.235,475.682,392.713,470.159,392.713z"/>
		<g id="XMLID_1_">
			<path id="XMLID_2_" d="M92.257,329.517c0,5.181-2.026,9.193-6.078,12.036c-4.052,2.843-9.758,4.264-17.117,4.264
				c-13.683,0-21.614-4.756-23.792-14.268l7.373-1.474c0.85,3.374,2.656,5.852,5.42,7.432c2.763,1.581,6.522,2.372,11.278,2.372
				c4.915,0,8.708-0.844,11.378-2.531s4.005-4.164,4.005-7.433c0-1.833-0.418-3.32-1.255-4.463s-2.013-2.086-3.527-2.83
				c-1.514-0.743-3.321-1.368-5.42-1.873c-2.099-0.504-4.423-1.049-6.974-1.634c-4.438-0.982-7.805-1.966-10.103-2.949
				c-2.298-0.982-4.112-2.078-5.44-3.288c-1.329-1.208-2.345-2.623-3.049-4.244c-0.704-1.62-1.056-3.48-1.056-5.579
				c0-4.809,1.84-8.515,5.52-11.119c3.68-2.604,8.947-3.905,15.802-3.905c6.376,0,11.251,0.977,14.626,2.929
				c3.374,1.953,5.739,5.281,7.094,9.983l-7.492,1.315c-0.824-2.976-2.391-5.135-4.703-6.477c-2.312-1.341-5.513-2.013-9.604-2.013
				c-4.49,0-7.917,0.744-10.282,2.232s-3.547,3.706-3.547,6.655c0,1.728,0.458,3.155,1.375,4.284
				c0.917,1.13,2.238,2.086,3.965,2.869c1.727,0.784,5.167,1.747,10.322,2.89c1.727,0.398,3.447,0.804,5.161,1.215
				c1.714,0.413,3.354,0.904,4.922,1.475c1.567,0.572,3.035,1.242,4.404,2.013c1.368,0.771,2.557,1.714,3.566,2.83
				c1.01,1.115,1.8,2.431,2.372,3.945C91.971,325.691,92.257,327.472,92.257,329.517z"/>
			<path id="XMLID_4_" d="M146.138,305.765c0,5.314-1.733,9.538-5.201,12.673c-3.467,3.136-8.177,4.703-14.128,4.703H110.31v21.879
				h-7.612v-56.152h23.633c6.296,0,11.172,1.475,14.626,4.424C144.41,296.24,146.138,300.398,146.138,305.765z M138.486,305.845
				c0-7.254-4.357-10.88-13.072-10.88H110.31v22.158h15.423C134.235,317.123,138.486,313.363,138.486,305.845z"/>
			<path id="XMLID_7_" d="M190.892,345.02l-6.417-16.419H158.89l-6.456,16.419h-7.891l22.916-56.152h8.648l22.557,56.152H190.892z
				 M171.683,294.605l-0.359,1.116c-0.665,2.206-1.647,5.035-2.949,8.488l-7.173,18.452h21.002l-7.213-18.531
				c-0.744-1.833-1.488-3.906-2.232-6.217L171.683,294.605z"/>
			<path id="XMLID_10_" d="M230.386,294.247c-6.217,0-11.053,2-14.506,5.998c-3.454,3.999-5.181,9.479-5.181,16.439
				c0,6.881,1.8,12.414,5.4,16.599c3.6,4.185,8.468,6.276,14.606,6.276c7.864,0,13.775-3.892,17.734-11.677l6.217,3.108
				c-2.311,4.836-5.559,8.516-9.744,11.039c-4.185,2.524-9.041,3.786-14.566,3.786c-5.659,0-10.555-1.176-14.686-3.526
				c-4.132-2.352-7.28-5.713-9.445-10.083c-2.166-4.37-3.248-9.545-3.248-15.522c0-8.953,2.417-15.968,7.253-21.043
				c4.835-5.074,11.53-7.611,20.086-7.611c5.978,0,10.972,1.169,14.984,3.507c4.011,2.338,6.961,5.806,8.848,10.401l-7.214,2.392
				c-1.302-3.269-3.394-5.765-6.277-7.492C237.765,295.111,234.345,294.247,230.386,294.247z"/>
			<path id="XMLID_15_" d="M264.46,345.02v-56.152h42.603v6.217h-34.991v18.014h32.6v6.137h-32.6v19.568h36.625v6.217H264.46V345.02
				z"/>
		</g>
	</g>
</g>
<g id="Layer_2">
</g>
</svg>
