<?xml version="1.0" encoding="utf-8"?>
<!-- Generator: Adobe Illustrator 19.0.0, SVG Export Plug-In . SVG Version: 6.00 Build 0)  -->
<svg version="1.1" id="Layer_1" xmlns="http://www.w3.org/2000/svg" xmlns:xlink="http://www.w3.org/1999/xlink" x="0px" y="0px"
	 viewBox="225 -355 1210 1210" style="enable-background:new 225 -355 1210 1210;" xml:space="preserve">
<style type="text/css">
	.st0{fill:#C1272F;}
	.st1{fill:#EF3E44;}
	.st2{fill:#FCF8EF;}
	.st3{fill:#D3CEC5;}
	.st4{display:none;}
	.st5{fill:none;stroke:#000000;stroke-width:30;stroke-linecap:round;stroke-miterlimit:10;}
</style>
<circle class="st0" cx="830" cy="306" r="540"/>
<g>
	<circle class="st1" cx="830" cy="250" r="540"/>
</g>
<circle class="st0" cx="830" cy="250" r="389"/>
<g>
	<circle class="st1" cx="830" cy="250" r="294"/>
</g>
<path class="st2" d="M862.8-153h-51.6c-34.4,0-62.2-27.9-62.2-62.2v-62.9c0-20.4,16.5-36.9,36.9-36.9h102.1
	c20.4,0,36.9,16.5,36.9,36.9v62.9C925-180.9,897.2-153,862.8-153z"/>
<path class="st2" d="M561.5-55L525-18.5c-24.3,24.3-63.7,24.3-88,0l-44.5-44.5c-14.4-14.4-14.4-37.8,0-52.2l72.2-72.2
	c14.4-14.4,37.8-14.4,52.2,0l44.5,44.5C585.8-118.6,585.8-79.3,561.5-55z"/>
<path class="st3" d="M804.2,691h51.6c34.3,0,62.2,27.8,62.2,62.2v62.9c0,20.4-16.5,36.9-36.9,36.9H778.9
	c-20.4,0-36.9-16.5-36.9-36.9v-62.9C742,718.8,769.8,691,804.2,691z"/>
<path class="st2" d="M1133-36.5L1096.5-73c-24.3-24.3-24.3-63.7,0-88l44.5-44.5c14.4-14.4,37.8-14.4,52.2,0l72.2,72.2
	c14.4,14.4,14.4,37.8,0,52.2l-44.5,44.5C1196.6-12.2,1157.3-12.2,1133-36.5z"/>
<circle cx="632" cy="198" r="52"/>
<circle cx="1027" cy="198" r="52"/>
<path class="st4" d="M902.5,234h-145c-8.6,0-15.5-6.9-15.5-15.5l0,0c0-8.6,6.9-15.5,15.5-15.5h145c8.6,0,15.5,6.9,15.5,15.5l0,0
	C918,227.1,911.1,234,902.5,234z"/>
<path class="st2" d="M804.2,653h51.6c34.3,0,62.2,27.8,62.2,62.2v62.9c0,20.4-16.5,36.9-36.9,36.9H778.9
	c-20.4,0-36.9-16.5-36.9-36.9v-62.9C742,680.8,769.8,653,804.2,653z"/>
<path class="st3" d="M366.8,583.7v39.2c0,10.4,3.9,20.5,10.9,28.1c25.7,28.1,89,95.7,103.3,94.9c18-1,23.5-9.1,23.5-9.1l-2.5-54.5"
	/>
<path class="st3" d="M1281,589v39.2c0,10.4-3.9,20.5-10.9,28.1c-25.7,28.1-89,95.7-103.3,94.9c-18-1-23.6-9.1-23.6-9.1l2.5-54.5"/>
<path class="st2" d="M510,513.5l36.5,36.5c24.3,24.3,24.3,63.7,0,88l-44.5,44.5c-14.4,14.4-37.8,14.4-52.2,0l-72.2-72.2
	c-14.4-14.4-14.4-37.8,0-52.2l44.5-44.5C446.4,489.2,485.7,489.2,510,513.5z"/>
<path class="st2" d="M1101.5,558l36.5-36.5c24.3-24.3,63.7-24.3,88,0l44.5,44.5c14.4,14.4,14.4,37.8,0,52.2l-72.2,72.2
	c-14.4,14.4-37.8,14.4-52.2,0l-44.5-44.5C1077.2,621.6,1077.2,582.3,1101.5,558z"/>
<path class="st3" d="M292,357l-14.2-0.3c-10.4,0-18.8-8.4-18.8-18.8v-36.8h31L292,357z"/>
<path class="st3" d="M1367,366l15.2-0.3c10.4,0,18.8-8.4,18.8-18.8v-36.8h-31L1367,366z"/>
<path class="st2" d="M421,224.2v51.6c0,34.3-27.9,62.2-62.2,62.2h-62.9c-20.4,0-36.9-16.5-36.9-36.9v-12.4v-89.7
	c0-20.4,16.5-36.9,36.9-36.9h62.9C393.1,162,421,189.9,421,224.2z"/>
<path class="st2" d="M1240,275.8v-51.6c0-34.4,27.8-62.2,62.2-62.2h62.9c20.4,0,36.9,16.5,36.9,36.9v102.2
	c0,20.4-16.5,36.9-36.9,36.9h-62.9C1267.8,338,1240,310.2,1240,275.8z"/>
<path class="st5" d="M756,218.5c48.6,47.1,97.6,47.5,147,0"/>
</svg>
