<?xml version="1.0" encoding="utf-8"?>
<!-- Generator: Adobe Illustrator 19.0.0, SVG Export Plug-In . SVG Version: 6.00 Build 0)  -->
<svg version="1.1" id="Layer_1" xmlns="http://www.w3.org/2000/svg" xmlns:xlink="http://www.w3.org/1999/xlink" x="0px" y="0px"
	 viewBox="0 0 500 500" style="enable-background:new 0 0 500 500;" xml:space="preserve">
<style type="text/css">
	.st0{fill:#FFFFFF;}
</style>
<g id="XMLID_2_">
	<path id="XMLID_9_" class="st0" d="M385,250.3c0,0-0.1,2.3-0.3,6.6c-0.1,1.2-0.2,2.5-0.4,4c-0.1,1.5-0.3,3.1-0.5,4.7
		c-0.2,1.7-0.5,3.5-0.8,5.4c-0.4,1.9-0.8,3.9-1.2,6c-1.9,8.5-5,18.6-10.3,29.4c-5.2,10.8-12.7,22.3-22.7,33.1
		c-10.1,10.7-22.8,20.7-37.9,28.2c-15,7.5-32.3,12.5-50.5,13.6c-1.1,0.1-2.3,0.1-3.4,0.2c-1.1,0-2.3,0-3.4,0c-1.1,0-2.3,0-3.4,0
		l-0.2,0l-0.4,0l-0.4,0l-0.8,0l-1.6-0.1c-1.1,0-2.2-0.1-3.3-0.1c-1.2-0.1-2.4-0.2-3.5-0.3c-1.2-0.1-2.4-0.2-3.5-0.3
		c-1.2-0.2-2.3-0.3-3.5-0.5c-9.2-1.3-18.4-3.7-27.3-7.1c-17.8-6.7-34.2-17.6-47.5-31.3c-13.3-13.8-23.5-30.4-29.5-48.2
		c-6.1-17.7-8-36.4-6.3-53.9c1.7-17.7,7-34.2,14.7-48.4c7.7-14.2,17.6-26,28.1-35.2c10.6-9.2,21.6-15.9,31.9-20.4
		c10.3-4.6,19.9-7.2,27.8-8.7c8-1.5,14.3-1.8,18.6-2c4.3,0,6.6-0.1,6.6-0.1s-2.3,0.1-6.6,0.3c-4.3,0.4-10.6,0.9-18.5,2.7
		c-7.8,1.7-17.2,4.7-27.2,9.5c-10,4.8-20.6,11.8-30.6,21.1c-9.9,9.4-19.1,21.1-26,35.1c-6.9,13.9-11.5,29.9-12.5,46.7
		c-1.1,16.9,1.4,34.3,7.6,50.8c6.2,16.4,16.3,31.5,28.9,43.8c12.8,12.2,28.1,21.6,44.5,27.2c16.3,5.6,33.6,7.3,49.8,5.7
		c16.3-1.6,31.5-6.5,44.5-13.6c13.1-7.1,23.9-16.2,32.4-25.9c8.4-9.7,14.6-19.9,18.8-29.4c4.2-9.5,6.6-18.3,8-25.6
		c0.3-1.8,0.6-3.6,0.8-5.2c0.2-1.6,0.4-3.2,0.5-4.6c0.2-1.5,0.2-2.7,0.3-3.9c0.1-1.2,0.1-2.2,0.2-3.2c0-4.3,0.1-6.6,0.1-6.6
		L385,250.3z"/>
</g>
</svg>
