<?xml version="1.0" encoding="iso-8859-1"?>
<!-- Generator: Adobe Illustrator 19.0.0, SVG Export Plug-In . SVG Version: 6.00 Build 0)  -->
<svg version="1.1" id="Layer_1" xmlns="http://www.w3.org/2000/svg" xmlns:xlink="http://www.w3.org/1999/xlink" x="0px" y="0px"
	 viewBox="0 0 500 500" style="enable-background:new 0 0 500 500;" xml:space="preserve">
<g id="Layer_1_1_">
	<g id="XMLID_12_">
		<path id="XMLID_34_" style="fill:#FFFFFF;stroke:#000000;stroke-width:9;stroke-miterlimit:10;" d="M155.476,392.713H29.841
			c-5.523,0-10-4.477-10-10V257.077c0-5.523,4.477-10,10-10h125.635c5.523,0,10,4.477,10,10v125.635
			C165.476,388.235,160.999,392.713,155.476,392.713z"/>
		<path id="XMLID_33_" style="fill:#FFFFFF;stroke:#000000;stroke-width:9;stroke-miterlimit:10;" d="M312.197,392.632H186.562
			c-5.523,0-10-4.477-10-10V256.997c0-5.523,4.477-10,10-10h125.635c5.523,0,10,4.477,10,10v125.635
			C322.197,388.154,317.72,392.632,312.197,392.632z"/>
		<path id="XMLID_32_" style="fill:#FFFFFF;stroke:#000000;stroke-width:9;stroke-miterlimit:10;" d="M469.807,392.713H344.171
			c-5.523,0-10-4.477-10-10V257.077c0-5.523,4.477-10,10-10h125.635c5.523,0,10,4.477,10,10v125.635
			C479.807,388.235,475.329,392.713,469.807,392.713z"/>
		<path id="XMLID_31_" style="fill:#FFFFFF;stroke:#000000;stroke-width:9;stroke-miterlimit:10;" d="M271.014,236.397H145.379
			c-5.523,0-10-4.477-10-10V100.762c0-5.523,4.477-10,10-10h125.635c5.523,0,10,4.477,10,10v125.635
			C281.014,231.92,276.537,236.397,271.014,236.397z"/>
		<g id="XMLID_28_">
			<path id="XMLID_29_" d="M230.309,190.765h-9.079l-9.717-35.641c-0.637-2.23-1.566-6.226-2.788-11.986
				c-0.69,3.08-1.274,5.655-1.752,7.726s-4.102,15.371-10.871,39.902h-9.079l-16.526-56.11h7.925l10.075,35.641
				c1.195,4.46,2.296,9.053,3.305,13.778c0.637-2.92,1.374-6.106,2.21-9.557c0.836-3.451,4.52-16.739,11.051-39.862h7.287
				l9.756,34.924c1.487,5.708,2.655,10.54,3.504,14.495l0.358-1.394c0.717-3.053,1.301-5.542,1.752-7.467
				c0.451-1.925,4.181-15.444,11.19-40.559h7.925L230.309,190.765z"/>
		</g>
		<g id="XMLID_24_">
			<path id="XMLID_25_" d="M111.485,340.121l-6.411-16.407H79.508l-6.451,16.407h-7.885l22.898-56.11h8.641l22.539,56.11
				L111.485,340.121L111.485,340.121z M92.291,289.746l-0.358,1.115c-0.664,2.203-1.646,5.031-2.947,8.482l-7.168,18.438h20.986
				l-7.208-18.517c-0.743-1.832-1.487-3.903-2.23-6.212L92.291,289.746z"/>
		</g>
		<g id="XMLID_21_">
			<path id="XMLID_22_" d="M271.864,325.819c0,5.177-2.024,9.186-6.073,12.026c-4.049,2.841-9.75,4.261-17.104,4.261
				c-13.672,0-21.597-4.752-23.774-14.256l7.367-1.473c0.85,3.372,2.655,5.847,5.416,7.427s6.518,2.369,11.27,2.369
				c4.911,0,8.701-0.843,11.369-2.529s4.002-4.161,4.002-7.427c0-1.832-0.418-3.319-1.254-4.46s-2.011-2.084-3.524-2.827
				c-1.513-0.743-3.319-1.367-5.416-1.872c-2.097-0.504-4.42-1.049-6.969-1.633c-4.434-0.982-7.799-1.965-10.095-2.947
				s-4.108-2.077-5.436-3.285s-2.343-2.622-3.046-4.241c-0.704-1.619-1.055-3.478-1.055-5.575c0-4.805,1.838-8.509,5.515-11.11
				c3.677-2.602,8.94-3.903,15.79-3.903c6.372,0,11.243,0.976,14.615,2.927c3.372,1.951,5.734,5.276,7.088,9.975l-7.487,1.314
				c-0.823-2.973-2.389-5.13-4.699-6.471s-5.509-2.011-9.597-2.011c-4.487,0-7.911,0.743-10.274,2.23s-3.544,3.703-3.544,6.65
				c0,1.726,0.458,3.153,1.374,4.281s2.237,2.084,3.962,2.867s5.164,1.746,10.314,2.887c1.726,0.398,3.445,0.803,5.157,1.215
				s3.352,0.903,4.918,1.473c1.566,0.571,3.033,1.241,4.4,2.011s2.555,1.712,3.564,2.827s1.799,2.429,2.369,3.942
				C271.579,321.996,271.864,323.774,271.864,325.819z"/>
		</g>
		<g id="XMLID_17_">
			<path id="XMLID_18_" d="M431.186,312.837c0,5.787-1.128,10.852-3.385,15.192c-2.257,4.341-5.456,7.666-9.597,9.975
				c-4.141,2.31-8.919,3.465-14.335,3.465h-20.986v-56.11h18.557c9.504,0,16.837,2.383,22.001,7.148
				C428.604,297.273,431.186,304.05,431.186,312.837z M423.54,312.837c0-6.956-1.905-12.259-5.715-15.909
				c-3.809-3.65-9.324-5.476-16.545-5.476h-10.792v43.924h12.504c4.115,0,7.732-0.903,10.852-2.708
				c3.119-1.805,5.515-4.407,7.187-7.805C422.704,321.465,423.54,317.457,423.54,312.837z"/>
		</g>
	</g>
</g>
<g id="Layer_2">
</g>
</svg>
