<?xml version="1.0" encoding="utf-8"?>
<!-- Generator: Adobe Illustrator 26.3.1, SVG Export Plug-In . SVG Version: 6.00 Build 0)  -->
<svg version="1.1" xmlns="http://www.w3.org/2000/svg" xmlns:xlink="http://www.w3.org/1999/xlink" x="0px" y="0px"
	 viewBox="0 0 1080 1080" style="enable-background:new 0 0 1080 1080;" xml:space="preserve">
<style type="text/css">
	.st0{fill:#12356B;}
	.st1{fill:#19488E;}
	.st2{fill:#FCF8EF;}
	.st3{fill:#D3CEC5;}
</style>
<g id="Layer_2">
</g>
<g id="Layer_1">
	<circle class="st0" cx="540" cy="596" r="540"/>
	<g>
		<circle class="st1" cx="540" cy="540" r="540"/>
	</g>
	<circle class="st0" cx="540" cy="540" r="389"/>
	<g>
		<circle class="st1" cx="540" cy="540" r="294"/>
	</g>
	<path class="st2" d="M572.8,137h-51.6c-34.35,0-62.2-27.85-62.2-62.2V11.92C459-8.47,475.53-25,495.92-25h102.15
		C618.47-25,635-8.47,635,11.92V74.8C635,109.15,607.15,137,572.8,137z"/>
	<path class="st2" d="M271.52,235.03l-36.49,36.49c-24.29,24.29-63.67,24.29-87.96,0l-44.46-44.46c-14.42-14.42-14.42-37.8,0-52.22
		l72.23-72.23c14.42-14.42,37.8-14.42,52.22,0l44.46,44.46C295.81,171.36,295.81,210.74,271.52,235.03z"/>
	<path class="st3" d="M514.2,981h51.6c34.35,0,62.2,27.85,62.2,62.2v62.88c0,20.39-16.53,36.92-36.92,36.92H488.92
		c-20.39,0-36.92-16.53-36.92-36.92v-62.88C452,1008.85,479.85,981,514.2,981z"/>
	<path class="st2" d="M842.97,253.52l-36.49-36.49c-24.29-24.29-24.29-63.67,0-87.96l44.46-44.46c14.42-14.42,37.8-14.42,52.22,0
		l72.23,72.23c14.42,14.42,14.42,37.8,0,52.22l-44.46,44.46C906.64,277.81,867.26,277.81,842.97,253.52z"/>
	<circle cx="342" cy="488" r="52"/>
	<circle cx="737" cy="488" r="52"/>
	<path d="M612.5,524h-145c-8.56,0-15.5-6.94-15.5-15.5v0c0-8.56,6.94-15.5,15.5-15.5h145c8.56,0,15.5,6.94,15.5,15.5v0
		C628,517.06,621.06,524,612.5,524z"/>
	<path d="M468.8,446.31l-126.69-70.54c-7.48-4.16-10.17-13.6-6-21.08l0,0c4.16-7.48,13.6-10.17,21.08-6l126.69,70.54
		c7.48,4.16,10.17,13.6,6,21.08l0,0C485.72,447.79,476.28,450.47,468.8,446.31z"/>
	<path d="M712.23,344.88l-78.38,121.99c-4.63,7.2-14.22,9.29-21.42,4.66l0,0c-7.2-4.63-9.29-14.22-4.66-21.42l78.38-121.99
		c4.63-7.2,14.22-9.29,21.42-4.66l0,0C714.77,328.09,716.86,337.68,712.23,344.88z"/>
	<path class="st2" d="M514.2,943h51.6c34.35,0,62.2,27.85,62.2,62.2v62.88c0,20.39-16.53,36.92-36.92,36.92H488.92
		c-20.39,0-36.92-16.53-36.92-36.92v-62.88C452,970.85,479.85,943,514.2,943z"/>
	<path class="st3" d="M76.8,873.71v39.21c0,10.41,3.89,20.45,10.91,28.13c25.72,28.14,89.03,95.73,103.29,94.94
		c18-1,23.55-9.07,23.55-9.07l-2.49-54.54"/>
	<path class="st3" d="M991,879v39.21c0,10.41-3.89,20.45-10.91,28.13c-25.72,28.14-89.03,95.73-103.29,94.94
		c-18-1-23.55-9.07-23.55-9.07l2.49-54.54"/>
	<path class="st2" d="M220.03,803.48l36.49,36.49c24.29,24.29,24.29,63.67,0,87.96l-44.46,44.46c-14.42,14.42-37.8,14.42-52.22,0
		l-72.23-72.23c-14.42-14.42-14.42-37.8,0-52.22l44.46-44.46C156.36,779.19,195.74,779.19,220.03,803.48z"/>
	<path class="st2" d="M811.48,847.97l36.49-36.49c24.29-24.29,63.67-24.29,87.96,0l44.46,44.46c14.42,14.42,14.42,37.8,0,52.22
		l-72.23,72.23c-14.42,14.42-37.8,14.42-52.22,0l-44.46-44.46C787.19,911.64,787.19,872.26,811.48,847.97z"/>
	<path class="st3" d="M2,647l-14.24-0.34c-10.36,0-18.76-8.4-18.76-18.76v-36.82H0L2,647z"/>
	<path class="st3" d="M1077,656l15.24-0.34c10.36,0,18.76-8.4,18.76-18.76v-36.82h-31L1077,656z"/>
	<path class="st2" d="M131,514.2v51.6c0,34.35-27.85,62.2-62.2,62.2H5.92C-14.47,628-31,611.47-31,591.08v-12.44v-89.71
		C-31,468.53-14.47,452,5.92,452H68.8C103.15,452,131,479.85,131,514.2z"/>
	<path class="st2" d="M950,565.8v-51.6c0-34.35,27.85-62.2,62.2-62.2h62.88c20.39,0,36.92,16.53,36.92,36.92v102.15
		c0,20.39-16.53,36.92-36.92,36.92h-62.88C977.85,628,950,600.15,950,565.8z"/>
</g>
</svg>
